Foldit-Light.ufo
<glyph name="exclam.color0" format="2">
  <advance width="600"/>
  <unicode hex="0021"/>
  <outline>
    <contour>
      <point x="55" y="132" type="line"/>
      <point x="110" y="132" type="line"/>
      <point x="110" y="709" type="line"/>
      <point x="109" y="709" type="line"/>
      <point x="55" y="672" type="line"/>
    </contour>
  </outline>
</glyph>
<glyph name="exclam.color1" format="2">
  <advance width="600"/>
  <unicode hex="0021"/>
  <outline>
    <contour>
      <point x="50" y="0" type="line"/>
      <point x="115" y="0" type="line"/>
      <point x="115" y="54" type="line"/>
      <point x="50" y="54" type="line"/>
    </contour>
  </outline>
</glyph>
<glyph name="exclam" format="2">
  <advance width="164.5"/>
  <unicode hex="0021"/>
  <outline>
    <contour>
      <point x="55" y="132" type="line"/>
      <point x="110" y="132" type="line"/>
      <point x="110" y="709" type="line"/>
      <point x="109" y="709" type="line"/>
      <point x="55" y="672" type="line"/>
    </contour>
    <contour>
      <point x="50" y="0" type="line"/>
      <point x="115" y="0" type="line"/>
      <point x="115" y="54" type="line"/>
      <point x="50" y="54" type="line"/>
    </contour>
  </outline>
</glyph>
<glyph name="quotedbl.color1" format="2">
  <advance width="600"/>
  <unicode hex="0022"/>
  <outline>
    <contour>
      <point x="44" y="553" type="line"/>
      <point x="44" y="553" type="line"/>
      <point x="83" y="553" type="line"/>
      <point x="108" y="653" type="line"/>
      <point x="59" y="653" type="line"/>
    </contour>
  </outline>
</glyph>
<glyph name="quotedbl.color3" format="2">
  <advance width="600"/>
  <unicode hex="0022"/>
  <outline>
    <contour>
      <point x="129" y="553" type="line"/>
      <point x="129" y="553" type="line"/>
      <point x="168" y="553" type="line"/>
      <point x="193" y="653" type="line"/>
      <point x="144" y="653" type="line"/>
    </contour>
  </outline>
</glyph>
<glyph name="numbersign.color0" format="2">
  <advance width="600"/>
  <unicode hex="0023"/>
  <outline>
    <contour>
      <point x="190" y="0" type="line"/>
      <point x="243" y="0" type="line"/>
      <point x="363" y="704" type="line"/>
      <point x="363" y="705" type="line"/>
      <point x="310" y="705" type="line"/>
      <point x="190" y="1" type="line"/>
    </contour>
  </outline>
</glyph>
<glyph name="numbersign.color1" format="2">
  <advance width="600"/>
  <unicode hex="0023"/>
  <outline>
    <contour>
      <point x="27" y="190" type="line"/>
      <point x="332" y="190" type="line"/>
      <point x="346" y="240" type="line"/>
      <point x="346" y="241" type="line"/>
      <point x="41" y="241" type="line"/>
      <point x="27" y="191" type="line"/>
    </contour>
  </outline>
</glyph>
<glyph name="numbersign.color2" format="2">
  <advance width="600"/>
  <unicode hex="0023"/>
  <outline>
    <contour>
      <point x="57" y="0" type="line"/>
      <point x="110" y="0" type="line"/>
      <point x="230" y="704" type="line"/>
      <point x="230" y="705" type="line"/>
      <point x="176" y="705" type="line"/>
      <point x="57" y="1" type="line"/>
    </contour>
  </outline>
</glyph>
<glyph name="numbersign.color3" format="2">
  <advance width="600"/>
  <unicode hex="0023"/>
  <outline>
    <contour>
      <point x="74" y="493" type="line"/>
      <point x="379" y="493" type="line"/>
      <point x="393" y="542" type="line"/>
      <point x="393" y="543" type="line"/>
      <point x="88" y="543" type="line"/>
      <point x="74" y="494" type="line"/>
    </contour>
  </outline>
</glyph>
<glyph name="numbersign" format="2">
  <advance width="428.5"/>
  <unicode hex="0023"/>
  <outline>
    <contour>
      <point x="190" y="0" type="line"/>
      <point x="243" y="0" type="line"/>
      <point x="363" y="704" type="line"/>
      <point x="363" y="705" type="line"/>
      <point x="310" y="705" type="line"/>
      <point x="190" y="1" type="line"/>
    </contour>
    <contour>
      <point x="27" y="190" type="line"/>
      <point x="332" y="190" type="line"/>
      <point x="346" y="240" type="line"/>
      <point x="346" y="241" type="line"/>
      <point x="41" y="241" type="line"/>
      <point x="27" y="191" type="line"/>
    </contour>
    <contour>
      <point x="57" y="0" type="line"/>
      <point x="110" y="0" type="line"/>
      <point x="230" y="704" type="line"/>
      <point x="230" y="705" type="line"/>
      <point x="176" y="705" type="line"/>
      <point x="57" y="1" type="line"/>
    </contour>
    <contour>
      <point x="74" y="493" type="line"/>
      <point x="379" y="493" type="line"/>
      <point x="393" y="542" type="line"/>
      <point x="393" y="543" type="line"/>
      <point x="88" y="543" type="line"/>
      <point x="74" y="494" type="line"/>
    </contour>
  </outline>
</glyph>
<glyph name="dollar.color0" format="2">
  <advance width="600"/>
  <unicode hex="0024"/>
  <outline>
    <contour>
      <point x="104" y="651" type="line"/>
      <point x="299" y="651" type="line"/>
      <point x="299" y="652" type="line"/>
      <point x="246" y="705" type="line"/>
      <point x="104" y="705" type="line"/>
    </contour>
  </outline>
</glyph>
<glyph name="dollar.color1" format="2">
  <advance width="600"/>
  <unicode hex="0024"/>
  <outline>
    <contour>
      <point x="101" y="0" type="line"/>
      <point x="243" y="0" type="line"/>
      <point x="243" y="54" type="line"/>
      <point x="48" y="54" type="line"/>
      <point x="48" y="53" type="line"/>
    </contour>
  </outline>
</glyph>
<glyph name="dollar.color2" format="2">
  <advance width="600"/>
  <unicode hex="0024"/>
  <outline>
    <contour>
      <point x="146" y="-53" type="line"/>
      <point x="147" y="-53" type="line"/>
      <point x="202" y="-30" type="line"/>
      <point x="200" y="761" type="line"/>
      <point x="199" y="761" type="line"/>
      <point x="145" y="738" type="line"/>
    </contour>
  </outline>
</glyph>
<glyph name="dollar.color3" format="2">
  <advance width="600"/>
  <unicode hex="0024"/>
  <outline>
    <contour>
      <point x="101" y="338" type="line"/>
      <point x="243" y="338" type="line"/>
      <point x="243" y="392" type="line"/>
      <point x="48" y="392" type="line"/>
      <point x="48" y="391" type="line"/>
    </contour>
  </outline>
</glyph>
<glyph name="dollar.color5" format="2">
  <advance width="600"/>
  <unicode hex="0024"/>
  <outline>
    <contour>
      <point x="243" y="0" type="line"/>
      <point x="244" y="0" type="line"/>
      <point x="299" y="52" type="line"/>
      <point x="299" y="339" type="line"/>
      <point x="244" y="392" type="line"/>
      <point x="243" y="392" type="line"/>
    </contour>
  </outline>
</glyph>
<glyph name="dollar" format="2">
  <advance width="347"/>
  <unicode hex="0024"/>
  <outline>
    <contour>
      <point x="104" y="651" type="line"/>
      <point x="299" y="651" type="line"/>
      <point x="299" y="652" type="line"/>
      <point x="246" y="705" type="line"/>
      <point x="104" y="705" type="line"/>
    </contour>
    <contour>
      <point x="101" y="0" type="line"/>
      <point x="243" y="0" type="line"/>
      <point x="243" y="54" type="line"/>
      <point x="48" y="54" type="line"/>
      <point x="48" y="53" type="line"/>
    </contour>
    <contour>
      <point x="146" y="-53" type="line"/>
      <point x="147" y="-53" type="line"/>
      <point x="202" y="-30" type="line"/>
      <point x="200" y="761" type="line"/>
      <point x="199" y="761" type="line"/>
      <point x="145" y="738" type="line"/>
    </contour>
    <contour>
      <point x="101" y="338" type="line"/>
      <point x="243" y="338" type="line"/>
      <point x="243" y="392" type="line"/>
      <point x="48" y="392" type="line"/>
      <point x="48" y="391" type="line"/>
    </contour>
    <contour>
      <point x="48" y="392" type="line"/>
      <point x="104" y="392" type="line"/>
      <point x="104" y="705" type="line"/>
      <point x="103" y="705" type="line"/>
      <point x="48" y="651" type="line"/>
    </contour>
    <contour>
      <point x="243" y="0" type="line"/>
      <point x="244" y="0" type="line"/>
      <point x="299" y="52" type="line"/>
      <point x="299" y="339" type="line"/>
      <point x="244" y="392" type="line"/>
      <point x="243" y="392" type="line"/>
    </contour>
  </outline>
</glyph>
<glyph name="percent.color0" format="2">
  <advance width="600"/>
  <unicode hex="0025"/>
  <outline>
    <contour>
      <point x="134" y="0" type="line"/>
      <point x="192" y="0" type="line"/>
      <point x="495" y="704" type="line"/>
      <point x="495" y="705" type="line"/>
      <point x="437" y="705" type="line"/>
      <point x="134" y="1" type="line"/>
    </contour>
  </outline>
</glyph>
<glyph name="percent.color1" format="2">
  <advance width="600"/>
  <unicode hex="0025"/>
  <outline>
    <contour>
      <point x="85" y="363" type="line"/>
      <point x="191" y="363" type="line"/>
      <point x="191" y="417" type="line"/>
      <point x="48" y="417" type="line"/>
      <point x="48" y="416" type="line"/>
    </contour>
  </outline>
</glyph>
<glyph name="percent.color2" format="2">
  <advance width="600"/>
  <unicode hex="0025"/>
  <outline>
    <contour>
      <point x="48" y="417" type="line"/>
      <point x="104" y="417" type="line"/>
      <point x="104" y="685" type="line"/>
      <point x="103" y="685" type="line"/>
      <point x="48" y="648" type="line"/>
    </contour>
  </outline>
</glyph>
<glyph name="percent.color3" format="2">
  <advance width="600"/>
  <unicode hex="0025"/>
  <outline>
    <contour>
      <point x="191" y="363" type="line"/>
      <point x="192" y="363" type="line"/>
      <point x="246" y="400" type="line"/>
      <point x="246" y="631" type="line"/>
      <point x="191" y="631" type="line"/>
    </contour>
  </outline>
</glyph>
<glyph name="percent.color4" format="2">
  <advance width="600"/>
  <unicode hex="0025"/>
  <outline>
    <contour>
      <point x="104" y="631" type="line"/>
      <point x="246" y="631" type="line"/>
      <point x="246" y="632" type="line"/>
      <point x="209" y="685" type="line"/>
      <point x="104" y="685" type="line"/>
    </contour>
  </outline>
</glyph>
<glyph name="percent.color5" format="2">
  <advance width="600"/>
  <unicode hex="0025"/>
  <outline>
    <contour>
      <point x="415" y="17" type="line"/>
      <point x="520" y="17" type="line"/>
      <point x="520" y="71" type="line"/>
      <point x="378" y="71" type="line"/>
      <point x="378" y="70" type="line"/>
    </contour>
  </outline>
</glyph>
<glyph name="percent.color6" format="2">
  <advance width="600"/>
  <unicode hex="0025"/>
  <outline>
    <contour>
      <point x="378" y="71" type="line"/>
      <point x="433" y="71" type="line"/>
      <point x="433" y="338" type="line"/>
      <point x="432" y="338" type="line"/>
      <point x="378" y="301" type="line"/>
    </contour>
  </outline>
</glyph>
<glyph name="percent.color7" format="2">
  <advance width="600"/>
  <unicode hex="0025"/>
  <outline>
    <contour>
      <point x="520" y="17" type="line"/>
      <point x="521" y="17" type="line"/>
      <point x="576" y="54" type="line"/>
      <point x="576" y="284" type="line"/>
      <point x="520" y="284" type="line"/>
    </contour>
  </outline>
</glyph>
<glyph name="percent.color8" format="2">
  <advance width="600"/>
  <unicode hex="0025"/>
  <outline>
    <contour>
      <point x="433" y="284" type="line"/>
      <point x="576" y="284" type="line"/>
      <point x="576" y="285" type="line"/>
      <point x="539" y="338" type="line"/>
      <point x="433" y="338" type="line"/>
    </contour>
  </outline>
</glyph>
<glyph name="percent" format="2">
  <advance width="623.83333"/>
  <unicode hex="0025"/>
  <outline>
    <contour>
      <point x="134" y="0" type="line"/>
      <point x="192" y="0" type="line"/>
      <point x="495" y="704" type="line"/>
      <point x="495" y="705" type="line"/>
      <point x="437" y="705" type="line"/>
      <point x="134" y="1" type="line"/>
    </contour>
    <contour>
      <point x="85" y="363" type="line"/>
      <point x="191" y="363" type="line"/>
      <point x="191" y="417" type="line"/>
      <point x="48" y="417" type="line"/>
      <point x="48" y="416" type="line"/>
    </contour>
    <contour>
      <point x="48" y="417" type="line"/>
      <point x="104" y="417" type="line"/>
      <point x="104" y="685" type="line"/>
      <point x="103" y="685" type="line"/>
      <point x="48" y="648" type="line"/>
    </contour>
    <contour>
      <point x="191" y="363" type="line"/>
      <point x="192" y="363" type="line"/>
      <point x="246" y="400" type="line"/>
      <point x="246" y="631" type="line"/>
      <point x="191" y="631" type="line"/>
    </contour>
    <contour>
      <point x="104" y="631" type="line"/>
      <point x="246" y="631" type="line"/>
      <point x="246" y="632" type="line"/>
      <point x="209" y="685" type="line"/>
      <point x="104" y="685" type="line"/>
    </contour>
    <contour>
      <point x="415" y="17" type="line"/>
      <point x="520" y="17" type="line"/>
      <point x="520" y="71" type="line"/>
      <point x="378" y="71" type="line"/>
      <point x="378" y="70" type="line"/>
    </contour>
    <contour>
      <point x="378" y="71" type="line"/>
      <point x="433" y="71" type="line"/>
      <point x="433" y="338" type="line"/>
      <point x="432" y="338" type="line"/>
      <point x="378" y="301" type="line"/>
    </contour>
    <contour>
      <point x="520" y="17" type="line"/>
      <point x="521" y="17" type="line"/>
      <point x="576" y="54" type="line"/>
      <point x="576" y="284" type="line"/>
      <point x="520" y="284" type="line"/>
    </contour>
    <contour>
      <point x="433" y="284" type="line"/>
      <point x="576" y="284" type="line"/>
      <point x="576" y="285" type="line"/>
      <point x="539" y="338" type="line"/>
      <point x="433" y="338" type="line"/>
    </contour>
  </outline>
</glyph>
<glyph name="ampersand.color1" format="2">
  <advance width="600"/>
  <unicode hex="0026"/>
  <outline>
    <contour>
      <point x="91" y="392" type="line"/>
      <point x="137" y="392" type="line"/>
      <point x="137" y="680" type="line"/>
      <point x="136" y="680" type="line"/>
      <point x="91" y="640" type="line"/>
    </contour>
  </outline>
</glyph>
<glyph name="ampersand.color2" format="2">
  <advance width="600"/>
  <unicode hex="0026"/>
  <outline>
    <contour>
      <point x="390" y="0" type="line"/>
      <point x="392" y="0" type="line"/>
      <point x="453" y="6" type="line"/>
      <point x="453" y="7" type="line"/>
      <point x="274" y="382" type="line"/>
      <point x="228" y="382" type="line"/>
      <point x="209" y="382" type="line"/>
    </contour>
  </outline>
</glyph>
<glyph name="ampersand.color5" format="2">
  <advance width="600"/>
  <unicode hex="0026"/>
  <outline>
    <contour>
      <point x="91" y="0" type="line"/>
      <point x="92" y="0" type="line"/>
      <point x="92" y="392" type="line"/>
      <point x="91" y="392" type="line"/>
      <point x="40" y="339" type="line"/>
      <point x="40" y="47" type="line"/>
    </contour>
  </outline>
</glyph>
<glyph name="ampersand.color6" format="2">
  <advance width="600"/>
  <unicode hex="0026"/>
  <outline>
    <contour>
      <point x="268" y="0" type="line"/>
      <point x="269" y="0" type="line"/>
      <point x="326" y="60" type="line"/>
      <point x="451" y="362" type="line"/>
      <point x="451" y="363" type="line"/>
      <point x="393" y="373" type="line"/>
      <point x="259" y="54" type="line"/>
    </contour>
  </outline>
</glyph>
<glyph name="ampersand.color7" format="2">
  <advance width="600"/>
  <unicode hex="0026"/>
  <outline>
    <contour>
      <point x="256" y="338" type="line"/>
      <point x="257" y="338" type="line"/>
      <point x="301" y="392" type="line"/>
      <point x="301" y="640" type="line"/>
      <point x="257" y="680" type="line"/>
      <point x="256" y="680" type="line"/>
    </contour>
  </outline>
</glyph>
<glyph name="ampersand" format="2">
  <advance width="494"/>
  <unicode hex="0026"/>
  <outline>
    <contour>
      <point x="137" y="626" type="line"/>
      <point x="256" y="626" type="line"/>
      <point x="256" y="680" type="line"/>
      <point x="137" y="680" type="line"/>
    </contour>
    <contour>
      <point x="91" y="392" type="line"/>
      <point x="137" y="392" type="line"/>
      <point x="137" y="680" type="line"/>
      <point x="136" y="680" type="line"/>
      <point x="91" y="640" type="line"/>
    </contour>
    <contour>
      <point x="390" y="0" type="line"/>
      <point x="392" y="0" type="line"/>
      <point x="453" y="6" type="line"/>
      <point x="453" y="7" type="line"/>
      <point x="274" y="382" type="line"/>
      <point x="228" y="382" type="line"/>
      <point x="209" y="382" type="line"/>
    </contour>
    <contour>
      <point x="92" y="0" type="line"/>
      <point x="268" y="0" type="line"/>
      <point x="259" y="54" type="line"/>
      <point x="92" y="54" type="line"/>
    </contour>
    <contour>
      <point x="92" y="338" type="line"/>
      <point x="256" y="338" type="line"/>
      <point x="256" y="392" type="line"/>
      <point x="92" y="392" type="line"/>
    </contour>
    <contour>
      <point x="91" y="0" type="line"/>
      <point x="92" y="0" type="line"/>
      <point x="92" y="392" type="line"/>
      <point x="91" y="392" type="line"/>
      <point x="40" y="339" type="line"/>
      <point x="40" y="47" type="line"/>
    </contour>
    <contour>
      <point x="268" y="0" type="line"/>
      <point x="269" y="0" type="line"/>
      <point x="326" y="60" type="line"/>
      <point x="451" y="362" type="line"/>
      <point x="451" y="363" type="line"/>
      <point x="393" y="373" type="line"/>
      <point x="259" y="54" type="line"/>
    </contour>
    <contour>
      <point x="256" y="338" type="line"/>
      <point x="257" y="338" type="line"/>
      <point x="301" y="392" type="line"/>
      <point x="301" y="640" type="line"/>
      <point x="257" y="680" type="line"/>
      <point x="256" y="680" type="line"/>
    </contour>
  </outline>
</glyph>
<glyph name="quotesingle" format="2">
  <advance width="141.16667"/>
  <unicode hex="0027"/>
  <outline>
    <contour>
      <point x="33" y="653" type="line"/>
      <point x="108" y="653" type="line"/>
      <point x="71" y="716" type="line"/>
      <point x="33" y="716" type="line"/>
    </contour>
    <contour>
      <point x="44" y="553" type="line"/>
      <point x="44" y="553" type="line"/>
      <point x="83" y="553" type="line"/>
      <point x="108" y="653" type="line"/>
      <point x="59" y="653" type="line"/>
    </contour>
  </outline>
</glyph>
<glyph name="parenleft.color0" format="2">
  <advance width="600"/>
  <unicode hex="0028"/>
  <outline>
    <contour>
      <point x="106" y="-29" type="line"/>
      <point x="106" y="680" type="line"/>
      <point x="105" y="680" type="line"/>
      <point x="50" y="639" type="line"/>
      <point x="50" y="-21" type="line"/>
    </contour>
  </outline>
</glyph>
<glyph name="parenleft.color1" format="2">
  <advance width="600"/>
  <unicode hex="0028"/>
  <outline>
    <contour>
      <point x="84" y="-62" type="line"/>
      <point x="224" y="-100" type="line"/>
      <point x="224" y="-46" type="line"/>
      <point x="50" y="-8" type="line"/>
      <point x="50" y="-22" type="line"/>
    </contour>
  </outline>
</glyph>
<glyph name="parenleft.color2" format="2">
  <advance width="600"/>
  <unicode hex="0028"/>
  <outline>
    <contour>
      <point x="106" y="626" type="line"/>
      <point x="224" y="651" type="line"/>
      <point x="224" y="705" type="line"/>
      <point x="106" y="680" type="line"/>
    </contour>
  </outline>
</glyph>
<glyph name="parenleft" format="2">
  <advance width="230"/>
  <unicode hex="0028"/>
  <outline>
    <contour>
      <point x="106" y="-29" type="line"/>
      <point x="106" y="680" type="line"/>
      <point x="105" y="680" type="line"/>
      <point x="50" y="639" type="line"/>
      <point x="50" y="-21" type="line"/>
    </contour>
    <contour>
      <point x="84" y="-62" type="line"/>
      <point x="224" y="-100" type="line"/>
      <point x="224" y="-46" type="line"/>
      <point x="50" y="-8" type="line"/>
      <point x="50" y="-22" type="line"/>
    </contour>
    <contour>
      <point x="106" y="626" type="line"/>
      <point x="224" y="651" type="line"/>
      <point x="224" y="705" type="line"/>
      <point x="106" y="680" type="line"/>
    </contour>
  </outline>
</glyph>
<glyph name="parenright.color0" format="2">
  <advance width="600"/>
  <unicode hex="0029"/>
  <outline>
    <contour>
      <point x="141" y="-75" type="line"/>
      <point x="142" y="-75" type="line"/>
      <point x="197" y="-34" type="line"/>
      <point x="197" y="626" type="line"/>
      <point x="141" y="634" type="line"/>
    </contour>
  </outline>
</glyph>
<glyph name="parenright.color1" format="2">
  <advance width="600"/>
  <unicode hex="0029"/>
  <outline>
    <contour>
      <point x="23" y="-100" type="line"/>
      <point x="141" y="-75" type="line"/>
      <point x="141" y="-21" type="line"/>
      <point x="23" y="-46" type="line"/>
    </contour>
  </outline>
</glyph>
<glyph name="parenright.color2" format="2">
  <advance width="600"/>
  <unicode hex="0029"/>
  <outline>
    <contour>
      <point x="23" y="651" type="line"/>
      <point x="197" y="614" type="line"/>
      <point x="197" y="627" type="line"/>
      <point x="163" y="667" type="line"/>
      <point x="23" y="705" type="line"/>
    </contour>
  </outline>
</glyph>
<glyph name="parenright" format="2">
  <advance width="246.66667"/>
  <unicode hex="0029"/>
  <outline>
    <contour>
      <point x="141" y="-75" type="line"/>
      <point x="142" y="-75" type="line"/>
      <point x="197" y="-34" type="line"/>
      <point x="197" y="626" type="line"/>
      <point x="141" y="634" type="line"/>
    </contour>
    <contour>
      <point x="23" y="-100" type="line"/>
      <point x="141" y="-75" type="line"/>
      <point x="141" y="-21" type="line"/>
      <point x="23" y="-46" type="line"/>
    </contour>
    <contour>
      <point x="23" y="651" type="line"/>
      <point x="197" y="614" type="line"/>
      <point x="197" y="627" type="line"/>
      <point x="163" y="667" type="line"/>
      <point x="23" y="705" type="line"/>
    </contour>
  </outline>
</glyph>
<glyph name="asterisk.color0" format="2">
  <advance width="600"/>
  <unicode hex="002A"/>
  <outline>
    <contour>
      <point x="69" y="507" type="line"/>
      <point x="96" y="507" type="line"/>
      <point x="96" y="509" type="line"/>
      <point x="115" y="561" type="line"/>
      <point x="37" y="645" type="line"/>
    </contour>
  </outline>
</glyph>
<glyph name="asterisk.color1" format="2">
  <advance width="600"/>
  <unicode hex="002A"/>
  <outline>
    <contour>
      <point x="115" y="561" type="line"/>
      <point x="119" y="730" type="line"/>
      <point x="118" y="730" type="line"/>
      <point x="37" y="646" type="line"/>
      <point x="37" y="645" type="line"/>
    </contour>
  </outline>
</glyph>
<glyph name="asterisk.color2" format="2">
  <advance width="600"/>
  <unicode hex="002A"/>
  <outline>
    <contour>
      <point x="96" y="507" type="line"/>
      <point x="168" y="507" type="line"/>
      <point x="200" y="645" type="line"/>
      <point x="200" y="646" type="line"/>
      <point x="120" y="730" type="line"/>
      <point x="119" y="730" type="line"/>
      <point x="96" y="509" type="line"/>
    </contour>
  </outline>
</glyph>
<glyph name="asterisk" format="2">
  <advance width="242"/>
  <unicode hex="002A"/>
  <outline>
    <contour>
      <point x="69" y="507" type="line"/>
      <point x="96" y="507" type="line"/>
      <point x="96" y="509" type="line"/>
      <point x="115" y="561" type="line"/>
      <point x="37" y="645" type="line"/>
    </contour>
    <contour>
      <point x="115" y="561" type="line"/>
      <point x="119" y="730" type="line"/>
      <point x="118" y="730" type="line"/>
      <point x="37" y="646" type="line"/>
      <point x="37" y="645" type="line"/>
    </contour>
    <contour>
      <point x="96" y="507" type="line"/>
      <point x="168" y="507" type="line"/>
      <point x="200" y="645" type="line"/>
      <point x="200" y="646" type="line"/>
      <point x="120" y="730" type="line"/>
      <point x="119" y="730" type="line"/>
      <point x="96" y="509" type="line"/>
    </contour>
  </outline>
</glyph>
<glyph name="plus.color0" format="2">
  <advance width="600"/>
  <unicode hex="002B"/>
  <outline>
    <contour>
      <point x="49" y="320" type="line"/>
      <point x="128" y="320" type="line"/>
      <point x="128" y="374" type="line"/>
      <point x="48" y="374" type="line"/>
    </contour>
  </outline>
</glyph>
<glyph name="plus.color1" format="2">
  <advance width="600"/>
  <unicode hex="002B"/>
  <outline>
    <contour>
      <point x="128" y="211" type="line"/>
      <point x="182" y="211" type="line"/>
      <point x="182" y="320" type="line"/>
      <point x="128" y="320" type="line"/>
    </contour>
  </outline>
</glyph>
<glyph name="plus.color2" format="2">
  <advance width="600"/>
  <unicode hex="002B"/>
  <outline>
    <contour>
      <point x="128" y="320" type="line"/>
      <point x="129" y="320" type="line"/>
      <point x="182" y="374" type="line"/>
      <point x="182" y="482" type="line"/>
      <point x="128" y="482" type="line"/>
    </contour>
  </outline>
</glyph>
<glyph name="plus.color3" format="2">
  <advance width="600"/>
  <unicode hex="002B"/>
  <outline>
    <contour>
      <point x="129" y="320" type="line"/>
      <point x="262" y="320" type="line"/>
      <point x="262" y="374" type="line"/>
      <point x="182" y="374" type="line"/>
    </contour>
  </outline>
</glyph>
<glyph name="plus" format="2">
  <advance width="309.83333"/>
  <unicode hex="002B"/>
  <outline>
    <contour>
      <point x="49" y="320" type="line"/>
      <point x="128" y="320" type="line"/>
      <point x="128" y="374" type="line"/>
      <point x="48" y="374" type="line"/>
    </contour>
    <contour>
      <point x="128" y="211" type="line"/>
      <point x="182" y="211" type="line"/>
      <point x="182" y="320" type="line"/>
      <point x="128" y="320" type="line"/>
    </contour>
    <contour>
      <point x="128" y="320" type="line"/>
      <point x="129" y="320" type="line"/>
      <point x="182" y="374" type="line"/>
      <point x="182" y="482" type="line"/>
      <point x="128" y="482" type="line"/>
    </contour>
    <contour>
      <point x="129" y="320" type="line"/>
      <point x="262" y="320" type="line"/>
      <point x="262" y="374" type="line"/>
      <point x="182" y="374" type="line"/>
    </contour>
  </outline>
</glyph>
<glyph name="comma.color0" format="2">
  <advance width="600"/>
  <unicode hex="002C"/>
  <outline>
    <contour>
      <point x="33" y="42" type="line"/>
      <point x="100" y="42" type="line"/>
      <point x="63" y="96" type="line"/>
      <point x="33" y="96" type="line"/>
    </contour>
  </outline>
</glyph>
<glyph name="comma.color1" format="2">
  <advance width="600"/>
  <unicode hex="002C"/>
  <outline>
    <contour>
      <point x="51" y="-67" type="line"/>
      <point x="52" y="-67" type="line"/>
      <point x="100" y="-30" type="line"/>
      <point x="100" y="42" type="line"/>
      <point x="51" y="42" type="line"/>
    </contour>
  </outline>
</glyph>
<glyph name="comma" format="2">
  <advance width="132.83333"/>
  <unicode hex="002C"/>
  <outline>
    <contour>
      <point x="33" y="42" type="line"/>
      <point x="100" y="42" type="line"/>
      <point x="63" y="96" type="line"/>
      <point x="33" y="96" type="line"/>
    </contour>
    <contour>
      <point x="51" y="-67" type="line"/>
      <point x="52" y="-67" type="line"/>
      <point x="100" y="-30" type="line"/>
      <point x="100" y="42" type="line"/>
      <point x="51" y="42" type="line"/>
    </contour>
  </outline>
</glyph>
<glyph name="hyphen" format="2">
  <advance width="222.5"/>
  <unicode hex="002D"/>
  <outline>
    <contour>
      <point x="50" y="313" type="line"/>
      <point x="173" y="313" type="line"/>
      <point x="173" y="375" type="line"/>
      <point x="50" y="375" type="line"/>
    </contour>
  </outline>
</glyph>
<glyph name="slash" format="2">
  <advance width="244.66667"/>
  <unicode hex="002F"/>
  <outline>
    <contour>
      <point x="0" y="-100" type="line"/>
      <point x="58" y="-100" type="line"/>
      <point x="245" y="796" type="line"/>
      <point x="245" y="797" type="line"/>
      <point x="187" y="797" type="line"/>
      <point x="0" y="-99" type="line"/>
    </contour>
  </outline>
</glyph>
<glyph name="zero.color0" format="2">
  <advance width="600"/>
  <unicode hex="0030"/>
  <outline>
    <contour>
      <point x="237" y="54" type="line"/>
      <point x="295" y="54" type="line"/>
      <point x="295" y="55" type="line"/>
      <point x="141" y="631" type="line"/>
      <point x="83" y="631" type="line"/>
    </contour>
  </outline>
</glyph>
<glyph name="zero.color1" format="2">
  <advance width="600"/>
  <unicode hex="0030"/>
  <outline>
    <contour>
      <point x="103" y="0" type="line"/>
      <point x="269" y="0" type="line"/>
      <point x="269" y="54" type="line"/>
      <point x="50" y="54" type="line"/>
      <point x="50" y="53" type="line"/>
    </contour>
  </outline>
</glyph>
<glyph name="zero.color2" format="2">
  <advance width="600"/>
  <unicode hex="0030"/>
  <outline>
    <contour>
      <point x="50" y="54" type="line"/>
      <point x="106" y="54" type="line"/>
      <point x="106" y="680" type="line"/>
      <point x="105" y="680" type="line"/>
      <point x="50" y="626" type="line"/>
    </contour>
  </outline>
</glyph>
<glyph name="zero.color3" format="2">
  <advance width="600"/>
  <unicode hex="0030"/>
  <outline>
    <contour>
      <point x="269" y="0" type="line"/>
      <point x="270" y="0" type="line"/>
      <point x="325" y="52" type="line"/>
      <point x="325" y="626" type="line"/>
      <point x="269" y="626" type="line"/>
    </contour>
  </outline>
</glyph>
<glyph name="zero.color4" format="2">
  <advance width="600"/>
  <unicode hex="0030"/>
  <outline>
    <contour>
      <point x="106" y="626" type="line"/>
      <point x="325" y="626" type="line"/>
      <point x="325" y="627" type="line"/>
      <point x="272" y="680" type="line"/>
      <point x="106" y="680" type="line"/>
    </contour>
  </outline>
</glyph>
<glyph name="zero" format="2">
  <advance width="375"/>
  <unicode hex="0030"/>
  <outline>
    <contour>
      <point x="237" y="54" type="line"/>
      <point x="295" y="54" type="line"/>
      <point x="295" y="55" type="line"/>
      <point x="141" y="631" type="line"/>
      <point x="83" y="631" type="line"/>
    </contour>
    <contour>
      <point x="103" y="0" type="line"/>
      <point x="269" y="0" type="line"/>
      <point x="269" y="54" type="line"/>
      <point x="50" y="54" type="line"/>
      <point x="50" y="53" type="line"/>
    </contour>
    <contour>
      <point x="50" y="54" type="line"/>
      <point x="106" y="54" type="line"/>
      <point x="106" y="680" type="line"/>
      <point x="105" y="680" type="line"/>
      <point x="50" y="626" type="line"/>
    </contour>
    <contour>
      <point x="269" y="0" type="line"/>
      <point x="270" y="0" type="line"/>
      <point x="325" y="52" type="line"/>
      <point x="325" y="626" type="line"/>
      <point x="269" y="626" type="line"/>
    </contour>
    <contour>
      <point x="106" y="626" type="line"/>
      <point x="325" y="626" type="line"/>
      <point x="325" y="627" type="line"/>
      <point x="272" y="680" type="line"/>
      <point x="106" y="680" type="line"/>
    </contour>
  </outline>
</glyph>
<glyph name="one.color1" format="2">
  <advance width="600"/>
  <unicode hex="0031"/>
  <outline>
    <contour>
      <point x="51" y="0" type="line"/>
      <point x="173" y="0" type="line"/>
      <point x="173" y="54" type="line"/>
      <point x="51" y="54" type="line"/>
    </contour>
  </outline>
</glyph>
<glyph name="one.color2" format="2">
  <advance width="600"/>
  <unicode hex="0031"/>
  <outline>
    <contour>
      <point x="183" y="0" type="line"/>
      <point x="325" y="0" type="line"/>
      <point x="325" y="54" type="line"/>
      <point x="229" y="54" type="line"/>
    </contour>
  </outline>
</glyph>
<glyph name="one" format="2">
  <advance width="375"/>
  <unicode hex="0031"/>
  <outline>
    <contour>
      <point x="173" y="0" type="line"/>
      <point x="183" y="0" type="line"/>
      <point x="229" y="54" type="line"/>
      <point x="229" y="680" type="line"/>
      <point x="219" y="680" type="line"/>
      <point x="173" y="626" type="line"/>
    </contour>
    <contour>
      <point x="51" y="0" type="line"/>
      <point x="173" y="0" type="line"/>
      <point x="173" y="54" type="line"/>
      <point x="51" y="54" type="line"/>
    </contour>
    <contour>
      <point x="183" y="0" type="line"/>
      <point x="325" y="0" type="line"/>
      <point x="325" y="54" type="line"/>
      <point x="229" y="54" type="line"/>
    </contour>
    <contour>
      <point x="73" y="626" type="line"/>
      <point x="173" y="626" type="line"/>
      <point x="219" y="680" type="line"/>
      <point x="73" y="680" type="line"/>
    </contour>
  </outline>
</glyph>
<glyph name="two" format="2">
  <advance width="375"/>
  <unicode hex="0032"/>
  <outline>
    <contour>
      <point x="57" y="626" type="line"/>
      <point x="256" y="626" type="line"/>
      <point x="270" y="680" type="line"/>
      <point x="110" y="680" type="line"/>
      <point x="57" y="627" type="line"/>
    </contour>
    <contour>
      <point x="116" y="40" type="line"/>
      <point x="306" y="623" type="line"/>
      <point x="270" y="680" type="line"/>
      <point x="61" y="55" type="line"/>
      <point x="61" y="54" type="line"/>
    </contour>
    <contour>
      <point x="61" y="0" type="line"/>
      <point x="308" y="0" type="line"/>
      <point x="308" y="54" type="line"/>
      <point x="61" y="54" type="line"/>
    </contour>
  </outline>
</glyph>
<glyph name="three.color1" format="2">
  <advance width="600"/>
  <unicode hex="0033"/>
  <outline>
    <contour>
      <point x="85" y="0" type="line"/>
      <point x="253" y="0" type="line"/>
      <point x="253" y="54" type="line"/>
      <point x="32" y="54" type="line"/>
      <point x="32" y="53" type="line"/>
    </contour>
  </outline>
</glyph>
<glyph name="three.color3" format="2">
  <advance width="600"/>
  <unicode hex="0033"/>
  <outline>
    <contour>
      <point x="253" y="417" type="line"/>
      <point x="308" y="417" type="line"/>
      <point x="308" y="618" type="line"/>
      <point x="254" y="680" type="line"/>
      <point x="253" y="680" type="line"/>
    </contour>
  </outline>
</glyph>
<glyph name="three.color4" format="2">
  <advance width="600"/>
  <unicode hex="0033"/>
  <outline>
    <contour>
      <point x="253" y="0" type="line"/>
      <point x="254" y="0" type="line"/>
      <point x="308" y="52" type="line"/>
      <point x="308" y="381" type="line"/>
      <point x="254" y="430" type="line"/>
      <point x="253" y="430" type="line"/>
    </contour>
  </outline>
</glyph>
<glyph name="four.color1" format="2">
  <advance width="600"/>
  <unicode hex="0034"/>
  <outline>
    <contour>
      <point x="77" y="257" type="line"/>
      <point x="237" y="679" type="line"/>
      <point x="237" y="680" type="line"/>
      <point x="173" y="680" type="line"/>
      <point x="39" y="317" type="line"/>
    </contour>
  </outline>
</glyph>
<glyph name="five.color3" format="2">
  <advance width="600"/>
  <unicode hex="0035"/>
  <outline>
    <contour>
      <point x="264" y="0" type="line"/>
      <point x="265" y="0" type="line"/>
      <point x="319" y="51" type="line"/>
      <point x="319" y="390" type="line"/>
      <point x="265" y="433" type="line"/>
      <point x="264" y="433" type="line"/>
    </contour>
  </outline>
</glyph>
<glyph name="five" format="2">
  <advance width="375"/>
  <unicode hex="0035"/>
  <outline>
    <contour>
      <point x="94" y="0" type="line"/>
      <point x="264" y="0" type="line"/>
      <point x="264" y="54" type="line"/>
      <point x="41" y="54" type="line"/>
      <point x="41" y="53" type="line"/>
    </contour>
    <contour>
      <point x="68" y="379" type="line"/>
      <point x="264" y="379" type="line"/>
      <point x="264" y="433" type="line"/>
      <point x="68" y="433" type="line"/>
    </contour>
    <contour>
      <point x="68" y="433" type="line"/>
      <point x="123" y="433" type="line"/>
      <point x="123" y="675" type="line"/>
      <point x="68" y="675" type="line"/>
    </contour>
    <contour>
      <point x="264" y="0" type="line"/>
      <point x="265" y="0" type="line"/>
      <point x="319" y="51" type="line"/>
      <point x="319" y="390" type="line"/>
      <point x="265" y="433" type="line"/>
      <point x="264" y="433" type="line"/>
    </contour>
    <contour>
      <point x="123" y="621" type="line"/>
      <point x="297" y="621" type="line"/>
      <point x="297" y="675" type="line"/>
      <point x="123" y="675" type="line"/>
    </contour>
  </outline>
</glyph>
<glyph name="six.color0" format="2">
  <advance width="600"/>
  <unicode hex="0036"/>
  <outline>
    <contour>
      <point x="103" y="0" type="line"/>
      <point x="273" y="0" type="line"/>
      <point x="273" y="54" type="line"/>
      <point x="50" y="54" type="line"/>
      <point x="50" y="53" type="line"/>
    </contour>
  </outline>
</glyph>
<glyph name="six.color1" format="2">
  <advance width="600"/>
  <unicode hex="0036"/>
  <outline>
    <contour>
      <point x="50" y="54" type="line"/>
      <point x="106" y="54" type="line"/>
      <point x="106" y="338" type="line"/>
      <point x="50" y="391" type="line"/>
    </contour>
  </outline>
</glyph>
<glyph name="six.color3" format="2">
  <advance width="600"/>
  <unicode hex="0036"/>
  <outline>
    <contour>
      <point x="50" y="392" type="line"/>
      <point x="106" y="392" type="line"/>
      <point x="106" y="680" type="line"/>
      <point x="105" y="680" type="line"/>
      <point x="50" y="626" type="line"/>
    </contour>
  </outline>
</glyph>
<glyph name="six.color5" format="2">
  <advance width="600"/>
  <unicode hex="0036"/>
  <outline>
    <contour>
      <point x="106" y="626" type="line"/>
      <point x="309" y="626" type="line"/>
      <point x="309" y="627" type="line"/>
      <point x="256" y="680" type="line"/>
      <point x="106" y="680" type="line"/>
    </contour>
  </outline>
</glyph>
<glyph name="six" format="2">
  <advance width="375"/>
  <unicode hex="0036"/>
  <outline>
    <contour>
      <point x="103" y="0" type="line"/>
      <point x="273" y="0" type="line"/>
      <point x="273" y="54" type="line"/>
      <point x="50" y="54" type="line"/>
      <point x="50" y="53" type="line"/>
    </contour>
    <contour>
      <point x="50" y="54" type="line"/>
      <point x="106" y="54" type="line"/>
      <point x="106" y="338" type="line"/>
      <point x="50" y="391" type="line"/>
    </contour>
    <contour>
      <point x="106" y="338" type="line"/>
      <point x="273" y="338" type="line"/>
      <point x="273" y="392" type="line"/>
      <point x="50" y="392" type="line"/>
      <point x="50" y="391" type="line"/>
    </contour>
    <contour>
      <point x="50" y="392" type="line"/>
      <point x="106" y="392" type="line"/>
      <point x="106" y="680" type="line"/>
      <point x="105" y="680" type="line"/>
      <point x="50" y="626" type="line"/>
    </contour>
    <contour>
      <point x="273" y="0" type="line"/>
      <point x="274" y="0" type="line"/>
      <point x="328" y="52" type="line"/>
      <point x="328" y="339" type="line"/>
      <point x="274" y="392" type="line"/>
      <point x="273" y="392" type="line"/>
    </contour>
    <contour>
      <point x="106" y="626" type="line"/>
      <point x="309" y="626" type="line"/>
      <point x="309" y="627" type="line"/>
      <point x="256" y="680" type="line"/>
      <point x="106" y="680" type="line"/>
    </contour>
  </outline>
</glyph>
<glyph name="seven" format="2">
  <advance width="375"/>
  <unicode hex="0037"/>
  <outline>
    <contour>
      <point x="47" y="626" type="line"/>
      <point x="277" y="626" type="line"/>
      <point x="284" y="680" type="line"/>
      <point x="47" y="680" type="line"/>
    </contour>
    <contour>
      <point x="105" y="0" type="line"/>
      <point x="169" y="0" type="line"/>
      <point x="327" y="620" type="line"/>
      <point x="284" y="680" type="line"/>
      <point x="105" y="1" type="line"/>
    </contour>
  </outline>
</glyph>
<glyph name="eight.color0" format="2">
  <advance width="600"/>
  <unicode hex="0038"/>
  <outline>
    <contour>
      <point x="125" y="626" type="line"/>
      <point x="250" y="626" type="line"/>
      <point x="250" y="680" type="line"/>
      <point x="125" y="680" type="line"/>
    </contour>
  </outline>
</glyph>
<glyph name="eight.color1" format="2">
  <advance width="600"/>
  <unicode hex="0038"/>
  <outline>
    <contour>
      <point x="104" y="0" type="line"/>
      <point x="271" y="0" type="line"/>
      <point x="271" y="54" type="line"/>
      <point x="104" y="54" type="line"/>
    </contour>
  </outline>
</glyph>
<glyph name="eight.color2" format="2">
  <advance width="600"/>
  <unicode hex="0038"/>
  <outline>
    <contour>
      <point x="69" y="375" type="line"/>
      <point x="125" y="375" type="line"/>
      <point x="125" y="680" type="line"/>
      <point x="124" y="680" type="line"/>
      <point x="69" y="626" type="line"/>
    </contour>
  </outline>
</glyph>
<glyph name="eight.color3" format="2">
  <advance width="600"/>
  <unicode hex="0038"/>
  <outline>
    <contour>
      <point x="250" y="375" type="line"/>
      <point x="306" y="375" type="line"/>
      <point x="306" y="626" type="line"/>
      <point x="251" y="680" type="line"/>
      <point x="250" y="680" type="line"/>
    </contour>
  </outline>
</glyph>
<glyph name="eight.color4" format="2">
  <advance width="600"/>
  <unicode hex="0038"/>
  <outline>
    <contour>
      <point x="104" y="338" type="line"/>
      <point x="271" y="338" type="line"/>
      <point x="271" y="392" type="line"/>
      <point x="104" y="392" type="line"/>
    </contour>
  </outline>
</glyph>
<glyph name="eight.color5" format="2">
  <advance width="600"/>
  <unicode hex="0038"/>
  <outline>
    <contour>
      <point x="271" y="0" type="line"/>
      <point x="272" y="0" type="line"/>
      <point x="327" y="52" type="line"/>
      <point x="327" y="339" type="line"/>
      <point x="272" y="392" type="line"/>
      <point x="271" y="392" type="line"/>
    </contour>
  </outline>
</glyph>
<glyph name="eight.color6" format="2">
  <advance width="600"/>
  <unicode hex="0038"/>
  <outline>
    <contour>
      <point x="103" y="0" type="line"/>
      <point x="104" y="0" type="line"/>
      <point x="104" y="392" type="line"/>
      <point x="103" y="392" type="line"/>
      <point x="48" y="339" type="line"/>
      <point x="48" y="52" type="line"/>
    </contour>
  </outline>
</glyph>
<glyph name="nine.color3" format="2">
  <advance width="600"/>
  <unicode hex="0039"/>
  <outline>
    <contour>
      <point x="96" y="288" type="line"/>
      <point x="97" y="288" type="line"/>
      <point x="97" y="680" type="line"/>
      <point x="96" y="680" type="line"/>
      <point x="41" y="627" type="line"/>
      <point x="41" y="335" type="line"/>
    </contour>
  </outline>
</glyph>
<glyph name="nine.color4" format="2">
  <advance width="600"/>
  <unicode hex="0039"/>
  <outline>
    <contour>
      <point x="97" y="626" type="line"/>
      <point x="319" y="626" type="line"/>
      <point x="319" y="627" type="line"/>
      <point x="266" y="680" type="line"/>
      <point x="97" y="680" type="line"/>
    </contour>
  </outline>
</glyph>
<glyph name="nine" format="2">
  <advance width="375"/>
  <unicode hex="0039"/>
  <outline>
    <contour>
      <point x="97" y="288" type="line"/>
      <point x="264" y="288" type="line"/>
      <point x="264" y="342" type="line"/>
      <point x="97" y="342" type="line"/>
    </contour>
    <contour>
      <point x="264" y="0" type="line"/>
      <point x="265" y="0" type="line"/>
      <point x="319" y="54" type="line"/>
      <point x="319" y="626" type="line"/>
      <point x="264" y="626" type="line"/>
    </contour>
    <contour>
      <point x="99" y="0" type="line"/>
      <point x="264" y="0" type="line"/>
      <point x="264" y="54" type="line"/>
      <point x="46" y="54" type="line"/>
      <point x="46" y="53" type="line"/>
    </contour>
    <contour>
      <point x="96" y="288" type="line"/>
      <point x="97" y="288" type="line"/>
      <point x="97" y="680" type="line"/>
      <point x="96" y="680" type="line"/>
      <point x="41" y="627" type="line"/>
      <point x="41" y="335" type="line"/>
    </contour>
    <contour>
      <point x="97" y="626" type="line"/>
      <point x="319" y="626" type="line"/>
      <point x="319" y="627" type="line"/>
      <point x="266" y="680" type="line"/>
      <point x="97" y="680" type="line"/>
    </contour>
  </outline>
</glyph>
<glyph name="colon.color0" format="2">
  <advance width="600"/>
  <unicode hex="003A"/>
  <outline>
    <contour>
      <point x="50" y="133" type="line"/>
      <point x="115" y="133" type="line"/>
      <point x="115" y="187" type="line"/>
      <point x="50" y="187" type="line"/>
    </contour>
  </outline>
</glyph>
<glyph name="colon.color1" format="2">
  <advance width="600"/>
  <unicode hex="003A"/>
  <outline>
    <contour>
      <point x="50" y="393" type="line"/>
      <point x="115" y="393" type="line"/>
      <point x="115" y="447" type="line"/>
      <point x="50" y="447" type="line"/>
    </contour>
  </outline>
</glyph>
<glyph name="colon" format="2">
  <advance width="181.16667"/>
  <unicode hex="003A"/>
  <outline>
    <contour>
      <point x="50" y="133" type="line"/>
      <point x="115" y="133" type="line"/>
      <point x="115" y="187" type="line"/>
      <point x="50" y="187" type="line"/>
    </contour>
    <contour>
      <point x="50" y="393" type="line"/>
      <point x="115" y="393" type="line"/>
      <point x="115" y="447" type="line"/>
      <point x="50" y="447" type="line"/>
    </contour>
  </outline>
</glyph>
<glyph name="semicolon.color1" format="2">
  <advance width="600"/>
  <unicode hex="003B"/>
  <outline>
    <contour>
      <point x="40" y="42" type="line"/>
      <point x="107" y="42" type="line"/>
      <point x="70" y="96" type="line"/>
      <point x="40" y="96" type="line"/>
    </contour>
  </outline>
</glyph>
<glyph name="semicolon.color2" format="2">
  <advance width="600"/>
  <unicode hex="003B"/>
  <outline>
    <contour>
      <point x="58" y="-67" type="line"/>
      <point x="59" y="-67" type="line"/>
      <point x="107" y="-30" type="line"/>
      <point x="107" y="42" type="line"/>
      <point x="58" y="42" type="line"/>
    </contour>
  </outline>
</glyph>
<glyph name="semicolon" format="2">
  <advance width="133"/>
  <unicode hex="003B"/>
  <outline>
    <contour>
      <point x="33" y="301" type="line"/>
      <point x="98" y="301" type="line"/>
      <point x="98" y="355" type="line"/>
      <point x="33" y="355" type="line"/>
    </contour>
    <contour>
      <point x="40" y="42" type="line"/>
      <point x="107" y="42" type="line"/>
      <point x="70" y="96" type="line"/>
      <point x="40" y="96" type="line"/>
    </contour>
    <contour>
      <point x="58" y="-67" type="line"/>
      <point x="59" y="-67" type="line"/>
      <point x="107" y="-30" type="line"/>
      <point x="107" y="42" type="line"/>
      <point x="58" y="42" type="line"/>
    </contour>
  </outline>
</glyph>
<glyph name="less.color0" format="2">
  <advance width="600"/>
  <unicode hex="003C"/>
  <outline>
    <contour>
      <point x="43" y="332" type="line"/>
      <point x="124" y="332" type="line"/>
      <point x="275" y="469" type="line"/>
      <point x="275" y="470" type="line"/>
      <point x="194" y="470" type="line"/>
      <point x="43" y="333" type="line"/>
    </contour>
  </outline>
</glyph>
<glyph name="less.color1" format="2">
  <advance width="600"/>
  <unicode hex="003C"/>
  <outline>
    <contour>
      <point x="194" y="195" type="line"/>
      <point x="275" y="195" type="line"/>
      <point x="275" y="197" type="line"/>
      <point x="124" y="332" type="line"/>
      <point x="43" y="332" type="line"/>
      <point x="43" y="331" type="line"/>
    </contour>
  </outline>
</glyph>
<glyph name="equal.color0" format="2">
  <advance width="600"/>
  <unicode hex="003D"/>
  <outline>
    <contour>
      <point x="48" y="375" type="line"/>
      <point x="313" y="375" type="line"/>
      <point x="313" y="426" type="line"/>
      <point x="48" y="426" type="line"/>
    </contour>
  </outline>
</glyph>
<glyph name="equal.color1" format="2">
  <advance width="600"/>
  <unicode hex="003D"/>
  <outline>
    <contour>
      <point x="48" y="264" type="line"/>
      <point x="313" y="264" type="line"/>
      <point x="313" y="315" type="line"/>
      <point x="48" y="315" type="line"/>
    </contour>
  </outline>
</glyph>
<glyph name="equal" format="2">
  <advance width="361"/>
  <unicode hex="003D"/>
  <outline>
    <contour>
      <point x="48" y="375" type="line"/>
      <point x="313" y="375" type="line"/>
      <point x="313" y="426" type="line"/>
      <point x="48" y="426" type="line"/>
    </contour>
    <contour>
      <point x="48" y="264" type="line"/>
      <point x="313" y="264" type="line"/>
      <point x="313" y="315" type="line"/>
      <point x="48" y="315" type="line"/>
    </contour>
  </outline>
</glyph>
<glyph name="greater.color1" format="2">
  <advance width="600"/>
  <unicode hex="003E"/>
  <outline>
    <contour>
      <point x="219" y="332" type="line"/>
      <point x="300" y="332" type="line"/>
      <point x="300" y="333" type="line"/>
      <point x="148" y="469" type="line"/>
      <point x="68" y="469" type="line"/>
      <point x="68" y="467" type="line"/>
    </contour>
  </outline>
</glyph>
<glyph name="greater" format="2">
  <advance width="343"/>
  <unicode hex="003E"/>
  <outline>
    <contour>
      <point x="68" y="194" type="line"/>
      <point x="148" y="194" type="line"/>
      <point x="300" y="331" type="line"/>
      <point x="300" y="332" type="line"/>
      <point x="219" y="332" type="line"/>
      <point x="68" y="195" type="line"/>
    </contour>
    <contour>
      <point x="219" y="332" type="line"/>
      <point x="300" y="332" type="line"/>
      <point x="300" y="333" type="line"/>
      <point x="148" y="469" type="line"/>
      <point x="68" y="469" type="line"/>
      <point x="68" y="467" type="line"/>
    </contour>
  </outline>
</glyph>
<glyph name="question.color0" format="2">
  <advance width="600"/>
  <unicode hex="003F"/>
  <outline>
    <contour>
      <point x="17" y="651" type="line"/>
      <point x="216" y="651" type="line"/>
      <point x="216" y="705" type="line"/>
      <point x="70" y="705" type="line"/>
      <point x="17" y="652" type="line"/>
    </contour>
  </outline>
</glyph>
<glyph name="question.color1" format="2">
  <advance width="600"/>
  <unicode hex="003F"/>
  <outline>
    <contour>
      <point x="216" y="359" type="line"/>
      <point x="274" y="359" type="line"/>
      <point x="274" y="651" type="line"/>
      <point x="217" y="705" type="line"/>
      <point x="216" y="705" type="line"/>
    </contour>
  </outline>
</glyph>
<glyph name="question.color2" format="2">
  <advance width="600"/>
  <unicode hex="003F"/>
  <outline>
    <contour>
      <point x="148" y="311" type="line"/>
      <point x="221" y="311" type="line"/>
      <point x="274" y="358" type="line"/>
      <point x="274" y="359" type="line"/>
      <point x="148" y="359" type="line"/>
    </contour>
  </outline>
</glyph>
<glyph name="question.color3" format="2">
  <advance width="600"/>
  <unicode hex="003F"/>
  <outline>
    <contour>
      <point x="93" y="125" type="line"/>
      <point x="148" y="125" type="line"/>
      <point x="148" y="359" type="line"/>
      <point x="147" y="359" type="line"/>
      <point x="93" y="306" type="line"/>
    </contour>
  </outline>
</glyph>
<glyph name="question" format="2">
  <advance width="326.16667"/>
  <unicode hex="003F"/>
  <outline>
    <contour>
      <point x="17" y="651" type="line"/>
      <point x="216" y="651" type="line"/>
      <point x="216" y="705" type="line"/>
      <point x="70" y="705" type="line"/>
      <point x="17" y="652" type="line"/>
    </contour>
    <contour>
      <point x="216" y="359" type="line"/>
      <point x="274" y="359" type="line"/>
      <point x="274" y="651" type="line"/>
      <point x="217" y="705" type="line"/>
      <point x="216" y="705" type="line"/>
    </contour>
    <contour>
      <point x="148" y="311" type="line"/>
      <point x="221" y="311" type="line"/>
      <point x="274" y="358" type="line"/>
      <point x="274" y="359" type="line"/>
      <point x="148" y="359" type="line"/>
    </contour>
    <contour>
      <point x="93" y="125" type="line"/>
      <point x="148" y="125" type="line"/>
      <point x="148" y="359" type="line"/>
      <point x="147" y="359" type="line"/>
      <point x="93" y="306" type="line"/>
    </contour>
    <component base="period" xOffset="54"/>
  </outline>
</glyph>
<glyph name="at.color0" format="2">
  <advance width="600"/>
  <unicode hex="0040"/>
  <outline>
    <contour>
      <point x="206" y="451" type="line"/>
      <point x="357" y="451" type="line"/>
      <point x="357" y="452" type="line"/>
      <point x="320" y="505" type="line"/>
      <point x="206" y="505" type="line"/>
    </contour>
  </outline>
</glyph>
<glyph name="at.color3" format="2">
  <advance width="600"/>
  <unicode hex="0040"/>
  <outline>
    <contour>
      <point x="187" y="0" type="line"/>
      <point x="301" y="0" type="line"/>
      <point x="301" y="54" type="line"/>
      <point x="150" y="54" type="line"/>
      <point x="150" y="53" type="line"/>
    </contour>
  </outline>
</glyph>
<glyph name="at.color4" format="2">
  <advance width="600"/>
  <unicode hex="0040"/>
  <outline>
    <contour>
      <point x="150" y="54" type="line"/>
      <point x="206" y="54" type="line"/>
      <point x="206" y="505" type="line"/>
      <point x="205" y="505" type="line"/>
      <point x="150" y="468" type="line"/>
    </contour>
  </outline>
</glyph>
<glyph name="at.color5" format="2">
  <advance width="600"/>
  <unicode hex="0040"/>
  <outline>
    <contour>
      <point x="357" y="0" type="line"/>
      <point x="357" y="451" type="line"/>
      <point x="301" y="451" type="line"/>
      <point x="301" y="54" type="line"/>
    </contour>
  </outline>
</glyph>
<glyph name="at.color6" format="2">
  <advance width="600"/>
  <unicode hex="0040"/>
  <outline>
    <contour>
      <point x="357" y="0" type="line"/>
      <point x="434" y="0" type="line"/>
      <point x="457" y="23" type="line"/>
      <point x="457" y="24" type="line"/>
      <point x="357" y="24" type="line"/>
    </contour>
  </outline>
</glyph>
<glyph name="at.color7" format="2">
  <advance width="600"/>
  <unicode hex="0040"/>
  <outline>
    <contour>
      <point x="53" y="556" type="line"/>
      <point x="433" y="556" type="line"/>
      <point x="433" y="580" type="line"/>
      <point x="76" y="580" type="line"/>
      <point x="53" y="557" type="line"/>
    </contour>
  </outline>
</glyph>
<glyph name="at.color8" format="2">
  <advance width="600"/>
  <unicode hex="0040"/>
  <outline>
    <contour>
      <point x="433" y="24" type="line"/>
      <point x="457" y="24" type="line"/>
      <point x="457" y="557" type="line"/>
      <point x="434" y="580" type="line"/>
      <point x="433" y="580" type="line"/>
    </contour>
  </outline>
</glyph>
<glyph name="at" format="2">
  <advance width="509.66667"/>
  <unicode hex="0040"/>
  <outline>
    <contour>
      <point x="206" y="451" type="line"/>
      <point x="357" y="451" type="line"/>
      <point x="357" y="452" type="line"/>
      <point x="320" y="505" type="line"/>
      <point x="206" y="505" type="line"/>
    </contour>
    <contour>
      <point x="76" y="-76" type="line"/>
      <point x="77" y="-76" type="line"/>
      <point x="77" y="556" type="line"/>
      <point x="53" y="556" type="line"/>
      <point x="53" y="-53" type="line"/>
    </contour>
    <contour>
      <point x="77" y="-76" type="line"/>
      <point x="434" y="-76" type="line"/>
      <point x="434" y="-52" type="line"/>
      <point x="77" y="-52" type="line"/>
    </contour>
    <contour>
      <point x="187" y="0" type="line"/>
      <point x="301" y="0" type="line"/>
      <point x="301" y="54" type="line"/>
      <point x="150" y="54" type="line"/>
      <point x="150" y="53" type="line"/>
    </contour>
    <contour>
      <point x="150" y="54" type="line"/>
      <point x="206" y="54" type="line"/>
      <point x="206" y="505" type="line"/>
      <point x="205" y="505" type="line"/>
      <point x="150" y="468" type="line"/>
    </contour>
    <contour>
      <point x="357" y="0" type="line"/>
      <point x="357" y="451" type="line"/>
      <point x="301" y="451" type="line"/>
      <point x="301" y="54" type="line"/>
    </contour>
    <contour>
      <point x="357" y="0" type="line"/>
      <point x="434" y="0" type="line"/>
      <point x="457" y="23" type="line"/>
      <point x="457" y="24" type="line"/>
      <point x="357" y="24" type="line"/>
    </contour>
    <contour>
      <point x="53" y="556" type="line"/>
      <point x="433" y="556" type="line"/>
      <point x="433" y="580" type="line"/>
      <point x="76" y="580" type="line"/>
      <point x="53" y="557" type="line"/>
    </contour>
    <contour>
      <point x="433" y="24" type="line"/>
      <point x="457" y="24" type="line"/>
      <point x="457" y="557" type="line"/>
      <point x="434" y="580" type="line"/>
      <point x="433" y="580" type="line"/>
    </contour>
  </outline>
</glyph>
<glyph name="B.color0" format="2">
  <advance width="600"/>
  <unicode hex="0042"/>
  <outline>
    <contour>
      <point x="50" y="0" type="line"/>
      <point x="305" y="0" type="line"/>
      <point x="305" y="54" type="line"/>
      <point x="50" y="54" type="line"/>
    </contour>
  </outline>
</glyph>
<glyph name="B.color2" format="2">
  <advance width="600"/>
  <unicode hex="0042"/>
  <outline>
    <contour>
      <point x="180" y="338" type="line"/>
      <point x="305" y="338" type="line"/>
      <point x="305" y="392" type="line"/>
      <point x="211" y="392" type="line"/>
      <point x="129" y="392" type="line"/>
    </contour>
  </outline>
</glyph>
<glyph name="B.color4" format="2">
  <advance width="600"/>
  <unicode hex="0042"/>
  <outline>
    <contour>
      <point x="270" y="386" type="line"/>
      <point x="270" y="653" type="line"/>
      <point x="212" y="705" type="line"/>
      <point x="211" y="705" type="line"/>
      <point x="211" y="392" type="line"/>
      <point x="255" y="392" type="line"/>
    </contour>
  </outline>
</glyph>
<glyph name="B.color5" format="2">
  <advance width="600"/>
  <unicode hex="0042"/>
  <outline>
    <contour>
      <point x="305" y="0" type="line"/>
      <point x="306" y="0" type="line"/>
      <point x="360" y="51" type="line"/>
      <point x="360" y="341" type="line"/>
      <point x="306" y="392" type="line"/>
      <point x="305" y="392" type="line"/>
    </contour>
  </outline>
</glyph>
<glyph name="B" format="2">
  <advance width="387.83333"/>
  <unicode hex="0042"/>
  <outline>
    <contour>
      <point x="50" y="0" type="line"/>
      <point x="305" y="0" type="line"/>
      <point x="305" y="54" type="line"/>
      <point x="50" y="54" type="line"/>
    </contour>
    <contour>
      <point x="50" y="54" type="line"/>
      <point x="106" y="54" type="line"/>
      <point x="106" y="705" type="line"/>
      <point x="50" y="705" type="line"/>
    </contour>
    <contour>
      <point x="180" y="338" type="line"/>
      <point x="305" y="338" type="line"/>
      <point x="305" y="392" type="line"/>
      <point x="211" y="392" type="line"/>
      <point x="129" y="392" type="line"/>
    </contour>
    <contour>
      <point x="106" y="651" type="line"/>
      <point x="211" y="651" type="line"/>
      <point x="211" y="705" type="line"/>
      <point x="106" y="705" type="line"/>
    </contour>
    <contour>
      <point x="270" y="386" type="line"/>
      <point x="270" y="653" type="line"/>
      <point x="212" y="705" type="line"/>
      <point x="211" y="705" type="line"/>
      <point x="211" y="392" type="line"/>
      <point x="255" y="392" type="line"/>
    </contour>
    <contour>
      <point x="305" y="0" type="line"/>
      <point x="306" y="0" type="line"/>
      <point x="360" y="51" type="line"/>
      <point x="360" y="341" type="line"/>
      <point x="306" y="392" type="line"/>
      <point x="305" y="392" type="line"/>
    </contour>
  </outline>
</glyph>
<glyph name="D.color0" format="2">
  <advance width="600"/>
  <unicode hex="0044"/>
  <outline>
    <contour>
      <point x="106" y="651" type="line"/>
      <point x="325" y="651" type="line"/>
      <point x="325" y="652" type="line"/>
      <point x="279" y="705" type="line"/>
      <point x="106" y="705" type="line"/>
    </contour>
  </outline>
</glyph>
<glyph name="D.color2" format="2">
  <advance width="600"/>
  <unicode hex="0044"/>
  <outline>
    <contour>
      <point x="50" y="53" type="line"/>
      <point x="106" y="53" type="line"/>
      <point x="106" y="705" type="line"/>
      <point x="50" y="705" type="line"/>
    </contour>
  </outline>
</glyph>
<glyph name="D" format="2">
  <advance width="373.66667"/>
  <unicode hex="0044"/>
  <anchor x="82" y="364" name="stroke"/>
  <anchor x="186" y="705" name="top"/>
  <outline>
    <contour>
      <point x="106" y="651" type="line"/>
      <point x="325" y="651" type="line"/>
      <point x="325" y="652" type="line"/>
      <point x="279" y="705" type="line"/>
      <point x="106" y="705" type="line"/>
    </contour>
    <contour>
      <point x="50" y="-1" type="line"/>
      <point x="270" y="-1" type="line"/>
      <point x="270" y="53" type="line"/>
      <point x="50" y="53" type="line"/>
    </contour>
    <contour>
      <point x="50" y="53" type="line"/>
      <point x="106" y="53" type="line"/>
      <point x="106" y="705" type="line"/>
      <point x="50" y="705" type="line"/>
    </contour>
    <contour>
      <point x="270" y="-1" type="line"/>
      <point x="271" y="-1" type="line"/>
      <point x="325" y="51" type="line"/>
      <point x="325" y="651" type="line"/>
      <point x="270" y="651" type="line"/>
    </contour>
  </outline>
</glyph>
<glyph name="E.color3" format="2">
  <advance width="600"/>
  <unicode hex="0045"/>
  <outline>
    <contour>
      <point x="106" y="651" type="line"/>
      <point x="266" y="651" type="line"/>
      <point x="319" y="704" type="line"/>
      <point x="319" y="705" type="line"/>
      <point x="106" y="705" type="line"/>
    </contour>
  </outline>
</glyph>
<glyph name="E" format="2">
  <advance width="332"/>
  <unicode hex="0045"/>
  <anchor x="190" y="0" name="bottom"/>
  <anchor x="186" y="705" name="top"/>
  <outline>
    <contour>
      <point x="104" y="0" type="line"/>
      <point x="310" y="0" type="line"/>
      <point x="310" y="54" type="line"/>
      <point x="50" y="54" type="line"/>
      <point x="50" y="53" type="line"/>
    </contour>
    <contour>
      <point x="50" y="54" type="line"/>
      <point x="106" y="54" type="line"/>
      <point x="106" y="705" type="line"/>
      <point x="50" y="705" type="line"/>
    </contour>
    <contour>
      <point x="106" y="341" type="line"/>
      <point x="273" y="341" type="line"/>
      <point x="273" y="389" type="line"/>
      <point x="106" y="389" type="line"/>
    </contour>
    <contour>
      <point x="106" y="651" type="line"/>
      <point x="266" y="651" type="line"/>
      <point x="319" y="704" type="line"/>
      <point x="319" y="705" type="line"/>
      <point x="106" y="705" type="line"/>
    </contour>
  </outline>
</glyph>
<glyph name="F.color0" format="2">
  <advance width="600"/>
  <unicode hex="0046"/>
  <outline>
    <contour>
      <point x="106" y="651" type="line"/>
      <point x="263" y="651" type="line"/>
      <point x="315" y="704" type="line"/>
      <point x="315" y="705" type="line"/>
      <point x="106" y="705" type="line"/>
    </contour>
  </outline>
</glyph>
<glyph name="F.color1" format="2">
  <advance width="600"/>
  <unicode hex="0046"/>
  <outline>
    <contour>
      <point x="50" y="0" type="line"/>
      <point x="106" y="0" type="line"/>
      <point x="106" y="326" type="line"/>
      <point x="50" y="379" type="line"/>
    </contour>
  </outline>
</glyph>
<glyph name="F.color2" format="2">
  <advance width="600"/>
  <unicode hex="0046"/>
  <outline>
    <contour>
      <point x="106" y="326" type="line"/>
      <point x="270" y="326" type="line"/>
      <point x="270" y="380" type="line"/>
      <point x="50" y="380" type="line"/>
      <point x="50" y="379" type="line"/>
    </contour>
  </outline>
</glyph>
<glyph name="F.color3" format="2">
  <advance width="600"/>
  <unicode hex="0046"/>
  <outline>
    <contour>
      <point x="50" y="380" type="line"/>
      <point x="106" y="380" type="line"/>
      <point x="106" y="705" type="line"/>
      <point x="50" y="705" type="line"/>
    </contour>
  </outline>
</glyph>
<glyph name="F" format="2">
  <advance width="314.5"/>
  <unicode hex="0046"/>
  <outline>
    <contour>
      <point x="106" y="651" type="line"/>
      <point x="263" y="651" type="line"/>
      <point x="315" y="704" type="line"/>
      <point x="315" y="705" type="line"/>
      <point x="106" y="705" type="line"/>
    </contour>
    <contour>
      <point x="50" y="0" type="line"/>
      <point x="106" y="0" type="line"/>
      <point x="106" y="326" type="line"/>
      <point x="50" y="379" type="line"/>
    </contour>
    <contour>
      <point x="106" y="326" type="line"/>
      <point x="270" y="326" type="line"/>
      <point x="270" y="380" type="line"/>
      <point x="50" y="380" type="line"/>
      <point x="50" y="379" type="line"/>
    </contour>
    <contour>
      <point x="50" y="380" type="line"/>
      <point x="106" y="380" type="line"/>
      <point x="106" y="705" type="line"/>
      <point x="50" y="705" type="line"/>
    </contour>
  </outline>
</glyph>
<glyph name="G.color0" format="2">
  <advance width="600"/>
  <unicode hex="0047"/>
  <outline>
    <contour>
      <point x="104" y="651" type="line"/>
      <point x="334" y="651" type="line"/>
      <point x="334" y="652" type="line"/>
      <point x="281" y="705" type="line"/>
      <point x="104" y="705" type="line"/>
    </contour>
  </outline>
</glyph>
<glyph name="G.color4" format="2">
  <advance width="600"/>
  <unicode hex="0047"/>
  <outline>
    <contour>
      <point x="278" y="0" type="line"/>
      <point x="279" y="0" type="line"/>
      <point x="334" y="53" type="line"/>
      <point x="334" y="340" type="line"/>
      <point x="279" y="392" type="line"/>
      <point x="278" y="392" type="line"/>
    </contour>
  </outline>
</glyph>
<glyph name="H.color0" format="2">
  <advance width="600"/>
  <unicode hex="0048"/>
  <outline>
    <contour>
      <point x="280" y="0" type="line"/>
      <point x="335" y="0" type="line"/>
      <point x="335" y="705" type="line"/>
      <point x="280" y="705" type="line"/>
    </contour>
  </outline>
</glyph>
<glyph name="H" format="2">
  <advance width="385.33333"/>
  <unicode hex="0048"/>
  <anchor x="193" y="705" name="top"/>
  <outline>
    <contour>
      <point x="280" y="0" type="line"/>
      <point x="335" y="0" type="line"/>
      <point x="335" y="705" type="line"/>
      <point x="280" y="705" type="line"/>
    </contour>
    <contour>
      <point x="50" y="0" type="line"/>
      <point x="106" y="0" type="line"/>
      <point x="106" y="705" type="line"/>
      <point x="50" y="705" type="line"/>
    </contour>
    <contour>
      <point x="106" y="338" type="line"/>
      <point x="280" y="338" type="line"/>
      <point x="280" y="392" type="line"/>
      <point x="106" y="392" type="line"/>
    </contour>
  </outline>
</glyph>
<glyph name="I.color1" format="2">
  <advance width="600"/>
  <unicode hex="0049"/>
  <outline>
    <contour>
      <point x="22" y="0" type="line"/>
      <point x="125" y="0" type="line"/>
      <point x="125" y="54" type="line"/>
      <point x="22" y="54" type="line"/>
    </contour>
  </outline>
</glyph>
<glyph name="I.color2" format="2">
  <advance width="600"/>
  <unicode hex="0049"/>
  <outline>
    <contour>
      <point x="135" y="0" type="line"/>
      <point x="277" y="0" type="line"/>
      <point x="277" y="54" type="line"/>
      <point x="181" y="54" type="line"/>
    </contour>
  </outline>
</glyph>
<glyph name="I.color3" format="2">
  <advance width="600"/>
  <unicode hex="0049"/>
  <outline>
    <contour>
      <point x="21" y="651" type="line"/>
      <point x="125" y="651" type="line"/>
      <point x="171" y="705" type="line"/>
      <point x="21" y="705" type="line"/>
    </contour>
  </outline>
</glyph>
<glyph name="I.color4" format="2">
  <advance width="600"/>
  <unicode hex="0049"/>
  <outline>
    <contour>
      <point x="181" y="651" type="line"/>
      <point x="276" y="651" type="line"/>
      <point x="276" y="705" type="line"/>
      <point x="181" y="705" type="line"/>
    </contour>
  </outline>
</glyph>
<glyph name="J.color0" format="2">
  <advance width="600"/>
  <unicode hex="004A"/>
  <outline>
    <contour>
      <point x="168" y="53" type="line"/>
      <point x="223" y="53" type="line"/>
      <point x="223" y="705" type="line"/>
      <point x="214" y="705" type="line"/>
      <point x="168" y="651" type="line"/>
    </contour>
  </outline>
</glyph>
<glyph name="J.color1" format="2">
  <advance width="600"/>
  <unicode hex="004A"/>
  <outline>
    <contour>
      <point x="25" y="-1" type="line"/>
      <point x="176" y="-1" type="line"/>
      <point x="223" y="52" type="line"/>
      <point x="223" y="53" type="line"/>
      <point x="25" y="53" type="line"/>
    </contour>
  </outline>
</glyph>
<glyph name="J.color3" format="2">
  <advance width="600"/>
  <unicode hex="004A"/>
  <outline>
    <contour>
      <point x="223" y="651" type="line"/>
      <point x="300" y="651" type="line"/>
      <point x="300" y="705" type="line"/>
      <point x="223" y="705" type="line"/>
    </contour>
  </outline>
</glyph>
<glyph name="J" format="2">
  <advance width="321.16667"/>
  <unicode hex="004A"/>
  <anchor x="183" y="705" name="top"/>
  <outline>
    <contour>
      <point x="168" y="53" type="line"/>
      <point x="223" y="53" type="line"/>
      <point x="223" y="705" type="line"/>
      <point x="214" y="705" type="line"/>
      <point x="168" y="651" type="line"/>
    </contour>
    <contour>
      <point x="25" y="-1" type="line"/>
      <point x="176" y="-1" type="line"/>
      <point x="223" y="52" type="line"/>
      <point x="223" y="53" type="line"/>
      <point x="25" y="53" type="line"/>
    </contour>
    <contour>
      <point x="37" y="651" type="line"/>
      <point x="168" y="651" type="line"/>
      <point x="214" y="705" type="line"/>
      <point x="37" y="705" type="line"/>
    </contour>
    <contour>
      <point x="223" y="651" type="line"/>
      <point x="300" y="651" type="line"/>
      <point x="300" y="705" type="line"/>
      <point x="223" y="705" type="line"/>
    </contour>
  </outline>
</glyph>
<glyph name="K.color0" format="2">
  <advance width="600"/>
  <unicode hex="004B"/>
  <outline>
    <contour>
      <point x="306" y="0" type="line"/>
      <point x="373" y="0" type="line"/>
      <point x="373" y="1" type="line"/>
      <point x="252" y="373" type="line"/>
      <point x="207" y="336" type="line"/>
    </contour>
  </outline>
</glyph>
<glyph name="K.color3" format="2">
  <advance width="600"/>
  <unicode hex="004B"/>
  <outline>
    <contour>
      <point x="255" y="335" type="line"/>
      <point x="256" y="335" type="line"/>
      <point x="310" y="383" type="line"/>
      <point x="310" y="705" type="line"/>
      <point x="255" y="705" type="line"/>
    </contour>
  </outline>
</glyph>
<glyph name="K" format="2">
  <advance width="391.83333"/>
  <unicode hex="004B"/>
  <anchor x="196" y="0" name="bottom"/>
  <outline>
    <contour>
      <point x="306" y="0" type="line"/>
      <point x="373" y="0" type="line"/>
      <point x="373" y="1" type="line"/>
      <point x="252" y="373" type="line"/>
      <point x="207" y="336" type="line"/>
    </contour>
    <contour>
      <point x="50" y="0" type="line"/>
      <point x="106" y="0" type="line"/>
      <point x="106" y="705" type="line"/>
      <point x="50" y="705" type="line"/>
    </contour>
    <contour>
      <point x="106" y="335" type="line"/>
      <point x="255" y="335" type="line"/>
      <point x="255" y="389" type="line"/>
      <point x="106" y="389" type="line"/>
    </contour>
    <contour>
      <point x="255" y="335" type="line"/>
      <point x="256" y="335" type="line"/>
      <point x="310" y="383" type="line"/>
      <point x="310" y="705" type="line"/>
      <point x="255" y="705" type="line"/>
    </contour>
  </outline>
</glyph>
<glyph name="L.color0" format="2">
  <advance width="600"/>
  <unicode hex="004C"/>
  <outline>
    <contour>
      <point x="103" y="0" type="line"/>
      <point x="335" y="0" type="line"/>
      <point x="335" y="54" type="line"/>
      <point x="50" y="54" type="line"/>
      <point x="50" y="53" type="line"/>
    </contour>
  </outline>
</glyph>
<glyph name="L" format="2">
  <advance width="338.83333"/>
  <unicode hex="004C"/>
  <anchor x="194" y="0" name="bottom"/>
  <anchor x="90" y="705" name="top"/>
  <outline>
    <contour>
      <point x="103" y="0" type="line"/>
      <point x="335" y="0" type="line"/>
      <point x="335" y="54" type="line"/>
      <point x="50" y="54" type="line"/>
      <point x="50" y="53" type="line"/>
    </contour>
    <contour>
      <point x="50" y="54" type="line"/>
      <point x="106" y="54" type="line"/>
      <point x="106" y="705" type="line"/>
      <point x="50" y="705" type="line"/>
    </contour>
  </outline>
</glyph>
<glyph name="M.color0" format="2">
  <advance width="600"/>
  <unicode hex="004D"/>
  <outline>
    <contour>
      <point x="252" y="24" type="line"/>
      <point x="293" y="-3" type="line"/>
      <point x="462" y="644" type="line"/>
      <point x="424" y="709" type="line"/>
    </contour>
  </outline>
</glyph>
<glyph name="M.color1" format="2">
  <advance width="600"/>
  <unicode hex="004D"/>
  <outline>
    <contour>
      <point x="50" y="0" type="line"/>
      <point x="106" y="0" type="line"/>
      <point x="106" y="606" type="line"/>
      <point x="50" y="689" type="line"/>
    </contour>
  </outline>
</glyph>
<glyph name="M.color2" format="2">
  <advance width="600"/>
  <unicode hex="004D"/>
  <outline>
    <contour>
      <point x="238" y="-3" type="line"/>
      <point x="293" y="-3" type="line"/>
      <point x="293" y="-2" type="line"/>
      <point x="106" y="709" type="line"/>
      <point x="105" y="709" type="line"/>
      <point x="50" y="689" type="line"/>
    </contour>
  </outline>
</glyph>
<glyph name="M.color3" format="2">
  <advance width="600"/>
  <unicode hex="004D"/>
  <outline>
    <contour>
      <point x="424" y="0" type="line"/>
      <point x="480" y="0" type="line"/>
      <point x="482" y="689" type="line"/>
      <point x="425" y="709" type="line"/>
      <point x="424" y="709" type="line"/>
    </contour>
  </outline>
</glyph>
<glyph name="M" format="2">
  <advance width="531.66667"/>
  <unicode hex="004D"/>
  <outline>
    <contour>
      <point x="252" y="24" type="line"/>
      <point x="293" y="-3" type="line"/>
      <point x="462" y="644" type="line"/>
      <point x="424" y="709" type="line"/>
    </contour>
    <contour>
      <point x="50" y="0" type="line"/>
      <point x="106" y="0" type="line"/>
      <point x="106" y="606" type="line"/>
      <point x="50" y="689" type="line"/>
    </contour>
    <contour>
      <point x="238" y="-3" type="line"/>
      <point x="293" y="-3" type="line"/>
      <point x="293" y="-2" type="line"/>
      <point x="106" y="709" type="line"/>
      <point x="105" y="709" type="line"/>
      <point x="50" y="689" type="line"/>
    </contour>
    <contour>
      <point x="424" y="0" type="line"/>
      <point x="480" y="0" type="line"/>
      <point x="482" y="689" type="line"/>
      <point x="425" y="709" type="line"/>
      <point x="424" y="709" type="line"/>
    </contour>
  </outline>
</glyph>
<glyph name="N.color1" format="2">
  <advance width="600"/>
  <unicode hex="004E"/>
  <outline>
    <contour>
      <point x="50" y="0" type="line"/>
      <point x="106" y="0" type="line"/>
      <point x="106" y="609" type="line"/>
      <point x="50" y="664" type="line"/>
    </contour>
  </outline>
</glyph>
<glyph name="N" format="2">
  <advance width="397"/>
  <unicode hex="004E"/>
  <anchor x="210" y="0" name="bottom"/>
  <anchor x="209" y="705" name="top"/>
  <outline>
    <contour>
      <point x="347" y="44" type="line"/>
      <point x="347" y="705" type="line"/>
      <point x="291" y="705" type="line"/>
      <point x="291" y="99" type="line"/>
    </contour>
    <contour>
      <point x="50" y="0" type="line"/>
      <point x="106" y="0" type="line"/>
      <point x="106" y="609" type="line"/>
      <point x="50" y="664" type="line"/>
    </contour>
    <contour>
      <point x="304" y="-3" type="line"/>
      <point x="305" y="-3" type="line"/>
      <point x="347" y="43" type="line"/>
      <point x="347" y="44" type="line"/>
      <point x="96" y="709" type="line"/>
      <point x="95" y="709" type="line"/>
      <point x="50" y="665" type="line"/>
      <point x="50" y="664" type="line"/>
    </contour>
  </outline>
</glyph>
<glyph name="O.color3" format="2">
  <advance width="600"/>
  <unicode hex="004F"/>
  <outline>
    <contour>
      <point x="261" y="0" type="line"/>
      <point x="262" y="0" type="line"/>
      <point x="317" y="54" type="line"/>
      <point x="317" y="651" type="line"/>
      <point x="261" y="651" type="line"/>
    </contour>
  </outline>
</glyph>
<glyph name="O" format="2">
  <advance width="365.33333"/>
  <unicode hex="004F"/>
  <anchor x="187" y="0" name="bottom"/>
  <anchor x="278" y="705" name="horn"/>
  <anchor x="188" y="705" name="top"/>
  <outline>
    <contour>
      <point x="104" y="651" type="line"/>
      <point x="317" y="651" type="line"/>
      <point x="317" y="652" type="line"/>
      <point x="271" y="705" type="line"/>
      <point x="104" y="705" type="line"/>
    </contour>
    <contour>
      <point x="101" y="0" type="line"/>
      <point x="261" y="0" type="line"/>
      <point x="261" y="54" type="line"/>
      <point x="48" y="54" type="line"/>
      <point x="48" y="53" type="line"/>
    </contour>
    <contour>
      <point x="48" y="54" type="line"/>
      <point x="104" y="54" type="line"/>
      <point x="104" y="705" type="line"/>
      <point x="103" y="705" type="line"/>
      <point x="48" y="651" type="line"/>
    </contour>
    <contour>
      <point x="261" y="0" type="line"/>
      <point x="262" y="0" type="line"/>
      <point x="317" y="54" type="line"/>
      <point x="317" y="651" type="line"/>
      <point x="261" y="651" type="line"/>
    </contour>
  </outline>
</glyph>
<glyph name="P.color0" format="2">
  <advance width="600"/>
  <unicode hex="0050"/>
  <outline>
    <contour>
      <point x="50" y="0" type="line"/>
      <point x="106" y="0" type="line"/>
      <point x="106" y="705" type="line"/>
      <point x="105" y="705" type="line"/>
      <point x="50" y="686" type="line"/>
    </contour>
  </outline>
</glyph>
<glyph name="P.color1" format="2">
  <advance width="600"/>
  <unicode hex="0050"/>
  <outline>
    <contour>
      <point x="106" y="323" type="line"/>
      <point x="264" y="323" type="line"/>
      <point x="264" y="377" type="line"/>
      <point x="106" y="377" type="line"/>
    </contour>
  </outline>
</glyph>
<glyph name="P.color2" format="2">
  <advance width="600"/>
  <unicode hex="0050"/>
  <outline>
    <contour>
      <point x="264" y="323" type="line"/>
      <point x="265" y="323" type="line"/>
      <point x="320" y="375" type="line"/>
      <point x="320" y="651" type="line"/>
      <point x="264" y="651" type="line"/>
    </contour>
  </outline>
</glyph>
<glyph name="P.color3" format="2">
  <advance width="600"/>
  <unicode hex="0050"/>
  <outline>
    <contour>
      <point x="106" y="651" type="line"/>
      <point x="320" y="651" type="line"/>
      <point x="320" y="652" type="line"/>
      <point x="267" y="705" type="line"/>
      <point x="106" y="705" type="line"/>
    </contour>
  </outline>
</glyph>
<glyph name="P" format="2">
  <advance width="340.33333"/>
  <unicode hex="0050"/>
  <outline>
    <contour>
      <point x="50" y="0" type="line"/>
      <point x="106" y="0" type="line"/>
      <point x="106" y="705" type="line"/>
      <point x="105" y="705" type="line"/>
      <point x="50" y="686" type="line"/>
    </contour>
    <contour>
      <point x="106" y="323" type="line"/>
      <point x="264" y="323" type="line"/>
      <point x="264" y="377" type="line"/>
      <point x="106" y="377" type="line"/>
    </contour>
    <contour>
      <point x="264" y="323" type="line"/>
      <point x="265" y="323" type="line"/>
      <point x="320" y="375" type="line"/>
      <point x="320" y="651" type="line"/>
      <point x="264" y="651" type="line"/>
    </contour>
    <contour>
      <point x="106" y="651" type="line"/>
      <point x="320" y="651" type="line"/>
      <point x="320" y="652" type="line"/>
      <point x="267" y="705" type="line"/>
      <point x="106" y="705" type="line"/>
    </contour>
  </outline>
</glyph>
<glyph name="Q.color0" format="2">
  <advance width="600"/>
  <unicode hex="0051"/>
  <outline>
    <contour>
      <point x="304" y="34" type="line"/>
      <point x="317" y="52" type="line"/>
      <point x="317" y="651" type="line"/>
      <point x="261" y="651" type="line"/>
      <point x="261" y="54" type="line"/>
      <point x="289" y="54" type="line"/>
    </contour>
  </outline>
</glyph>
<glyph name="Q.color1" format="2">
  <advance width="600"/>
  <unicode hex="0051"/>
  <outline>
    <contour>
      <point x="101" y="0" type="line"/>
      <point x="401" y="0" type="line"/>
      <point x="401" y="1" type="line"/>
      <point x="348" y="54" type="line"/>
      <point x="48" y="54" type="line"/>
      <point x="48" y="53" type="line"/>
    </contour>
  </outline>
</glyph>
<glyph name="Q" format="2">
  <advance width="388.5"/>
  <unicode hex="0051"/>
  <outline>
    <contour>
      <point x="304" y="34" type="line"/>
      <point x="317" y="52" type="line"/>
      <point x="317" y="651" type="line"/>
      <point x="261" y="651" type="line"/>
      <point x="261" y="54" type="line"/>
      <point x="289" y="54" type="line"/>
    </contour>
    <contour>
      <point x="101" y="0" type="line"/>
      <point x="401" y="0" type="line"/>
      <point x="401" y="1" type="line"/>
      <point x="348" y="54" type="line"/>
      <point x="48" y="54" type="line"/>
      <point x="48" y="53" type="line"/>
    </contour>
    <contour>
      <point x="48" y="54" type="line"/>
      <point x="104" y="54" type="line"/>
      <point x="104" y="705" type="line"/>
      <point x="103" y="705" type="line"/>
      <point x="48" y="651" type="line"/>
    </contour>
    <contour>
      <point x="104" y="651" type="line"/>
      <point x="317" y="651" type="line"/>
      <point x="317" y="652" type="line"/>
      <point x="264" y="705" type="line"/>
      <point x="104" y="705" type="line"/>
    </contour>
  </outline>
</glyph>
<glyph name="S" format="2">
  <advance width="330.33333"/>
  <unicode hex="0053"/>
  <anchor x="170" y="0" name="bottom"/>
  <anchor x="176" y="705" name="top"/>
  <outline>
    <contour>
      <point x="96" y="651" type="line"/>
      <point x="290" y="651" type="line"/>
      <point x="290" y="652" type="line"/>
      <point x="238" y="705" type="line"/>
      <point x="96" y="705" type="line"/>
    </contour>
    <contour>
      <point x="93" y="0" type="line"/>
      <point x="235" y="0" type="line"/>
      <point x="235" y="54" type="line"/>
      <point x="40" y="54" type="line"/>
      <point x="40" y="53" type="line"/>
    </contour>
    <contour>
      <point x="93" y="338" type="line"/>
      <point x="235" y="338" type="line"/>
      <point x="235" y="392" type="line"/>
      <point x="40" y="392" type="line"/>
      <point x="40" y="391" type="line"/>
    </contour>
    <contour>
      <point x="40" y="392" type="line"/>
      <point x="96" y="392" type="line"/>
      <point x="96" y="705" type="line"/>
      <point x="95" y="705" type="line"/>
      <point x="40" y="651" type="line"/>
    </contour>
    <contour>
      <point x="235" y="0" type="line"/>
      <point x="236" y="0" type="line"/>
      <point x="290" y="52" type="line"/>
      <point x="290" y="339" type="line"/>
      <point x="236" y="392" type="line"/>
      <point x="235" y="392" type="line"/>
    </contour>
  </outline>
</glyph>
<glyph name="T.color0" format="2">
  <advance width="600"/>
  <unicode hex="0054"/>
  <outline>
    <contour>
      <point x="171" y="0" type="line"/>
      <point x="227" y="0" type="line"/>
      <point x="227" y="705" type="line"/>
      <point x="217" y="705" type="line"/>
      <point x="171" y="651" type="line"/>
    </contour>
  </outline>
</glyph>
<glyph name="T.color1" format="2">
  <advance width="600"/>
  <unicode hex="0054"/>
  <outline>
    <contour>
      <point x="23" y="651" type="line"/>
      <point x="171" y="651" type="line"/>
      <point x="217" y="705" type="line"/>
      <point x="23" y="705" type="line"/>
    </contour>
  </outline>
</glyph>
<glyph name="T.color2" format="2">
  <advance width="600"/>
  <unicode hex="0054"/>
  <outline>
    <contour>
      <point x="227" y="651" type="line"/>
      <point x="377" y="651" type="line"/>
      <point x="377" y="705" type="line"/>
      <point x="227" y="705" type="line"/>
    </contour>
  </outline>
</glyph>
<glyph name="T" format="2">
  <advance width="400.16667"/>
  <unicode hex="0054"/>
  <anchor x="200" y="0" name="bottom"/>
  <anchor x="202" y="365" name="stroke"/>
  <anchor x="204" y="705" name="top"/>
  <outline>
    <contour>
      <point x="171" y="0" type="line"/>
      <point x="227" y="0" type="line"/>
      <point x="227" y="705" type="line"/>
      <point x="217" y="705" type="line"/>
      <point x="171" y="651" type="line"/>
    </contour>
    <contour>
      <point x="23" y="651" type="line"/>
      <point x="171" y="651" type="line"/>
      <point x="217" y="705" type="line"/>
      <point x="23" y="705" type="line"/>
    </contour>
    <contour>
      <point x="227" y="651" type="line"/>
      <point x="377" y="651" type="line"/>
      <point x="377" y="705" type="line"/>
      <point x="227" y="705" type="line"/>
    </contour>
  </outline>
</glyph>
<glyph name="V.color0" format="2">
  <advance width="600"/>
  <unicode hex="0056"/>
  <outline>
    <contour>
      <point x="142" y="0" type="line"/>
      <point x="143" y="0" type="line"/>
      <point x="185" y="42" type="line"/>
      <point x="80" y="705" type="line"/>
      <point x="19" y="705" type="line"/>
      <point x="19" y="704" type="line"/>
    </contour>
  </outline>
</glyph>
<glyph name="V.color1" format="2">
  <advance width="600"/>
  <unicode hex="0056"/>
  <outline>
    <contour>
      <point x="143" y="0" type="line"/>
      <point x="196" y="0" type="line"/>
      <point x="318" y="704" type="line"/>
      <point x="318" y="705" type="line"/>
      <point x="257" y="705" type="line"/>
    </contour>
  </outline>
</glyph>
<glyph name="V" format="2">
  <advance width="336.83333"/>
  <unicode hex="0056"/>
  <outline>
    <contour>
      <point x="142" y="0" type="line"/>
      <point x="143" y="0" type="line"/>
      <point x="185" y="42" type="line"/>
      <point x="80" y="705" type="line"/>
      <point x="19" y="705" type="line"/>
      <point x="19" y="704" type="line"/>
    </contour>
    <contour>
      <point x="143" y="0" type="line"/>
      <point x="196" y="0" type="line"/>
      <point x="318" y="704" type="line"/>
      <point x="318" y="705" type="line"/>
      <point x="257" y="705" type="line"/>
    </contour>
  </outline>
</glyph>
<glyph name="W.color0" format="2">
  <advance width="600"/>
  <unicode hex="0057"/>
  <outline>
    <contour>
      <point x="424" y="0" type="line"/>
      <point x="425" y="0" type="line"/>
      <point x="465" y="42" type="line"/>
      <point x="333" y="705" type="line"/>
      <point x="279" y="705" type="line"/>
    </contour>
  </outline>
</glyph>
<glyph name="W.color3" format="2">
  <advance width="600"/>
  <unicode hex="0057"/>
  <outline>
    <contour>
      <point x="425" y="0" type="line"/>
      <point x="474" y="0" type="line"/>
      <point x="596" y="704" type="line"/>
      <point x="596" y="705" type="line"/>
      <point x="536" y="705" type="line"/>
    </contour>
  </outline>
</glyph>
<glyph name="W" format="2">
  <advance width="611.33333"/>
  <unicode hex="0057"/>
  <anchor x="306" y="705" name="top"/>
  <outline>
    <contour>
      <point x="424" y="0" type="line"/>
      <point x="425" y="0" type="line"/>
      <point x="465" y="42" type="line"/>
      <point x="333" y="705" type="line"/>
      <point x="279" y="705" type="line"/>
    </contour>
    <contour>
      <point x="139" y="0" type="line"/>
      <point x="142" y="0" type="line"/>
      <point x="182" y="42" type="line"/>
      <point x="76" y="705" type="line"/>
      <point x="15" y="705" type="line"/>
      <point x="15" y="704" type="line"/>
    </contour>
    <contour>
      <point x="142" y="0" type="line"/>
      <point x="191" y="0" type="line"/>
      <point x="333" y="705" type="line"/>
      <point x="279" y="705" type="line"/>
    </contour>
    <contour>
      <point x="425" y="0" type="line"/>
      <point x="474" y="0" type="line"/>
      <point x="596" y="704" type="line"/>
      <point x="596" y="705" type="line"/>
      <point x="536" y="705" type="line"/>
    </contour>
  </outline>
</glyph>
<glyph name="X.color0" format="2">
  <advance width="600"/>
  <unicode hex="0058"/>
  <outline>
    <contour>
      <point x="140" y="353" type="line"/>
      <point x="141" y="353" type="line"/>
      <point x="180" y="387" type="line"/>
      <point x="87" y="705" type="line"/>
      <point x="27" y="705" type="line"/>
      <point x="27" y="704" type="line"/>
    </contour>
  </outline>
</glyph>
<glyph name="X.color3" format="2">
  <advance width="600"/>
  <unicode hex="0058"/>
  <outline>
    <contour>
      <point x="141" y="353" type="line"/>
      <point x="199" y="353" type="line"/>
      <point x="308" y="704" type="line"/>
      <point x="308" y="705" type="line"/>
      <point x="246" y="705" type="line"/>
    </contour>
  </outline>
</glyph>
<glyph name="X" format="2">
  <advance width="338"/>
  <unicode hex="0058"/>
  <outline>
    <contour>
      <point x="140" y="353" type="line"/>
      <point x="141" y="353" type="line"/>
      <point x="180" y="387" type="line"/>
      <point x="87" y="705" type="line"/>
      <point x="27" y="705" type="line"/>
      <point x="27" y="704" type="line"/>
    </contour>
    <contour>
      <point x="250" y="0" type="line"/>
      <point x="311" y="0" type="line"/>
      <point x="311" y="1" type="line"/>
      <point x="199" y="353" type="line"/>
      <point x="198" y="353" type="line"/>
      <point x="158" y="318" type="line"/>
    </contour>
    <contour>
      <point x="29" y="0" type="line"/>
      <point x="91" y="0" type="line"/>
      <point x="198" y="353" type="line"/>
      <point x="140" y="353" type="line"/>
      <point x="29" y="1" type="line"/>
    </contour>
    <contour>
      <point x="141" y="353" type="line"/>
      <point x="199" y="353" type="line"/>
      <point x="308" y="704" type="line"/>
      <point x="308" y="705" type="line"/>
      <point x="246" y="705" type="line"/>
    </contour>
  </outline>
</glyph>
<glyph name="Y.color0" format="2">
  <advance width="600"/>
  <unicode hex="0059"/>
  <outline>
    <contour>
      <point x="146" y="339" type="line"/>
      <point x="147" y="339" type="line"/>
      <point x="183" y="375" type="line"/>
      <point x="78" y="705" type="line"/>
      <point x="19" y="705" type="line"/>
      <point x="19" y="704" type="line"/>
    </contour>
  </outline>
</glyph>
<glyph name="Y.color1" format="2">
  <advance width="600"/>
  <unicode hex="0059"/>
  <outline>
    <contour>
      <point x="146" y="0" type="line"/>
      <point x="202" y="0" type="line"/>
      <point x="202" y="339" type="line"/>
      <point x="146" y="339" type="line"/>
    </contour>
  </outline>
</glyph>
<glyph name="Y.color2" format="2">
  <advance width="600"/>
  <unicode hex="0059"/>
  <outline>
    <contour>
      <point x="147" y="339" type="line"/>
      <point x="202" y="339" type="line"/>
      <point x="319" y="704" type="line"/>
      <point x="319" y="705" type="line"/>
      <point x="260" y="705" type="line"/>
    </contour>
  </outline>
</glyph>
<glyph name="Y" format="2">
  <advance width="338.33333"/>
  <unicode hex="0059"/>
  <anchor x="174" y="0" name="bottom"/>
  <anchor x="173" y="705" name="top"/>
  <outline>
    <contour>
      <point x="146" y="339" type="line"/>
      <point x="147" y="339" type="line"/>
      <point x="183" y="375" type="line"/>
      <point x="78" y="705" type="line"/>
      <point x="19" y="705" type="line"/>
      <point x="19" y="704" type="line"/>
    </contour>
    <contour>
      <point x="146" y="0" type="line"/>
      <point x="202" y="0" type="line"/>
      <point x="202" y="339" type="line"/>
      <point x="146" y="339" type="line"/>
    </contour>
    <contour>
      <point x="147" y="339" type="line"/>
      <point x="202" y="339" type="line"/>
      <point x="319" y="704" type="line"/>
      <point x="319" y="705" type="line"/>
      <point x="260" y="705" type="line"/>
    </contour>
  </outline>
</glyph>
<glyph name="Z.color0" format="2">
  <advance width="600"/>
  <unicode hex="005A"/>
  <outline>
    <contour>
      <point x="33" y="651" type="line"/>
      <point x="232" y="651" type="line"/>
      <point x="239" y="705" type="line"/>
      <point x="33" y="705" type="line"/>
    </contour>
  </outline>
</glyph>
<glyph name="Z.color1" format="2">
  <advance width="600"/>
  <unicode hex="005A"/>
  <outline>
    <contour>
      <point x="87" y="38" type="line"/>
      <point x="282" y="650" type="line"/>
      <point x="239" y="705" type="line"/>
      <point x="34" y="55" type="line"/>
      <point x="34" y="54" type="line"/>
    </contour>
  </outline>
</glyph>
<glyph name="Z.color2" format="2">
  <advance width="600"/>
  <unicode hex="005A"/>
  <outline>
    <contour>
      <point x="54" y="0" type="line"/>
      <point x="283" y="0" type="line"/>
      <point x="283" y="54" type="line"/>
      <point x="34" y="54" type="line"/>
    </contour>
  </outline>
</glyph>
<glyph name="Z" format="2">
  <advance width="315.83333"/>
  <unicode hex="005A"/>
  <anchor x="163" y="705" name="top"/>
  <outline>
    <contour>
      <point x="33" y="651" type="line"/>
      <point x="232" y="651" type="line"/>
      <point x="239" y="705" type="line"/>
      <point x="33" y="705" type="line"/>
    </contour>
    <contour>
      <point x="87" y="38" type="line"/>
      <point x="282" y="650" type="line"/>
      <point x="239" y="705" type="line"/>
      <point x="34" y="55" type="line"/>
      <point x="34" y="54" type="line"/>
    </contour>
    <contour>
      <point x="54" y="0" type="line"/>
      <point x="283" y="0" type="line"/>
      <point x="283" y="54" type="line"/>
      <point x="34" y="54" type="line"/>
    </contour>
  </outline>
</glyph>
<glyph name="bracketleft.color0" format="2">
  <advance width="600"/>
  <unicode hex="005B"/>
  <outline>
    <contour>
      <point x="53" y="-46" type="line"/>
      <point x="109" y="-46" type="line"/>
      <point x="109" y="705" type="line"/>
      <point x="53" y="705" type="line"/>
    </contour>
  </outline>
</glyph>
<glyph name="bracketleft.color2" format="2">
  <advance width="600"/>
  <unicode hex="005B"/>
  <outline>
    <contour>
      <point x="109" y="651" type="line"/>
      <point x="228" y="651" type="line"/>
      <point x="228" y="705" type="line"/>
      <point x="109" y="705" type="line"/>
    </contour>
  </outline>
</glyph>
<glyph name="bracketleft" format="2">
  <advance width="236.66667"/>
  <unicode hex="005B"/>
  <outline>
    <contour>
      <point x="53" y="-46" type="line"/>
      <point x="109" y="-46" type="line"/>
      <point x="109" y="705" type="line"/>
      <point x="53" y="705" type="line"/>
    </contour>
    <contour>
      <point x="53" y="-100" type="line"/>
      <point x="228" y="-100" type="line"/>
      <point x="228" y="-46" type="line"/>
      <point x="53" y="-46" type="line"/>
    </contour>
    <contour>
      <point x="109" y="651" type="line"/>
      <point x="228" y="651" type="line"/>
      <point x="228" y="705" type="line"/>
      <point x="109" y="705" type="line"/>
    </contour>
  </outline>
</glyph>
<glyph name="backslash" format="2">
  <advance width="244.66667"/>
  <unicode hex="005C"/>
  <outline>
    <contour>
      <point x="187" y="-100" type="line"/>
      <point x="246" y="-100" type="line"/>
      <point x="246" y="-99" type="line"/>
      <point x="59" y="797" type="line"/>
      <point x="1" y="797" type="line"/>
      <point x="1" y="796" type="line"/>
    </contour>
  </outline>
</glyph>
<glyph name="bracketright.color1" format="2">
  <advance width="600"/>
  <unicode hex="005D"/>
  <outline>
    <contour>
      <point x="23" y="-100" type="line"/>
      <point x="141" y="-100" type="line"/>
      <point x="141" y="-46" type="line"/>
      <point x="23" y="-46" type="line"/>
    </contour>
  </outline>
</glyph>
<glyph name="bracketright.color2" format="2">
  <advance width="600"/>
  <unicode hex="005D"/>
  <outline>
    <contour>
      <point x="23" y="651" type="line"/>
      <point x="197" y="651" type="line"/>
      <point x="197" y="705" type="line"/>
      <point x="23" y="705" type="line"/>
    </contour>
  </outline>
</glyph>
<glyph name="bracketright" format="2">
  <advance width="250"/>
  <unicode hex="005D"/>
  <outline>
    <contour>
      <point x="141" y="-100" type="line"/>
      <point x="197" y="-100" type="line"/>
      <point x="197" y="651" type="line"/>
      <point x="141" y="651" type="line"/>
    </contour>
    <contour>
      <point x="23" y="-100" type="line"/>
      <point x="141" y="-100" type="line"/>
      <point x="141" y="-46" type="line"/>
      <point x="23" y="-46" type="line"/>
    </contour>
    <contour>
      <point x="23" y="651" type="line"/>
      <point x="197" y="651" type="line"/>
      <point x="197" y="705" type="line"/>
      <point x="23" y="705" type="line"/>
    </contour>
  </outline>
</glyph>
<glyph name="asciicircum.color1" format="2">
  <advance width="600"/>
  <unicode hex="005E"/>
  <outline>
    <contour>
      <point x="214" y="441" type="line"/>
      <point x="272" y="441" type="line"/>
      <point x="272" y="442" type="line"/>
      <point x="189" y="705" type="line"/>
      <point x="137" y="705" type="line"/>
    </contour>
  </outline>
</glyph>
<glyph name="asciicircum" format="2">
  <advance width="321.66667"/>
  <unicode hex="005E"/>
  <outline>
    <contour>
      <point x="50" y="441" type="line"/>
      <point x="108" y="441" type="line"/>
      <point x="189" y="705" type="line"/>
      <point x="137" y="705" type="line"/>
      <point x="50" y="442" type="line"/>
    </contour>
    <contour>
      <point x="214" y="441" type="line"/>
      <point x="272" y="441" type="line"/>
      <point x="272" y="442" type="line"/>
      <point x="189" y="705" type="line"/>
      <point x="137" y="705" type="line"/>
    </contour>
  </outline>
</glyph>
<glyph name="underscore" format="2">
  <advance width="428.33333"/>
  <unicode hex="005F"/>
  <outline>
    <contour>
      <point x="50" y="-51" type="line"/>
      <point x="378" y="-51" type="line"/>
      <point x="378" y="0" type="line"/>
      <point x="50" y="0" type="line"/>
    </contour>
  </outline>
</glyph>
<glyph name="grave" format="2">
  <advance width="600"/>
  <unicode hex="0060"/>
  <anchor x="314" y="505" name="_top"/>
  <outline>
    <contour>
      <point x="299" y="573" type="line"/>
      <point x="337" y="573" type="line"/>
      <point x="310" y="720" type="line"/>
      <point x="255" y="720" type="line"/>
      <point x="255" y="719" type="line"/>
    </contour>
  </outline>
</glyph>
<glyph name="b.color0" format="2">
  <advance width="600"/>
  <unicode hex="0062"/>
  <outline>
    <contour>
      <point x="48" y="54" type="line"/>
      <point x="104" y="54" type="line"/>
      <point x="104" y="741" type="line"/>
      <point x="48" y="741" type="line"/>
    </contour>
  </outline>
</glyph>
<glyph name="b.color2" format="2">
  <advance width="600"/>
  <unicode hex="0062"/>
  <outline>
    <contour>
      <point x="197" y="0" type="line"/>
      <point x="198" y="0" type="line"/>
      <point x="252" y="37" type="line"/>
      <point x="252" y="451" type="line"/>
      <point x="197" y="451" type="line"/>
    </contour>
  </outline>
</glyph>
<glyph name="b.color3" format="2">
  <advance width="600"/>
  <unicode hex="0062"/>
  <outline>
    <contour>
      <point x="104" y="451" type="line"/>
      <point x="252" y="451" type="line"/>
      <point x="252" y="452" type="line"/>
      <point x="216" y="505" type="line"/>
      <point x="104" y="505" type="line"/>
    </contour>
  </outline>
</glyph>
<glyph name="b" format="2">
  <advance width="299.66667"/>
  <unicode hex="0062"/>
  <outline>
    <contour>
      <point x="48" y="54" type="line"/>
      <point x="104" y="54" type="line"/>
      <point x="104" y="741" type="line"/>
      <point x="48" y="741" type="line"/>
    </contour>
    <contour>
      <point x="85" y="0" type="line"/>
      <point x="197" y="0" type="line"/>
      <point x="197" y="54" type="line"/>
      <point x="48" y="54" type="line"/>
      <point x="48" y="53" type="line"/>
    </contour>
    <contour>
      <point x="197" y="0" type="line"/>
      <point x="198" y="0" type="line"/>
      <point x="252" y="37" type="line"/>
      <point x="252" y="451" type="line"/>
      <point x="197" y="451" type="line"/>
    </contour>
    <contour>
      <point x="104" y="451" type="line"/>
      <point x="252" y="451" type="line"/>
      <point x="252" y="452" type="line"/>
      <point x="216" y="505" type="line"/>
      <point x="104" y="505" type="line"/>
    </contour>
  </outline>
</glyph>
<glyph name="c.color0" format="2">
  <advance width="600"/>
  <unicode hex="0063"/>
  <outline>
    <contour>
      <point x="85" y="0" type="line"/>
      <point x="201" y="0" type="line"/>
      <point x="238" y="53" type="line"/>
      <point x="238" y="54" type="line"/>
      <point x="48" y="54" type="line"/>
      <point x="48" y="53" type="line"/>
    </contour>
  </outline>
</glyph>
<glyph name="c.color2" format="2">
  <advance width="600"/>
  <unicode hex="0063"/>
  <outline>
    <contour>
      <point x="104" y="451" type="line"/>
      <point x="247" y="451" type="line"/>
      <point x="247" y="452" type="line"/>
      <point x="210" y="505" type="line"/>
      <point x="104" y="505" type="line"/>
    </contour>
  </outline>
</glyph>
<glyph name="d.color0" format="2">
  <advance width="600"/>
  <unicode hex="0064"/>
  <outline>
    <contour>
      <point x="252" y="452" type="line"/>
      <point x="253" y="452" type="line"/>
      <point x="253" y="741" type="line"/>
      <point x="197" y="741" type="line"/>
      <point x="197" y="505" type="line"/>
    </contour>
  </outline>
</glyph>
<glyph name="d.color1" format="2">
  <advance width="600"/>
  <unicode hex="0064"/>
  <outline>
    <contour>
      <point x="105" y="451" type="line"/>
      <point x="253" y="451" type="line"/>
      <point x="253" y="452" type="line"/>
      <point x="207" y="505" type="line"/>
      <point x="105" y="505" type="line"/>
    </contour>
  </outline>
</glyph>
<glyph name="d.color2" format="2">
  <advance width="600"/>
  <unicode hex="0064"/>
  <outline>
    <contour>
      <point x="85" y="0" type="line"/>
      <point x="197" y="0" type="line"/>
      <point x="197" y="54" type="line"/>
      <point x="49" y="54" type="line"/>
      <point x="49" y="53" type="line"/>
    </contour>
  </outline>
</glyph>
<glyph name="d" format="2">
  <advance width="300.5"/>
  <unicode hex="0064"/>
  <anchor x="175" y="591" name="stroke"/>
  <anchor x="236" y="741" name="top"/>
  <outline>
    <contour>
      <point x="252" y="452" type="line"/>
      <point x="253" y="452" type="line"/>
      <point x="253" y="741" type="line"/>
      <point x="197" y="741" type="line"/>
      <point x="197" y="505" type="line"/>
    </contour>
    <contour>
      <point x="105" y="451" type="line"/>
      <point x="253" y="451" type="line"/>
      <point x="253" y="452" type="line"/>
      <point x="207" y="505" type="line"/>
      <point x="105" y="505" type="line"/>
    </contour>
    <contour>
      <point x="85" y="0" type="line"/>
      <point x="197" y="0" type="line"/>
      <point x="197" y="54" type="line"/>
      <point x="49" y="54" type="line"/>
      <point x="49" y="53" type="line"/>
    </contour>
    <contour>
      <point x="49" y="54" type="line"/>
      <point x="105" y="54" type="line"/>
      <point x="105" y="505" type="line"/>
      <point x="104" y="505" type="line"/>
      <point x="49" y="468" type="line"/>
    </contour>
    <contour>
      <point x="197" y="0" type="line"/>
      <point x="198" y="0" type="line"/>
      <point x="253" y="37" type="line"/>
      <point x="253" y="451" type="line"/>
      <point x="197" y="451" type="line"/>
    </contour>
  </outline>
</glyph>
<glyph name="e.color0" format="2">
  <advance width="600"/>
  <unicode hex="0065"/>
  <outline>
    <contour>
      <point x="86" y="0" type="line"/>
      <point x="221" y="0" type="line"/>
      <point x="258" y="52" type="line"/>
      <point x="258" y="53" type="line"/>
      <point x="49" y="53" type="line"/>
      <point x="49" y="52" type="line"/>
    </contour>
  </outline>
</glyph>
<glyph name="f.color0" format="2">
  <advance width="600"/>
  <unicode hex="0066"/>
  <outline>
    <contour>
      <point x="103" y="323" type="line"/>
      <point x="204" y="323" type="line"/>
      <point x="204" y="377" type="line"/>
      <point x="49" y="377" type="line"/>
    </contour>
  </outline>
</glyph>
<glyph name="g.color0" format="2">
  <advance width="600"/>
  <unicode hex="0067"/>
  <outline>
    <contour>
      <point x="103" y="451" type="line"/>
      <point x="261" y="451" type="line"/>
      <point x="294" y="504" type="line"/>
      <point x="294" y="505" type="line"/>
      <point x="103" y="505" type="line"/>
    </contour>
  </outline>
</glyph>
<glyph name="g.color2" format="2">
  <advance width="600"/>
  <unicode hex="0067"/>
  <outline>
    <contour>
      <point x="84" y="0" type="line"/>
      <point x="191" y="0" type="line"/>
      <point x="191" y="54" type="line"/>
      <point x="48" y="54" type="line"/>
      <point x="48" y="53" type="line"/>
    </contour>
  </outline>
</glyph>
<glyph name="g" format="2">
  <advance width="302.5"/>
  <unicode hex="0067"/>
  <anchor x="170" y="505" name="top"/>
  <outline>
    <contour>
      <point x="103" y="451" type="line"/>
      <point x="261" y="451" type="line"/>
      <point x="294" y="504" type="line"/>
      <point x="294" y="505" type="line"/>
      <point x="103" y="505" type="line"/>
    </contour>
    <contour>
      <point x="65" y="-201" type="line"/>
      <point x="191" y="-201" type="line"/>
      <point x="191" y="-151" type="line"/>
      <point x="48" y="-151" type="line"/>
      <point x="48" y="-152" type="line"/>
    </contour>
    <contour>
      <point x="84" y="0" type="line"/>
      <point x="191" y="0" type="line"/>
      <point x="191" y="54" type="line"/>
      <point x="48" y="54" type="line"/>
      <point x="48" y="53" type="line"/>
    </contour>
    <contour>
      <point x="48" y="54" type="line"/>
      <point x="103" y="54" type="line"/>
      <point x="103" y="505" type="line"/>
      <point x="102" y="505" type="line"/>
      <point x="48" y="468" type="line"/>
    </contour>
    <contour>
      <point x="191" y="-201" type="line"/>
      <point x="192" y="-201" type="line"/>
      <point x="246" y="-165" type="line"/>
      <point x="247" y="451" type="line"/>
      <point x="191" y="451" type="line"/>
    </contour>
  </outline>
</glyph>
<glyph name="h.color1" format="2">
  <advance width="600"/>
  <unicode hex="0068"/>
  <outline>
    <contour>
      <point x="196" y="-3" type="line"/>
      <point x="197" y="-3" type="line"/>
      <point x="251" y="24" type="line"/>
      <point x="251" y="451" type="line"/>
      <point x="196" y="451" type="line"/>
    </contour>
  </outline>
</glyph>
<glyph name="i.color0" format="2">
  <advance width="600"/>
  <unicode hex="0069"/>
  <outline>
    <contour>
      <point x="49" y="0" type="line"/>
      <point x="105" y="0" type="line"/>
      <point x="105" y="503" type="line"/>
      <point x="104" y="503" type="line"/>
      <point x="49" y="466" type="line"/>
    </contour>
  </outline>
</glyph>
<glyph name="i.color1" format="2">
  <advance width="600"/>
  <unicode hex="0069"/>
  <outline>
    <contour>
      <point x="49" y="530" type="line"/>
      <point x="50" y="530" type="line"/>
      <point x="105" y="567" type="line"/>
      <point x="105" y="626" type="line"/>
      <point x="49" y="626" type="line"/>
    </contour>
  </outline>
</glyph>
<glyph name="i" format="2">
  <advance width="154"/>
  <unicode hex="0069"/>
  <anchor x="77" y="0" name="bottom"/>
  <outline>
    <contour>
      <point x="49" y="0" type="line"/>
      <point x="105" y="0" type="line"/>
      <point x="105" y="503" type="line"/>
      <point x="104" y="503" type="line"/>
      <point x="49" y="466" type="line"/>
    </contour>
    <contour>
      <point x="49" y="530" type="line"/>
      <point x="50" y="530" type="line"/>
      <point x="105" y="567" type="line"/>
      <point x="105" y="626" type="line"/>
      <point x="49" y="626" type="line"/>
    </contour>
  </outline>
</glyph>
<glyph name="j.color0" format="2">
  <advance width="600"/>
  <unicode hex="006A"/>
  <outline>
    <contour>
      <point x="52" y="-201" type="line"/>
      <point x="53" y="-201" type="line"/>
      <point x="104" y="-164" type="line"/>
      <point x="104" y="503" type="line"/>
      <point x="103" y="503" type="line"/>
      <point x="52" y="466" type="line"/>
    </contour>
  </outline>
</glyph>
<glyph name="j.color1" format="2">
  <advance width="600"/>
  <unicode hex="006A"/>
  <outline>
    <contour>
      <point x="-35" y="-201" type="line"/>
      <point x="52" y="-201" type="line"/>
      <point x="52" y="-151" type="line"/>
      <point x="-35" y="-151" type="line"/>
    </contour>
  </outline>
</glyph>
<glyph name="j.color2" format="2">
  <advance width="600"/>
  <unicode hex="006A"/>
  <outline>
    <contour>
      <point x="52" y="530" type="line"/>
      <point x="53" y="530" type="line"/>
      <point x="104" y="567" type="line"/>
      <point x="104" y="626" type="line"/>
      <point x="52" y="626" type="line"/>
    </contour>
  </outline>
</glyph>
<glyph name="j" format="2">
  <advance width="153.5"/>
  <unicode hex="006A"/>
  <outline>
    <contour>
      <point x="52" y="-201" type="line"/>
      <point x="53" y="-201" type="line"/>
      <point x="104" y="-164" type="line"/>
      <point x="104" y="503" type="line"/>
      <point x="103" y="503" type="line"/>
      <point x="52" y="466" type="line"/>
    </contour>
    <contour>
      <point x="-35" y="-201" type="line"/>
      <point x="52" y="-201" type="line"/>
      <point x="52" y="-151" type="line"/>
      <point x="-35" y="-151" type="line"/>
    </contour>
    <contour>
      <point x="52" y="530" type="line"/>
      <point x="53" y="530" type="line"/>
      <point x="104" y="567" type="line"/>
      <point x="104" y="626" type="line"/>
      <point x="52" y="626" type="line"/>
    </contour>
  </outline>
</glyph>
<glyph name="k.color1" format="2">
  <advance width="600"/>
  <unicode hex="006B"/>
  <outline>
    <contour>
      <point x="216" y="0" type="line"/>
      <point x="271" y="0" type="line"/>
      <point x="271" y="326" type="line"/>
      <point x="216" y="326" type="line"/>
    </contour>
  </outline>
</glyph>
<glyph name="k.color2" format="2">
  <advance width="600"/>
  <unicode hex="006B"/>
  <outline>
    <contour>
      <point x="103" y="326" type="line"/>
      <point x="271" y="326" type="line"/>
      <point x="271" y="327" type="line"/>
      <point x="234" y="380" type="line"/>
      <point x="103" y="380" type="line"/>
    </contour>
  </outline>
</glyph>
<glyph name="k.color3" format="2">
  <advance width="600"/>
  <unicode hex="006B"/>
  <outline>
    <contour>
      <point x="179" y="380" type="line"/>
      <point x="234" y="380" type="line"/>
      <point x="234" y="609" type="line"/>
      <point x="233" y="609" type="line"/>
      <point x="179" y="572" type="line"/>
    </contour>
  </outline>
</glyph>
<glyph name="m.color1" format="2">
  <advance width="600"/>
  <unicode hex="006D"/>
  <outline>
    <contour>
      <point x="186" y="0" type="line"/>
      <point x="238" y="0" type="line"/>
      <point x="238" y="451" type="line"/>
      <point x="186" y="451" type="line"/>
    </contour>
  </outline>
</glyph>
<glyph name="m.color3" format="2">
  <advance width="600"/>
  <unicode hex="006D"/>
  <outline>
    <contour>
      <point x="320" y="-3" type="line"/>
      <point x="321" y="-3" type="line"/>
      <point x="376" y="24" type="line"/>
      <point x="376" y="451" type="line"/>
      <point x="320" y="451" type="line"/>
    </contour>
  </outline>
</glyph>
<glyph name="m.color4" format="2">
  <advance width="600"/>
  <unicode hex="006D"/>
  <outline>
    <contour>
      <point x="238" y="451" type="line"/>
      <point x="376" y="451" type="line"/>
      <point x="376" y="452" type="line"/>
      <point x="339" y="505" type="line"/>
      <point x="238" y="505" type="line"/>
    </contour>
  </outline>
</glyph>
<glyph name="m" format="2">
  <advance width="423.33333"/>
  <unicode hex="006D"/>
  <outline>
    <contour>
      <point x="48" y="0" type="line"/>
      <point x="103" y="0" type="line"/>
      <point x="103" y="505" type="line"/>
      <point x="102" y="505" type="line"/>
      <point x="48" y="468" type="line"/>
    </contour>
    <contour>
      <point x="186" y="0" type="line"/>
      <point x="238" y="0" type="line"/>
      <point x="238" y="451" type="line"/>
      <point x="186" y="451" type="line"/>
    </contour>
    <contour>
      <point x="103" y="451" type="line"/>
      <point x="238" y="451" type="line"/>
      <point x="238" y="452" type="line"/>
      <point x="208" y="505" type="line"/>
      <point x="103" y="505" type="line"/>
    </contour>
    <contour>
      <point x="320" y="-3" type="line"/>
      <point x="321" y="-3" type="line"/>
      <point x="376" y="24" type="line"/>
      <point x="376" y="451" type="line"/>
      <point x="320" y="451" type="line"/>
    </contour>
    <contour>
      <point x="238" y="451" type="line"/>
      <point x="376" y="451" type="line"/>
      <point x="376" y="452" type="line"/>
      <point x="339" y="505" type="line"/>
      <point x="238" y="505" type="line"/>
    </contour>
  </outline>
</glyph>
<glyph name="n.color1" format="2">
  <advance width="600"/>
  <unicode hex="006E"/>
  <outline>
    <contour>
      <point x="196" y="-3" type="line"/>
      <point x="197" y="-3" type="line"/>
      <point x="252" y="24" type="line"/>
      <point x="252" y="451" type="line"/>
      <point x="196" y="451" type="line"/>
    </contour>
  </outline>
</glyph>
<glyph name="n.color2" format="2">
  <advance width="600"/>
  <unicode hex="006E"/>
  <outline>
    <contour>
      <point x="103" y="451" type="line"/>
      <point x="252" y="451" type="line"/>
      <point x="252" y="452" type="line"/>
      <point x="215" y="505" type="line"/>
      <point x="103" y="505" type="line"/>
    </contour>
  </outline>
</glyph>
<glyph name="n" format="2">
  <advance width="299.5"/>
  <unicode hex="006E"/>
  <anchor x="154" y="0" name="bottom"/>
  <anchor x="158" y="505" name="top"/>
  <outline>
    <contour>
      <point x="48" y="0" type="line"/>
      <point x="103" y="0" type="line"/>
      <point x="103" y="505" type="line"/>
      <point x="102" y="505" type="line"/>
      <point x="48" y="468" type="line"/>
    </contour>
    <contour>
      <point x="196" y="-3" type="line"/>
      <point x="197" y="-3" type="line"/>
      <point x="252" y="24" type="line"/>
      <point x="252" y="451" type="line"/>
      <point x="196" y="451" type="line"/>
    </contour>
    <contour>
      <point x="103" y="451" type="line"/>
      <point x="252" y="451" type="line"/>
      <point x="252" y="452" type="line"/>
      <point x="215" y="505" type="line"/>
      <point x="103" y="505" type="line"/>
    </contour>
  </outline>
</glyph>
<glyph name="o" format="2">
  <advance width="304.5"/>
  <unicode hex="006F"/>
  <anchor x="153" y="0" name="bottom"/>
  <anchor x="214" y="505" name="horn"/>
  <anchor x="158" y="505" name="top"/>
  <outline>
    <contour>
      <point x="102" y="451" type="line"/>
      <point x="259" y="451" type="line"/>
      <point x="259" y="452" type="line"/>
      <point x="222" y="505" type="line"/>
      <point x="102" y="505" type="line"/>
    </contour>
    <contour>
      <point x="83" y="0" type="line"/>
      <point x="203" y="0" type="line"/>
      <point x="203" y="54" type="line"/>
      <point x="46" y="54" type="line"/>
      <point x="46" y="53" type="line"/>
    </contour>
    <contour>
      <point x="46" y="54" type="line"/>
      <point x="102" y="54" type="line"/>
      <point x="102" y="505" type="line"/>
      <point x="101" y="505" type="line"/>
      <point x="46" y="468" type="line"/>
    </contour>
    <contour>
      <point x="203" y="0" type="line"/>
      <point x="204" y="0" type="line"/>
      <point x="259" y="37" type="line"/>
      <point x="259" y="451" type="line"/>
      <point x="203" y="451" type="line"/>
    </contour>
  </outline>
</glyph>
<glyph name="p.color1" format="2">
  <advance width="600"/>
  <unicode hex="0070"/>
  <outline>
    <contour>
      <point x="48" y="-200" type="line"/>
      <point x="103" y="-200" type="line"/>
      <point x="103" y="0" type="line"/>
      <point x="49" y="53" type="line"/>
      <point x="48" y="53" type="line"/>
    </contour>
  </outline>
</glyph>
<glyph name="p.color2" format="2">
  <advance width="600"/>
  <unicode hex="0070"/>
  <outline>
    <contour>
      <point x="94" y="0" type="line"/>
      <point x="196" y="0" type="line"/>
      <point x="196" y="54" type="line"/>
      <point x="48" y="54" type="line"/>
      <point x="48" y="53" type="line"/>
    </contour>
  </outline>
</glyph>
<glyph name="p.color4" format="2">
  <advance width="600"/>
  <unicode hex="0070"/>
  <outline>
    <contour>
      <point x="196" y="0" type="line"/>
      <point x="197" y="0" type="line"/>
      <point x="251" y="37" type="line"/>
      <point x="251" y="451" type="line"/>
      <point x="196" y="451" type="line"/>
    </contour>
  </outline>
</glyph>
<glyph name="p" format="2">
  <advance width="298.83333"/>
  <unicode hex="0070"/>
  <outline>
    <contour>
      <point x="103" y="451" type="line"/>
      <point x="251" y="451" type="line"/>
      <point x="251" y="452" type="line"/>
      <point x="215" y="505" type="line"/>
      <point x="103" y="505" type="line"/>
    </contour>
    <contour>
      <point x="48" y="-200" type="line"/>
      <point x="103" y="-200" type="line"/>
      <point x="103" y="0" type="line"/>
      <point x="49" y="53" type="line"/>
      <point x="48" y="53" type="line"/>
    </contour>
    <contour>
      <point x="94" y="0" type="line"/>
      <point x="196" y="0" type="line"/>
      <point x="196" y="54" type="line"/>
      <point x="48" y="54" type="line"/>
      <point x="48" y="53" type="line"/>
    </contour>
    <contour>
      <point x="48" y="54" type="line"/>
      <point x="103" y="54" type="line"/>
      <point x="103" y="505" type="line"/>
      <point x="102" y="505" type="line"/>
      <point x="48" y="468" type="line"/>
    </contour>
    <contour>
      <point x="196" y="0" type="line"/>
      <point x="197" y="0" type="line"/>
      <point x="251" y="37" type="line"/>
      <point x="251" y="451" type="line"/>
      <point x="196" y="451" type="line"/>
    </contour>
  </outline>
</glyph>
<glyph name="q.color0" format="2">
  <advance width="600"/>
  <unicode hex="0071"/>
  <outline>
    <contour>
      <point x="196" y="-200" type="line"/>
      <point x="251" y="-200" type="line"/>
      <point x="251" y="451" type="line"/>
      <point x="196" y="451" type="line"/>
      <point x="196" y="396" type="line"/>
    </contour>
  </outline>
</glyph>
<glyph name="q" format="2">
  <advance width="298.83333"/>
  <unicode hex="0071"/>
  <outline>
    <contour>
      <point x="196" y="-200" type="line"/>
      <point x="251" y="-200" type="line"/>
      <point x="251" y="451" type="line"/>
      <point x="196" y="451" type="line"/>
      <point x="196" y="396" type="line"/>
    </contour>
    <contour>
      <point x="84" y="0" type="line"/>
      <point x="196" y="0" type="line"/>
      <point x="196" y="54" type="line"/>
      <point x="48" y="54" type="line"/>
      <point x="48" y="53" type="line"/>
    </contour>
    <contour>
      <point x="48" y="54" type="line"/>
      <point x="103" y="54" type="line"/>
      <point x="103" y="505" type="line"/>
      <point x="102" y="505" type="line"/>
      <point x="48" y="468" type="line"/>
    </contour>
    <contour>
      <point x="103" y="451" type="line"/>
      <point x="251" y="451" type="line"/>
      <point x="251" y="452" type="line"/>
      <point x="215" y="505" type="line"/>
      <point x="103" y="505" type="line"/>
    </contour>
  </outline>
</glyph>
<glyph name="r.color0" format="2">
  <advance width="600"/>
  <unicode hex="0072"/>
  <outline>
    <contour>
      <point x="48" y="0" type="line"/>
      <point x="103" y="0" type="line"/>
      <point x="103" y="505" type="line"/>
      <point x="102" y="505" type="line"/>
      <point x="48" y="468" type="line"/>
    </contour>
  </outline>
</glyph>
<glyph name="r" format="2">
  <advance width="231.83333"/>
  <unicode hex="0072"/>
  <anchor x="74" y="0" name="bottom"/>
  <anchor x="140" y="505" name="top"/>
  <outline>
    <contour>
      <point x="48" y="0" type="line"/>
      <point x="103" y="0" type="line"/>
      <point x="103" y="505" type="line"/>
      <point x="102" y="505" type="line"/>
      <point x="48" y="468" type="line"/>
    </contour>
    <contour>
      <point x="103" y="451" type="line"/>
      <point x="223" y="451" type="line"/>
      <point x="223" y="452" type="line"/>
      <point x="186" y="505" type="line"/>
      <point x="103" y="505" type="line"/>
    </contour>
  </outline>
</glyph>
<glyph name="t.color0" format="2">
  <advance width="600"/>
  <unicode hex="0074"/>
  <outline>
    <contour>
      <point x="48" y="451" type="line"/>
      <point x="49" y="451" type="line"/>
      <point x="103" y="505" type="line"/>
      <point x="103" y="676" type="line"/>
      <point x="48" y="676" type="line"/>
    </contour>
  </outline>
</glyph>
<glyph name="t.color3" format="2">
  <advance width="600"/>
  <unicode hex="0074"/>
  <outline>
    <contour>
      <point x="103" y="0" type="line"/>
      <point x="217" y="0" type="line"/>
      <point x="240" y="53" type="line"/>
      <point x="240" y="54" type="line"/>
      <point x="103" y="54" type="line"/>
    </contour>
  </outline>
</glyph>
<glyph name="t" format="2">
  <advance width="239.5"/>
  <unicode hex="0074"/>
  <anchor x="139" y="0" name="bottom"/>
  <anchor x="103" y="691" name="top"/>
  <outline>
    <contour>
      <point x="48" y="451" type="line"/>
      <point x="49" y="451" type="line"/>
      <point x="103" y="505" type="line"/>
      <point x="103" y="676" type="line"/>
      <point x="48" y="676" type="line"/>
    </contour>
    <contour>
      <point x="49" y="451" type="line"/>
      <point x="200" y="451" type="line"/>
      <point x="200" y="505" type="line"/>
      <point x="103" y="505" type="line"/>
    </contour>
    <contour>
      <point x="102" y="0" type="line"/>
      <point x="103" y="0" type="line"/>
      <point x="103" y="451" type="line"/>
      <point x="48" y="451" type="line"/>
      <point x="48" y="37" type="line"/>
    </contour>
    <contour>
      <point x="103" y="0" type="line"/>
      <point x="217" y="0" type="line"/>
      <point x="240" y="53" type="line"/>
      <point x="240" y="54" type="line"/>
      <point x="103" y="54" type="line"/>
    </contour>
  </outline>
</glyph>
<glyph name="v.color0" format="2">
  <advance width="600"/>
  <unicode hex="0076"/>
  <outline>
    <contour>
      <point x="191" y="0" type="line"/>
      <point x="192" y="0" type="line"/>
      <point x="246" y="53" type="line"/>
      <point x="246" y="505" type="line"/>
      <point x="191" y="505" type="line"/>
    </contour>
  </outline>
</glyph>
<glyph name="v.color2" format="2">
  <advance width="600"/>
  <unicode hex="0076"/>
  <outline>
    <contour>
      <point x="48" y="54" type="line"/>
      <point x="103" y="54" type="line"/>
      <point x="103" y="508" type="line"/>
      <point x="102" y="508" type="line"/>
      <point x="48" y="488" type="line"/>
    </contour>
  </outline>
</glyph>
<glyph name="v" format="2">
  <advance width="293.66667"/>
  <unicode hex="0076"/>
  <outline>
    <contour>
      <point x="191" y="0" type="line"/>
      <point x="192" y="0" type="line"/>
      <point x="246" y="53" type="line"/>
      <point x="246" y="505" type="line"/>
      <point x="191" y="505" type="line"/>
    </contour>
    <contour>
      <point x="78" y="0" type="line"/>
      <point x="191" y="0" type="line"/>
      <point x="191" y="54" type="line"/>
      <point x="48" y="54" type="line"/>
      <point x="48" y="53" type="line"/>
    </contour>
    <contour>
      <point x="48" y="54" type="line"/>
      <point x="103" y="54" type="line"/>
      <point x="103" y="508" type="line"/>
      <point x="102" y="508" type="line"/>
      <point x="48" y="488" type="line"/>
    </contour>
  </outline>
</glyph>
<glyph name="w.color0" format="2">
  <advance width="600"/>
  <unicode hex="0077"/>
  <outline>
    <contour>
      <point x="320" y="0" type="line"/>
      <point x="321" y="0" type="line"/>
      <point x="376" y="53" type="line"/>
      <point x="376" y="505" type="line"/>
      <point x="320" y="505" type="line"/>
    </contour>
  </outline>
</glyph>
<glyph name="w.color2" format="2">
  <advance width="600"/>
  <unicode hex="0077"/>
  <outline>
    <contour>
      <point x="48" y="54" type="line"/>
      <point x="103" y="54" type="line"/>
      <point x="103" y="509" type="line"/>
      <point x="102" y="509" type="line"/>
      <point x="48" y="482" type="line"/>
    </contour>
  </outline>
</glyph>
<glyph name="w.color4" format="2">
  <advance width="600"/>
  <unicode hex="0077"/>
  <outline>
    <contour>
      <point x="186" y="54" type="line"/>
      <point x="238" y="54" type="line"/>
      <point x="238" y="508" type="line"/>
      <point x="237" y="508" type="line"/>
      <point x="186" y="489" type="line"/>
    </contour>
  </outline>
</glyph>
<glyph name="x.color0" format="2">
  <advance width="600"/>
  <unicode hex="0078"/>
  <outline>
    <contour>
      <point x="112" y="253" type="line"/>
      <point x="113" y="253" type="line"/>
      <point x="157" y="275" type="line"/>
      <point x="82" y="505" type="line"/>
      <point x="18" y="505" type="line"/>
      <point x="18" y="504" type="line"/>
    </contour>
  </outline>
</glyph>
<glyph name="x.color1" format="2">
  <advance width="600"/>
  <unicode hex="0078"/>
  <outline>
    <contour>
      <point x="203" y="0" type="line"/>
      <point x="267" y="0" type="line"/>
      <point x="267" y="1" type="line"/>
      <point x="173" y="253" type="line"/>
      <point x="172" y="253" type="line"/>
      <point x="130" y="230" type="line"/>
    </contour>
  </outline>
</glyph>
<glyph name="x.color2" format="2">
  <advance width="600"/>
  <unicode hex="0078"/>
  <outline>
    <contour>
      <point x="24" y="0" type="line"/>
      <point x="85" y="0" type="line"/>
      <point x="172" y="253" type="line"/>
      <point x="112" y="253" type="line"/>
      <point x="24" y="1" type="line"/>
    </contour>
  </outline>
</glyph>
<glyph name="x.color3" format="2">
  <advance width="600"/>
  <unicode hex="0078"/>
  <outline>
    <contour>
      <point x="113" y="253" type="line"/>
      <point x="173" y="253" type="line"/>
      <point x="260" y="504" type="line"/>
      <point x="260" y="505" type="line"/>
      <point x="200" y="505" type="line"/>
    </contour>
  </outline>
</glyph>
<glyph name="x" format="2">
  <advance width="285"/>
  <unicode hex="0078"/>
  <outline>
    <contour>
      <point x="112" y="253" type="line"/>
      <point x="113" y="253" type="line"/>
      <point x="157" y="275" type="line"/>
      <point x="82" y="505" type="line"/>
      <point x="18" y="505" type="line"/>
      <point x="18" y="504" type="line"/>
    </contour>
    <contour>
      <point x="203" y="0" type="line"/>
      <point x="267" y="0" type="line"/>
      <point x="267" y="1" type="line"/>
      <point x="173" y="253" type="line"/>
      <point x="172" y="253" type="line"/>
      <point x="130" y="230" type="line"/>
    </contour>
    <contour>
      <point x="24" y="0" type="line"/>
      <point x="85" y="0" type="line"/>
      <point x="172" y="253" type="line"/>
      <point x="112" y="253" type="line"/>
      <point x="24" y="1" type="line"/>
    </contour>
    <contour>
      <point x="113" y="253" type="line"/>
      <point x="173" y="253" type="line"/>
      <point x="260" y="504" type="line"/>
      <point x="260" y="505" type="line"/>
      <point x="200" y="505" type="line"/>
    </contour>
  </outline>
</glyph>
<glyph name="y" format="2">
  <advance width="294"/>
  <unicode hex="0079"/>
  <anchor x="150" y="-200" name="bottom"/>
  <anchor x="154" y="505" name="top"/>
  <outline>
    <contour>
      <point x="191" y="-201" type="line"/>
      <point x="192" y="-201" type="line"/>
      <point x="246" y="-165" type="line"/>
      <point x="247" y="505" type="line"/>
      <point x="191" y="505" type="line"/>
    </contour>
    <contour>
      <point x="65" y="-201" type="line"/>
      <point x="191" y="-201" type="line"/>
      <point x="191" y="-151" type="line"/>
      <point x="48" y="-151" type="line"/>
      <point x="48" y="-152" type="line"/>
    </contour>
    <contour>
      <point x="85" y="0" type="line"/>
      <point x="191" y="0" type="line"/>
      <point x="191" y="54" type="line"/>
      <point x="48" y="54" type="line"/>
      <point x="48" y="53" type="line"/>
    </contour>
    <contour>
      <point x="48" y="54" type="line"/>
      <point x="103" y="54" type="line"/>
      <point x="103" y="509" type="line"/>
      <point x="102" y="509" type="line"/>
      <point x="48" y="479" type="line"/>
    </contour>
  </outline>
</glyph>
<glyph name="z.color0" format="2">
  <advance width="600"/>
  <unicode hex="007A"/>
  <outline>
    <contour>
      <point x="25" y="455" type="line"/>
      <point x="210" y="455" type="line"/>
      <point x="217" y="505" type="line"/>
      <point x="43" y="505" type="line"/>
      <point x="25" y="456" type="line"/>
    </contour>
  </outline>
</glyph>
<glyph name="z.color1" format="2">
  <advance width="600"/>
  <unicode hex="007A"/>
  <outline>
    <contour>
      <point x="84" y="45" type="line"/>
      <point x="251" y="450" type="line"/>
      <point x="217" y="505" type="line"/>
      <point x="24" y="51" type="line"/>
      <point x="24" y="50" type="line"/>
    </contour>
  </outline>
</glyph>
<glyph name="z.color2" format="2">
  <advance width="600"/>
  <unicode hex="007A"/>
  <outline>
    <contour>
      <point x="61" y="0" type="line"/>
      <point x="250" y="0" type="line"/>
      <point x="250" y="50" type="line"/>
      <point x="24" y="50" type="line"/>
    </contour>
  </outline>
</glyph>
<glyph name="z" format="2">
  <advance width="275"/>
  <unicode hex="007A"/>
  <anchor x="139" y="505" name="top"/>
  <outline>
    <contour>
      <point x="25" y="455" type="line"/>
      <point x="210" y="455" type="line"/>
      <point x="217" y="505" type="line"/>
      <point x="43" y="505" type="line"/>
      <point x="25" y="456" type="line"/>
    </contour>
    <contour>
      <point x="84" y="45" type="line"/>
      <point x="251" y="450" type="line"/>
      <point x="217" y="505" type="line"/>
      <point x="24" y="51" type="line"/>
      <point x="24" y="50" type="line"/>
    </contour>
    <contour>
      <point x="61" y="0" type="line"/>
      <point x="250" y="0" type="line"/>
      <point x="250" y="50" type="line"/>
      <point x="24" y="50" type="line"/>
    </contour>
  </outline>
</glyph>
<glyph name="braceleft.color0" format="2">
  <advance width="600"/>
  <unicode hex="007B"/>
  <outline>
    <contour>
      <point x="172" y="-100" type="line"/>
      <point x="282" y="-100" type="line"/>
      <point x="282" y="-46" type="line"/>
      <point x="172" y="-46" type="line"/>
    </contour>
  </outline>
</glyph>
<glyph name="braceleft.color1" format="2">
  <advance width="600"/>
  <unicode hex="007B"/>
  <outline>
    <contour>
      <point x="53" y="279" type="line"/>
      <point x="116" y="279" type="line"/>
      <point x="116" y="333" type="line"/>
      <point x="53" y="333" type="line"/>
    </contour>
  </outline>
</glyph>
<glyph name="braceleft.color2" format="2">
  <advance width="600"/>
  <unicode hex="007B"/>
  <outline>
    <contour>
      <point x="172" y="651" type="line"/>
      <point x="282" y="651" type="line"/>
      <point x="282" y="705" type="line"/>
      <point x="172" y="705" type="line"/>
    </contour>
  </outline>
</glyph>
<glyph name="braceleft.color3" format="2">
  <advance width="600"/>
  <unicode hex="007B"/>
  <outline>
    <contour>
      <point x="116" y="-80" type="line"/>
      <point x="172" y="-100" type="line"/>
      <point x="172" y="277" type="line"/>
      <point x="117" y="333" type="line"/>
      <point x="116" y="333" type="line"/>
    </contour>
  </outline>
</glyph>
<glyph name="braceleft.color4" format="2">
  <advance width="600"/>
  <unicode hex="007B"/>
  <outline>
    <contour>
      <point x="116" y="279" type="line"/>
      <point x="117" y="279" type="line"/>
      <point x="172" y="335" type="line"/>
      <point x="172" y="705" type="line"/>
      <point x="116" y="685" type="line"/>
    </contour>
  </outline>
</glyph>
<glyph name="braceleft" format="2">
  <advance width="291.16667"/>
  <unicode hex="007B"/>
  <outline>
    <contour>
      <point x="172" y="-100" type="line"/>
      <point x="282" y="-100" type="line"/>
      <point x="282" y="-46" type="line"/>
      <point x="172" y="-46" type="line"/>
    </contour>
    <contour>
      <point x="53" y="279" type="line"/>
      <point x="116" y="279" type="line"/>
      <point x="116" y="333" type="line"/>
      <point x="53" y="333" type="line"/>
    </contour>
    <contour>
      <point x="172" y="651" type="line"/>
      <point x="282" y="651" type="line"/>
      <point x="282" y="705" type="line"/>
      <point x="172" y="705" type="line"/>
    </contour>
    <contour>
      <point x="116" y="-80" type="line"/>
      <point x="172" y="-100" type="line"/>
      <point x="172" y="277" type="line"/>
      <point x="117" y="333" type="line"/>
      <point x="116" y="333" type="line"/>
    </contour>
    <contour>
      <point x="116" y="279" type="line"/>
      <point x="117" y="279" type="line"/>
      <point x="172" y="335" type="line"/>
      <point x="172" y="705" type="line"/>
      <point x="116" y="685" type="line"/>
    </contour>
  </outline>
</glyph>
<glyph name="bar" format="2">
  <advance width="152.66667"/>
  <unicode hex="007C"/>
  <outline>
    <contour>
      <point x="50" y="-100" type="line"/>
      <point x="103" y="-100" type="line"/>
      <point x="103" y="798" type="line"/>
      <point x="50" y="798" type="line"/>
    </contour>
  </outline>
</glyph>
<glyph name="braceright.color0" format="2">
  <advance width="600"/>
  <unicode hex="007D"/>
  <outline>
    <contour>
      <point x="191" y="272" type="line"/>
      <point x="192" y="272" type="line"/>
      <point x="192" y="685" type="line"/>
      <point x="136" y="705" type="line"/>
      <point x="136" y="329" type="line"/>
    </contour>
  </outline>
</glyph>
<glyph name="braceright.color2" format="2">
  <advance width="600"/>
  <unicode hex="007D"/>
  <outline>
    <contour>
      <point x="26" y="651" type="line"/>
      <point x="136" y="651" type="line"/>
      <point x="136" y="705" type="line"/>
      <point x="26" y="705" type="line"/>
    </contour>
  </outline>
</glyph>
<glyph name="braceright.color3" format="2">
  <advance width="600"/>
  <unicode hex="007D"/>
  <outline>
    <contour>
      <point x="192" y="272" type="line"/>
      <point x="255" y="272" type="line"/>
      <point x="255" y="326" type="line"/>
      <point x="192" y="326" type="line"/>
    </contour>
  </outline>
</glyph>
<glyph name="braceright" format="2">
  <advance width="307.83333"/>
  <unicode hex="007D"/>
  <outline>
    <contour>
      <point x="191" y="272" type="line"/>
      <point x="192" y="272" type="line"/>
      <point x="192" y="685" type="line"/>
      <point x="136" y="705" type="line"/>
      <point x="136" y="329" type="line"/>
    </contour>
    <contour>
      <point x="26" y="-100" type="line"/>
      <point x="136" y="-100" type="line"/>
      <point x="136" y="-46" type="line"/>
      <point x="26" y="-46" type="line"/>
    </contour>
    <contour>
      <point x="26" y="651" type="line"/>
      <point x="136" y="651" type="line"/>
      <point x="136" y="705" type="line"/>
      <point x="26" y="705" type="line"/>
    </contour>
    <contour>
      <point x="192" y="272" type="line"/>
      <point x="255" y="272" type="line"/>
      <point x="255" y="326" type="line"/>
      <point x="192" y="326" type="line"/>
    </contour>
    <contour>
      <point x="136" y="-100" type="line"/>
      <point x="192" y="-80" type="line"/>
      <point x="192" y="326" type="line"/>
      <point x="191" y="326" type="line"/>
      <point x="136" y="270" type="line"/>
    </contour>
  </outline>
</glyph>
<glyph name="asciitilde.color0" format="2">
  <advance width="600"/>
  <unicode hex="007E"/>
  <outline>
    <contour>
      <point x="48" y="270" type="line"/>
      <point x="97" y="270" type="line"/>
      <point x="97" y="390" type="line"/>
      <point x="48" y="363" type="line"/>
    </contour>
  </outline>
</glyph>
<glyph name="asciitilde.color1" format="2">
  <advance width="600"/>
  <unicode hex="007E"/>
  <outline>
    <contour>
      <point x="269" y="295" type="line"/>
      <point x="318" y="294" type="line"/>
      <point x="318" y="387" type="line"/>
      <point x="269" y="387" type="line"/>
    </contour>
  </outline>
</glyph>
<glyph name="asciitilde.color2" format="2">
  <advance width="600"/>
  <unicode hex="007E"/>
  <outline>
    <contour>
      <point x="270" y="263" type="line"/>
      <point x="271" y="263" type="line"/>
      <point x="318" y="294" type="line"/>
      <point x="318" y="295" type="line"/>
      <point x="98" y="390" type="line"/>
      <point x="97" y="390" type="line"/>
      <point x="48" y="364" type="line"/>
      <point x="48" y="363" type="line"/>
    </contour>
  </outline>
</glyph>
<glyph name="asciitilde" format="2">
  <advance width="366.33333"/>
  <unicode hex="007E"/>
  <outline>
    <contour>
      <point x="48" y="270" type="line"/>
      <point x="97" y="270" type="line"/>
      <point x="97" y="390" type="line"/>
      <point x="48" y="363" type="line"/>
    </contour>
    <contour>
      <point x="269" y="295" type="line"/>
      <point x="318" y="294" type="line"/>
      <point x="318" y="387" type="line"/>
      <point x="269" y="387" type="line"/>
    </contour>
    <contour>
      <point x="270" y="263" type="line"/>
      <point x="271" y="263" type="line"/>
      <point x="318" y="294" type="line"/>
      <point x="318" y="295" type="line"/>
      <point x="98" y="390" type="line"/>
      <point x="97" y="390" type="line"/>
      <point x="48" y="364" type="line"/>
      <point x="48" y="363" type="line"/>
    </contour>
  </outline>
</glyph>
<glyph name="exclamdown.color0" format="2">
  <advance width="600"/>
  <unicode hex="00A1"/>
  <outline>
    <contour>
      <point x="54" y="-33" type="line"/>
      <point x="55" y="-33" type="line"/>
      <point x="110" y="4" type="line"/>
      <point x="110" y="543" type="line"/>
      <point x="54" y="543" type="line"/>
    </contour>
  </outline>
</glyph>
<glyph name="exclamdown.color1" format="2">
  <advance width="600"/>
  <unicode hex="00A1"/>
  <outline>
    <contour>
      <point x="50" y="621" type="line"/>
      <point x="115" y="621" type="line"/>
      <point x="115" y="675" type="line"/>
      <point x="50" y="675" type="line"/>
    </contour>
  </outline>
</glyph>
<glyph name="cent.color0" format="2">
  <advance width="600"/>
  <unicode hex="00A2"/>
  <outline>
    <contour>
      <point x="128" y="485" type="line"/>
      <point x="184" y="485" type="line"/>
      <point x="184" y="553" type="line"/>
      <point x="183" y="553" type="line"/>
      <point x="128" y="530" type="line"/>
    </contour>
  </outline>
</glyph>
<glyph name="cent.color1" format="2">
  <advance width="600"/>
  <unicode hex="00A2"/>
  <outline>
    <contour>
      <point x="128" y="-54" type="line"/>
      <point x="130" y="-54" type="line"/>
      <point x="184" y="-31" type="line"/>
      <point x="184" y="19" type="line"/>
      <point x="128" y="19" type="line"/>
    </contour>
  </outline>
</glyph>
<glyph name="cent.color2" format="2">
  <advance width="600"/>
  <unicode hex="00A2"/>
  <outline>
    <contour>
      <point x="84" y="0" type="line"/>
      <point x="200" y="0" type="line"/>
      <point x="237" y="53" type="line"/>
      <point x="237" y="54" type="line"/>
      <point x="47" y="54" type="line"/>
      <point x="47" y="53" type="line"/>
    </contour>
  </outline>
</glyph>
<glyph name="cent.color3" format="2">
  <advance width="600"/>
  <unicode hex="00A2"/>
  <outline>
    <contour>
      <point x="47" y="54" type="line"/>
      <point x="103" y="54" type="line"/>
      <point x="103" y="505" type="line"/>
      <point x="102" y="505" type="line"/>
      <point x="47" y="468" type="line"/>
    </contour>
  </outline>
</glyph>
<glyph name="cent.color4" format="2">
  <advance width="600"/>
  <unicode hex="00A2"/>
  <outline>
    <contour>
      <point x="103" y="451" type="line"/>
      <point x="246" y="451" type="line"/>
      <point x="246" y="452" type="line"/>
      <point x="209" y="505" type="line"/>
      <point x="103" y="505" type="line"/>
    </contour>
  </outline>
</glyph>
<glyph name="cent" format="2">
  <advance width="297"/>
  <unicode hex="00A2"/>
  <outline>
    <contour>
      <point x="128" y="485" type="line"/>
      <point x="184" y="485" type="line"/>
      <point x="184" y="553" type="line"/>
      <point x="183" y="553" type="line"/>
      <point x="128" y="530" type="line"/>
    </contour>
    <contour>
      <point x="128" y="-54" type="line"/>
      <point x="130" y="-54" type="line"/>
      <point x="184" y="-31" type="line"/>
      <point x="184" y="19" type="line"/>
      <point x="128" y="19" type="line"/>
    </contour>
    <component base="c" xOffset="-1"/>
  </outline>
</glyph>
<glyph name="sterling.color0" format="2">
  <advance width="600"/>
  <unicode hex="00A3"/>
  <outline>
    <contour>
      <point x="50" y="0" type="line"/>
      <point x="399" y="0" type="line"/>
      <point x="399" y="54" type="line"/>
      <point x="50" y="54" type="line"/>
    </contour>
  </outline>
</glyph>
<glyph name="sterling.color1" format="2">
  <advance width="600"/>
  <unicode hex="00A3"/>
  <outline>
    <contour>
      <point x="56" y="355" type="line"/>
      <point x="371" y="356" type="line"/>
      <point x="371" y="410" type="line"/>
      <point x="56" y="409" type="line"/>
    </contour>
  </outline>
</glyph>
<glyph name="sterling.color2" format="2">
  <advance width="600"/>
  <unicode hex="00A3"/>
  <outline>
    <contour>
      <point x="108" y="54" type="line"/>
      <point x="164" y="54" type="line"/>
      <point x="164" y="705" type="line"/>
      <point x="163" y="705" type="line"/>
      <point x="108" y="651" type="line"/>
    </contour>
  </outline>
</glyph>
<glyph name="sterling.color3" format="2">
  <advance width="600"/>
  <unicode hex="00A3"/>
  <outline>
    <contour>
      <point x="164" y="651" type="line"/>
      <point x="374" y="651" type="line"/>
      <point x="374" y="652" type="line"/>
      <point x="321" y="705" type="line"/>
      <point x="164" y="705" type="line"/>
    </contour>
  </outline>
</glyph>
<glyph name="sterling" format="2">
  <advance width="448.66667"/>
  <unicode hex="00A3"/>
  <outline>
    <contour>
      <point x="50" y="0" type="line"/>
      <point x="399" y="0" type="line"/>
      <point x="399" y="54" type="line"/>
      <point x="50" y="54" type="line"/>
    </contour>
    <contour>
      <point x="56" y="355" type="line"/>
      <point x="371" y="356" type="line"/>
      <point x="371" y="410" type="line"/>
      <point x="56" y="409" type="line"/>
    </contour>
    <contour>
      <point x="108" y="54" type="line"/>
      <point x="164" y="54" type="line"/>
      <point x="164" y="705" type="line"/>
      <point x="163" y="705" type="line"/>
      <point x="108" y="651" type="line"/>
    </contour>
    <contour>
      <point x="164" y="651" type="line"/>
      <point x="374" y="651" type="line"/>
      <point x="374" y="652" type="line"/>
      <point x="321" y="705" type="line"/>
      <point x="164" y="705" type="line"/>
    </contour>
  </outline>
</glyph>
<glyph name="currency.color0" format="2">
  <advance width="600"/>
  <unicode hex="00A4"/>
  <outline>
    <contour>
      <point x="159" y="501" type="line"/>
      <point x="316" y="501" type="line"/>
      <point x="276" y="555" type="line"/>
      <point x="159" y="555" type="line"/>
    </contour>
  </outline>
</glyph>
<glyph name="currency.color1" format="2">
  <advance width="600"/>
  <unicode hex="00A4"/>
  <outline>
    <contour>
      <point x="88" y="92" type="line"/>
      <point x="144" y="150" type="line"/>
      <point x="103" y="204" type="line"/>
      <point x="47" y="145" type="line"/>
    </contour>
  </outline>
</glyph>
<glyph name="currency.color2" format="2">
  <advance width="600"/>
  <unicode hex="00A4"/>
  <outline>
    <contour>
      <point x="144" y="150" type="line"/>
      <point x="261" y="150" type="line"/>
      <point x="261" y="204" type="line"/>
      <point x="103" y="204" type="line"/>
    </contour>
  </outline>
</glyph>
<glyph name="currency.color3" format="2">
  <advance width="600"/>
  <unicode hex="00A4"/>
  <outline>
    <contour>
      <point x="103" y="204" type="line"/>
      <point x="159" y="204" type="line"/>
      <point x="159" y="555" type="line"/>
      <point x="103" y="515" type="line"/>
    </contour>
  </outline>
</glyph>
<glyph name="currency.color4" format="2">
  <advance width="600"/>
  <unicode hex="00A4"/>
  <outline>
    <contour>
      <point x="103" y="515" type="line"/>
      <point x="159" y="555" type="line"/>
      <point x="111" y="620" type="line"/>
      <point x="55" y="580" type="line"/>
    </contour>
  </outline>
</glyph>
<glyph name="currency.color5" format="2">
  <advance width="600"/>
  <unicode hex="00A4"/>
  <outline>
    <contour>
      <point x="309" y="85" type="line"/>
      <point x="365" y="125" type="line"/>
      <point x="316" y="190" type="line"/>
      <point x="261" y="150" type="line"/>
    </contour>
  </outline>
</glyph>
<glyph name="currency.color6" format="2">
  <advance width="600"/>
  <unicode hex="00A4"/>
  <outline>
    <contour>
      <point x="261" y="150" type="line"/>
      <point x="316" y="190" type="line"/>
      <point x="316" y="501" type="line"/>
      <point x="261" y="501" type="line"/>
    </contour>
  </outline>
</glyph>
<glyph name="currency.color7" format="2">
  <advance width="600"/>
  <unicode hex="00A4"/>
  <outline>
    <contour>
      <point x="316" y="501" type="line"/>
      <point x="373" y="560" type="line"/>
      <point x="332" y="613" type="line"/>
      <point x="276" y="555" type="line"/>
    </contour>
  </outline>
</glyph>
<glyph name="currency" format="2">
  <advance width="419.5"/>
  <unicode hex="00A4"/>
  <outline>
    <contour>
      <point x="159" y="501" type="line"/>
      <point x="316" y="501" type="line"/>
      <point x="276" y="555" type="line"/>
      <point x="159" y="555" type="line"/>
    </contour>
    <contour>
      <point x="88" y="92" type="line"/>
      <point x="144" y="150" type="line"/>
      <point x="103" y="204" type="line"/>
      <point x="47" y="145" type="line"/>
    </contour>
    <contour>
      <point x="144" y="150" type="line"/>
      <point x="261" y="150" type="line"/>
      <point x="261" y="204" type="line"/>
      <point x="103" y="204" type="line"/>
    </contour>
    <contour>
      <point x="103" y="204" type="line"/>
      <point x="159" y="204" type="line"/>
      <point x="159" y="555" type="line"/>
      <point x="103" y="515" type="line"/>
    </contour>
    <contour>
      <point x="103" y="515" type="line"/>
      <point x="159" y="555" type="line"/>
      <point x="111" y="620" type="line"/>
      <point x="55" y="580" type="line"/>
    </contour>
    <contour>
      <point x="309" y="85" type="line"/>
      <point x="365" y="125" type="line"/>
      <point x="316" y="190" type="line"/>
      <point x="261" y="150" type="line"/>
    </contour>
    <contour>
      <point x="261" y="150" type="line"/>
      <point x="316" y="190" type="line"/>
      <point x="316" y="501" type="line"/>
      <point x="261" y="501" type="line"/>
    </contour>
    <contour>
      <point x="316" y="501" type="line"/>
      <point x="373" y="560" type="line"/>
      <point x="332" y="613" type="line"/>
      <point x="276" y="555" type="line"/>
    </contour>
  </outline>
</glyph>
<glyph name="yen.color0" format="2">
  <advance width="600"/>
  <unicode hex="00A5"/>
  <outline>
    <contour>
      <point x="57" y="315" type="line"/>
      <point x="316" y="316" type="line"/>
      <point x="316" y="317" type="line"/>
      <point x="293" y="340" type="line"/>
      <point x="34" y="339" type="line"/>
      <point x="34" y="338" type="line"/>
    </contour>
  </outline>
</glyph>
<glyph name="yen.color1" format="2">
  <advance width="600"/>
  <unicode hex="00A5"/>
  <outline>
    <contour>
      <point x="57" y="226" type="line"/>
      <point x="316" y="227" type="line"/>
      <point x="316" y="228" type="line"/>
      <point x="293" y="251" type="line"/>
      <point x="34" y="250" type="line"/>
      <point x="34" y="249" type="line"/>
    </contour>
  </outline>
</glyph>
<glyph name="yen.color2" format="2">
  <advance width="600"/>
  <unicode hex="00A5"/>
  <outline>
    <contour>
      <point x="148" y="339" type="line"/>
      <point x="149" y="339" type="line"/>
      <point x="185" y="375" type="line"/>
      <point x="80" y="705" type="line"/>
      <point x="21" y="705" type="line"/>
      <point x="21" y="704" type="line"/>
    </contour>
  </outline>
</glyph>
<glyph name="yen.color3" format="2">
  <advance width="600"/>
  <unicode hex="00A5"/>
  <outline>
    <contour>
      <point x="148" y="0" type="line"/>
      <point x="204" y="0" type="line"/>
      <point x="204" y="339" type="line"/>
      <point x="148" y="339" type="line"/>
    </contour>
  </outline>
</glyph>
<glyph name="yen.color4" format="2">
  <advance width="600"/>
  <unicode hex="00A5"/>
  <outline>
    <contour>
      <point x="149" y="339" type="line"/>
      <point x="204" y="339" type="line"/>
      <point x="321" y="704" type="line"/>
      <point x="321" y="705" type="line"/>
      <point x="262" y="705" type="line"/>
    </contour>
  </outline>
</glyph>
<glyph name="yen" format="2">
  <advance width="350"/>
  <unicode hex="00A5"/>
  <anchor x="176" y="0" name="bottom"/>
  <anchor x="175" y="705" name="top"/>
  <outline>
    <contour>
      <point x="57" y="315" type="line"/>
      <point x="316" y="316" type="line"/>
      <point x="316" y="317" type="line"/>
      <point x="293" y="340" type="line"/>
      <point x="34" y="339" type="line"/>
      <point x="34" y="338" type="line"/>
    </contour>
    <contour>
      <point x="57" y="226" type="line"/>
      <point x="316" y="227" type="line"/>
      <point x="316" y="228" type="line"/>
      <point x="293" y="251" type="line"/>
      <point x="34" y="250" type="line"/>
      <point x="34" y="249" type="line"/>
    </contour>
    <contour>
      <point x="148" y="339" type="line"/>
      <point x="149" y="339" type="line"/>
      <point x="185" y="375" type="line"/>
      <point x="80" y="705" type="line"/>
      <point x="21" y="705" type="line"/>
      <point x="21" y="704" type="line"/>
    </contour>
    <contour>
      <point x="148" y="0" type="line"/>
      <point x="204" y="0" type="line"/>
      <point x="204" y="339" type="line"/>
      <point x="148" y="339" type="line"/>
    </contour>
    <contour>
      <point x="149" y="339" type="line"/>
      <point x="204" y="339" type="line"/>
      <point x="321" y="704" type="line"/>
      <point x="321" y="705" type="line"/>
      <point x="262" y="705" type="line"/>
    </contour>
  </outline>
</glyph>
<glyph name="brokenbar.color0" format="2">
  <advance width="600"/>
  <unicode hex="00A6"/>
  <outline>
    <contour>
      <point x="48" y="425" type="line"/>
      <point x="101" y="425" type="line"/>
      <point x="101" y="706" type="line"/>
      <point x="48" y="706" type="line"/>
    </contour>
  </outline>
</glyph>
<glyph name="brokenbar.color1" format="2">
  <advance width="600"/>
  <unicode hex="00A6"/>
  <outline>
    <contour>
      <point x="48" y="0" type="line"/>
      <point x="101" y="0" type="line"/>
      <point x="101" y="283" type="line"/>
      <point x="48" y="283" type="line"/>
    </contour>
  </outline>
</glyph>
<glyph name="section.color0" format="2">
  <advance width="600"/>
  <unicode hex="00A7"/>
  <outline>
    <contour>
      <point x="92" y="349" type="line"/>
      <point x="194" y="434" type="line"/>
      <point x="165" y="483" type="line"/>
      <point x="88" y="430" type="line"/>
    </contour>
  </outline>
</glyph>
<glyph name="section.color1" format="2">
  <advance width="600"/>
  <unicode hex="00A7"/>
  <outline>
    <contour>
      <point x="207" y="143" type="line"/>
      <point x="290" y="209" type="line"/>
      <point x="268" y="267" type="line"/>
      <point x="181" y="202" type="line"/>
    </contour>
  </outline>
</glyph>
<glyph name="section.color2" format="2">
  <advance width="600"/>
  <unicode hex="00A7"/>
  <outline>
    <contour>
      <point x="113" y="-93" type="line"/>
      <point x="272" y="-93" type="line"/>
      <point x="265" y="-39" type="line"/>
      <point x="60" y="-39" type="line"/>
      <point x="60" y="-40" type="line"/>
    </contour>
  </outline>
</glyph>
<glyph name="section.color3" format="2">
  <advance width="600"/>
  <unicode hex="00A7"/>
  <outline>
    <contour>
      <point x="116" y="651" type="line"/>
      <point x="320" y="651" type="line"/>
      <point x="320" y="652" type="line"/>
      <point x="268" y="705" type="line"/>
      <point x="109" y="705" type="line"/>
    </contour>
  </outline>
</glyph>
<glyph name="section.color4" format="2">
  <advance width="600"/>
  <unicode hex="00A7"/>
  <outline>
    <contour>
      <point x="272" y="-93" type="line"/>
      <point x="308" y="-43" type="line"/>
      <point x="88" y="430" type="line"/>
      <point x="48" y="387" type="line"/>
      <point x="48" y="386" type="line"/>
    </contour>
  </outline>
</glyph>
<glyph name="section.color5" format="2">
  <advance width="600"/>
  <unicode hex="00A7"/>
  <outline>
    <contour>
      <point x="290" y="209" type="line"/>
      <point x="330" y="250" type="line"/>
      <point x="330" y="251" type="line"/>
      <point x="109" y="705" type="line"/>
      <point x="72" y="656" type="line"/>
    </contour>
  </outline>
</glyph>
<glyph name="section" format="2">
  <advance width="379.5"/>
  <unicode hex="00A7"/>
  <outline>
    <contour>
      <point x="92" y="349" type="line"/>
      <point x="194" y="434" type="line"/>
      <point x="165" y="483" type="line"/>
      <point x="88" y="430" type="line"/>
    </contour>
    <contour>
      <point x="207" y="143" type="line"/>
      <point x="290" y="209" type="line"/>
      <point x="268" y="267" type="line"/>
      <point x="181" y="202" type="line"/>
    </contour>
    <contour>
      <point x="113" y="-93" type="line"/>
      <point x="272" y="-93" type="line"/>
      <point x="265" y="-39" type="line"/>
      <point x="60" y="-39" type="line"/>
      <point x="60" y="-40" type="line"/>
    </contour>
    <contour>
      <point x="116" y="651" type="line"/>
      <point x="320" y="651" type="line"/>
      <point x="320" y="652" type="line"/>
      <point x="268" y="705" type="line"/>
      <point x="109" y="705" type="line"/>
    </contour>
    <contour>
      <point x="272" y="-93" type="line"/>
      <point x="308" y="-43" type="line"/>
      <point x="88" y="430" type="line"/>
      <point x="48" y="387" type="line"/>
      <point x="48" y="386" type="line"/>
    </contour>
    <contour>
      <point x="290" y="209" type="line"/>
      <point x="330" y="250" type="line"/>
      <point x="330" y="251" type="line"/>
      <point x="109" y="705" type="line"/>
      <point x="72" y="656" type="line"/>
    </contour>
  </outline>
</glyph>
<glyph name="dieresis.color0" format="2">
  <advance width="600"/>
  <unicode hex="00A8"/>
  <outline>
    <contour>
      <point x="323" y="608" type="line"/>
      <point x="378" y="608" type="line"/>
      <point x="378" y="658" type="line"/>
      <point x="323" y="658" type="line"/>
    </contour>
  </outline>
</glyph>
<glyph name="dieresis.color1" format="2">
  <advance width="600"/>
  <unicode hex="00A8"/>
  <outline>
    <contour>
      <point x="235" y="608" type="line"/>
      <point x="291" y="608" type="line"/>
      <point x="291" y="658" type="line"/>
      <point x="235" y="658" type="line"/>
    </contour>
  </outline>
</glyph>
<glyph name="dieresis" format="2">
  <advance width="600"/>
  <unicode hex="00A8"/>
  <anchor x="308" y="505" name="_top"/>
  <anchor x="304" y="617" name="top"/>
  <outline>
    <contour>
      <point x="323" y="608" type="line"/>
      <point x="378" y="608" type="line"/>
      <point x="378" y="658" type="line"/>
      <point x="323" y="658" type="line"/>
    </contour>
    <contour>
      <point x="235" y="608" type="line"/>
      <point x="291" y="608" type="line"/>
      <point x="291" y="658" type="line"/>
      <point x="235" y="658" type="line"/>
    </contour>
  </outline>
</glyph>
<glyph name="copyright.color0" format="2">
  <advance width="600"/>
  <unicode hex="00A9"/>
  <outline>
    <contour>
      <point x="191" y="42" type="line"/>
      <point x="306" y="42" type="line"/>
      <point x="343" y="94" type="line"/>
      <point x="343" y="95" type="line"/>
      <point x="154" y="95" type="line"/>
      <point x="154" y="94" type="line"/>
    </contour>
  </outline>
</glyph>
<glyph name="copyright.color2" format="2">
  <advance width="600"/>
  <unicode hex="00A9"/>
  <outline>
    <contour>
      <point x="77" y="-42" type="line"/>
      <point x="423" y="-42" type="line"/>
      <point x="446" y="-19" type="line"/>
      <point x="446" y="-18" type="line"/>
      <point x="77" y="-18" type="line"/>
    </contour>
  </outline>
</glyph>
<glyph name="copyright.color3" format="2">
  <advance width="600"/>
  <unicode hex="00A9"/>
  <outline>
    <contour>
      <point x="154" y="95" type="line"/>
      <point x="209" y="95" type="line"/>
      <point x="209" y="553" type="line"/>
      <point x="208" y="553" type="line"/>
      <point x="154" y="516" type="line"/>
    </contour>
  </outline>
</glyph>
<glyph name="copyright.color4" format="2">
  <advance width="600"/>
  <unicode hex="00A9"/>
  <outline>
    <contour>
      <point x="209" y="503" type="line"/>
      <point x="352" y="503" type="line"/>
      <point x="352" y="504" type="line"/>
      <point x="315" y="553" type="line"/>
      <point x="209" y="553" type="line"/>
    </contour>
  </outline>
</glyph>
<glyph name="copyright.color5" format="2">
  <advance width="600"/>
  <unicode hex="00A9"/>
  <outline>
    <contour>
      <point x="53" y="614" type="line"/>
      <point x="422" y="614" type="line"/>
      <point x="422" y="638" type="line"/>
      <point x="76" y="638" type="line"/>
      <point x="53" y="615" type="line"/>
    </contour>
  </outline>
</glyph>
<glyph name="copyright.color6" format="2">
  <advance width="600"/>
  <unicode hex="00A9"/>
  <outline>
    <contour>
      <point x="422" y="-18" type="line"/>
      <point x="446" y="-18" type="line"/>
      <point x="446" y="615" type="line"/>
      <point x="423" y="638" type="line"/>
      <point x="422" y="638" type="line"/>
    </contour>
  </outline>
</glyph>
<glyph name="copyright" format="2">
  <advance width="498.66667"/>
  <unicode hex="00A9"/>
  <outline>
    <contour>
      <point x="191" y="42" type="line"/>
      <point x="306" y="42" type="line"/>
      <point x="343" y="94" type="line"/>
      <point x="343" y="95" type="line"/>
      <point x="154" y="95" type="line"/>
      <point x="154" y="94" type="line"/>
    </contour>
    <contour>
      <point x="76" y="-42" type="line"/>
      <point x="77" y="-42" type="line"/>
      <point x="77" y="614" type="line"/>
      <point x="53" y="614" type="line"/>
      <point x="53" y="-19" type="line"/>
    </contour>
    <contour>
      <point x="77" y="-42" type="line"/>
      <point x="423" y="-42" type="line"/>
      <point x="446" y="-19" type="line"/>
      <point x="446" y="-18" type="line"/>
      <point x="77" y="-18" type="line"/>
    </contour>
    <contour>
      <point x="154" y="95" type="line"/>
      <point x="209" y="95" type="line"/>
      <point x="209" y="553" type="line"/>
      <point x="208" y="553" type="line"/>
      <point x="154" y="516" type="line"/>
    </contour>
    <contour>
      <point x="209" y="503" type="line"/>
      <point x="352" y="503" type="line"/>
      <point x="352" y="504" type="line"/>
      <point x="315" y="553" type="line"/>
      <point x="209" y="553" type="line"/>
    </contour>
    <contour>
      <point x="53" y="614" type="line"/>
      <point x="422" y="614" type="line"/>
      <point x="422" y="638" type="line"/>
      <point x="76" y="638" type="line"/>
      <point x="53" y="615" type="line"/>
    </contour>
    <contour>
      <point x="422" y="-18" type="line"/>
      <point x="446" y="-18" type="line"/>
      <point x="446" y="615" type="line"/>
      <point x="423" y="638" type="line"/>
      <point x="422" y="638" type="line"/>
    </contour>
  </outline>
</glyph>
<glyph name="ordfeminine.color1" format="2">
  <advance width="600"/>
  <unicode hex="00AA"/>
  <outline>
    <contour>
      <point x="87" y="500" type="line"/>
      <point x="161" y="500" type="line"/>
      <point x="161" y="538" type="line"/>
      <point x="52" y="538" type="line"/>
      <point x="52" y="537" type="line"/>
    </contour>
  </outline>
</glyph>
<glyph name="ordfeminine.color3" format="2">
  <advance width="600"/>
  <unicode hex="00AA"/>
  <outline>
    <contour>
      <point x="161" y="500" type="line"/>
      <point x="200" y="500" type="line"/>
      <point x="200" y="704" type="line"/>
      <point x="161" y="704" type="line"/>
    </contour>
  </outline>
</glyph>
<glyph name="ordfeminine" format="2">
  <advance width="251.16667"/>
  <unicode hex="00AA"/>
  <outline>
    <contour>
      <point x="91" y="704" type="line"/>
      <point x="200" y="704" type="line"/>
      <point x="200" y="705" type="line"/>
      <point x="164" y="742" type="line"/>
      <point x="91" y="742" type="line"/>
    </contour>
    <contour>
      <point x="87" y="500" type="line"/>
      <point x="161" y="500" type="line"/>
      <point x="161" y="538" type="line"/>
      <point x="52" y="538" type="line"/>
      <point x="52" y="537" type="line"/>
    </contour>
    <contour>
      <point x="52" y="538" type="line"/>
      <point x="91" y="538" type="line"/>
      <point x="91" y="742" type="line"/>
      <point x="90" y="742" type="line"/>
      <point x="52" y="706" type="line"/>
    </contour>
    <contour>
      <point x="161" y="500" type="line"/>
      <point x="200" y="500" type="line"/>
      <point x="200" y="704" type="line"/>
      <point x="161" y="704" type="line"/>
    </contour>
  </outline>
</glyph>
<glyph name="guillemetleft.color0" format="2">
  <advance width="600"/>
  <unicode hex="00AB"/>
  <outline>
    <contour>
      <point x="157" y="274" type="line"/>
      <point x="220" y="274" type="line"/>
      <point x="380" y="465" type="line"/>
      <point x="380" y="466" type="line"/>
      <point x="316" y="466" type="line"/>
      <point x="157" y="275" type="line"/>
    </contour>
  </outline>
</glyph>
<glyph name="guillemetleft.color1" format="2">
  <advance width="600"/>
  <unicode hex="00AB"/>
  <outline>
    <contour>
      <point x="201" y="83" type="line"/>
      <point x="265" y="83" type="line"/>
      <point x="265" y="85" type="line"/>
      <point x="106" y="274" type="line"/>
      <point x="42" y="274" type="line"/>
      <point x="42" y="273" type="line"/>
    </contour>
  </outline>
</glyph>
<glyph name="guillemetleft.color2" format="2">
  <advance width="600"/>
  <unicode hex="00AB"/>
  <outline>
    <contour>
      <point x="42" y="274" type="line"/>
      <point x="106" y="274" type="line"/>
      <point x="265" y="465" type="line"/>
      <point x="265" y="466" type="line"/>
      <point x="201" y="466" type="line"/>
      <point x="42" y="275" type="line"/>
    </contour>
  </outline>
</glyph>
<glyph name="guillemetleft" format="2">
  <advance width="419.66667"/>
  <unicode hex="00AB"/>
  <outline>
    <contour>
      <point x="157" y="274" type="line"/>
      <point x="220" y="274" type="line"/>
      <point x="380" y="465" type="line"/>
      <point x="380" y="466" type="line"/>
      <point x="316" y="466" type="line"/>
      <point x="157" y="275" type="line"/>
    </contour>
    <contour>
      <point x="201" y="83" type="line"/>
      <point x="265" y="83" type="line"/>
      <point x="265" y="85" type="line"/>
      <point x="106" y="274" type="line"/>
      <point x="42" y="274" type="line"/>
      <point x="42" y="273" type="line"/>
    </contour>
    <contour>
      <point x="42" y="274" type="line"/>
      <point x="106" y="274" type="line"/>
      <point x="265" y="465" type="line"/>
      <point x="265" y="466" type="line"/>
      <point x="201" y="466" type="line"/>
      <point x="42" y="275" type="line"/>
    </contour>
    <contour>
      <point x="316" y="83" type="line"/>
      <point x="380" y="83" type="line"/>
      <point x="380" y="85" type="line"/>
      <point x="220" y="274" type="line"/>
      <point x="157" y="274" type="line"/>
      <point x="157" y="273" type="line"/>
    </contour>
  </outline>
</glyph>
<glyph name="logicalnot.color0" format="2">
  <advance width="600"/>
  <unicode hex="00AC"/>
  <outline>
    <contour>
      <point x="48" y="329" type="line"/>
      <point x="291" y="329" type="line"/>
      <point x="254" y="376" type="line"/>
      <point x="48" y="376" type="line"/>
    </contour>
  </outline>
</glyph>
<glyph name="logicalnot.color1" format="2">
  <advance width="600"/>
  <unicode hex="00AC"/>
  <outline>
    <contour>
      <point x="242" y="219" type="line"/>
      <point x="243" y="219" type="line"/>
      <point x="291" y="256" type="line"/>
      <point x="291" y="329" type="line"/>
      <point x="242" y="329" type="line"/>
    </contour>
  </outline>
</glyph>
<glyph name="logicalnot" format="2">
  <advance width="339.16667"/>
  <unicode hex="00AC"/>
  <outline>
    <contour>
      <point x="48" y="329" type="line"/>
      <point x="291" y="329" type="line"/>
      <point x="254" y="376" type="line"/>
      <point x="48" y="376" type="line"/>
    </contour>
    <contour>
      <point x="242" y="219" type="line"/>
      <point x="243" y="219" type="line"/>
      <point x="291" y="256" type="line"/>
      <point x="291" y="329" type="line"/>
      <point x="242" y="329" type="line"/>
    </contour>
  </outline>
</glyph>
<glyph name="softhyphen" format="2">
  <advance width="219.16667"/>
  <unicode hex="00AD"/>
  <outline>
    <contour>
      <point x="50" y="313" type="line"/>
      <point x="173" y="313" type="line"/>
      <point x="173" y="375" type="line"/>
      <point x="50" y="375" type="line"/>
    </contour>
  </outline>
</glyph>
<glyph name="registered.color0" format="2">
  <advance width="600"/>
  <unicode hex="00AE"/>
  <outline>
    <contour>
      <point x="90" y="456" type="line"/>
      <point x="135" y="456" type="line"/>
      <point x="135" y="674" type="line"/>
      <point x="134" y="674" type="line"/>
      <point x="90" y="655" type="line"/>
    </contour>
  </outline>
</glyph>
<glyph name="registered.color1" format="2">
  <advance width="600"/>
  <unicode hex="00AE"/>
  <outline>
    <contour>
      <point x="56" y="414" type="line"/>
      <point x="57" y="414" type="line"/>
      <point x="57" y="694" type="line"/>
      <point x="33" y="694" type="line"/>
      <point x="33" y="436" type="line"/>
    </contour>
  </outline>
</glyph>
<glyph name="registered.color2" format="2">
  <advance width="600"/>
  <unicode hex="00AE"/>
  <outline>
    <contour>
      <point x="57" y="414" type="line"/>
      <point x="280" y="414" type="line"/>
      <point x="301" y="436" type="line"/>
      <point x="301" y="437" type="line"/>
      <point x="57" y="437" type="line"/>
    </contour>
  </outline>
</glyph>
<glyph name="registered.color3" format="2">
  <advance width="600"/>
  <unicode hex="00AE"/>
  <outline>
    <contour>
      <point x="190" y="456" type="line"/>
      <point x="248" y="456" type="line"/>
      <point x="248" y="457" type="line"/>
      <point x="209" y="566" type="line"/>
      <point x="153" y="557" type="line"/>
    </contour>
  </outline>
</glyph>
<glyph name="registered.color4" format="2">
  <advance width="600"/>
  <unicode hex="00AE"/>
  <outline>
    <contour>
      <point x="135" y="536" type="line"/>
      <point x="192" y="536" type="line"/>
      <point x="192" y="572" type="line"/>
      <point x="135" y="572" type="line"/>
    </contour>
  </outline>
</glyph>
<glyph name="registered.color5" format="2">
  <advance width="600"/>
  <unicode hex="00AE"/>
  <outline>
    <contour>
      <point x="192" y="536" type="line"/>
      <point x="193" y="536" type="line"/>
      <point x="237" y="563" type="line"/>
      <point x="237" y="639" type="line"/>
      <point x="192" y="639" type="line"/>
    </contour>
  </outline>
</glyph>
<glyph name="registered.color6" format="2">
  <advance width="600"/>
  <unicode hex="00AE"/>
  <outline>
    <contour>
      <point x="135" y="639" type="line"/>
      <point x="237" y="639" type="line"/>
      <point x="237" y="640" type="line"/>
      <point x="201" y="674" type="line"/>
      <point x="135" y="674" type="line"/>
    </contour>
  </outline>
</glyph>
<glyph name="registered.color7" format="2">
  <advance width="600"/>
  <unicode hex="00AE"/>
  <outline>
    <contour>
      <point x="33" y="694" type="line"/>
      <point x="279" y="694" type="line"/>
      <point x="279" y="717" type="line"/>
      <point x="56" y="717" type="line"/>
      <point x="33" y="695" type="line"/>
    </contour>
  </outline>
</glyph>
<glyph name="registered.color8" format="2">
  <advance width="600"/>
  <unicode hex="00AE"/>
  <outline>
    <contour>
      <point x="279" y="437" type="line"/>
      <point x="301" y="437" type="line"/>
      <point x="301" y="695" type="line"/>
      <point x="280" y="717" type="line"/>
      <point x="279" y="717" type="line"/>
    </contour>
  </outline>
</glyph>
<glyph name="registered" format="2">
  <advance width="334.16667"/>
  <unicode hex="00AE"/>
  <outline>
    <contour>
      <point x="90" y="456" type="line"/>
      <point x="135" y="456" type="line"/>
      <point x="135" y="674" type="line"/>
      <point x="134" y="674" type="line"/>
      <point x="90" y="655" type="line"/>
    </contour>
    <contour>
      <point x="56" y="414" type="line"/>
      <point x="57" y="414" type="line"/>
      <point x="57" y="694" type="line"/>
      <point x="33" y="694" type="line"/>
      <point x="33" y="436" type="line"/>
    </contour>
    <contour>
      <point x="57" y="414" type="line"/>
      <point x="280" y="414" type="line"/>
      <point x="301" y="436" type="line"/>
      <point x="301" y="437" type="line"/>
      <point x="57" y="437" type="line"/>
    </contour>
    <contour>
      <point x="190" y="456" type="line"/>
      <point x="248" y="456" type="line"/>
      <point x="248" y="457" type="line"/>
      <point x="209" y="566" type="line"/>
      <point x="153" y="557" type="line"/>
    </contour>
    <contour>
      <point x="135" y="536" type="line"/>
      <point x="192" y="536" type="line"/>
      <point x="192" y="572" type="line"/>
      <point x="135" y="572" type="line"/>
    </contour>
    <contour>
      <point x="192" y="536" type="line"/>
      <point x="193" y="536" type="line"/>
      <point x="237" y="563" type="line"/>
      <point x="237" y="639" type="line"/>
      <point x="192" y="639" type="line"/>
    </contour>
    <contour>
      <point x="135" y="639" type="line"/>
      <point x="237" y="639" type="line"/>
      <point x="237" y="640" type="line"/>
      <point x="201" y="674" type="line"/>
      <point x="135" y="674" type="line"/>
    </contour>
    <contour>
      <point x="33" y="694" type="line"/>
      <point x="279" y="694" type="line"/>
      <point x="279" y="717" type="line"/>
      <point x="56" y="717" type="line"/>
      <point x="33" y="695" type="line"/>
    </contour>
    <contour>
      <point x="279" y="437" type="line"/>
      <point x="301" y="437" type="line"/>
      <point x="301" y="695" type="line"/>
      <point x="280" y="717" type="line"/>
      <point x="279" y="717" type="line"/>
    </contour>
  </outline>
</glyph>
<glyph name="macron" format="2">
  <advance width="600"/>
  <unicode hex="00AF"/>
  <anchor x="307" y="505" name="_top"/>
  <outline>
    <contour>
      <point x="223" y="614" type="line"/>
      <point x="385" y="614" type="line"/>
      <point x="385" y="653" type="line"/>
      <point x="223" y="653" type="line"/>
    </contour>
  </outline>
</glyph>
<glyph name="degree.color0" format="2">
  <advance width="600"/>
  <unicode hex="00B0"/>
  <outline>
    <contour>
      <point x="38" y="681" type="line"/>
      <point x="142" y="681" type="line"/>
      <point x="142" y="682" type="line"/>
      <point x="112" y="717" type="line"/>
      <point x="38" y="717" type="line"/>
    </contour>
  </outline>
</glyph>
<glyph name="degree.color1" format="2">
  <advance width="600"/>
  <unicode hex="00B0"/>
  <outline>
    <contour>
      <point x="30" y="569" type="line"/>
      <point x="104" y="569" type="line"/>
      <point x="104" y="605" type="line"/>
      <point x="0" y="605" type="line"/>
      <point x="0" y="604" type="line"/>
    </contour>
  </outline>
</glyph>
<glyph name="degree.color2" format="2">
  <advance width="600"/>
  <unicode hex="00B0"/>
  <outline>
    <contour>
      <point x="0" y="605" type="line"/>
      <point x="38" y="605" type="line"/>
      <point x="38" y="717" type="line"/>
      <point x="36" y="717" type="line"/>
      <point x="0" y="686" type="line"/>
    </contour>
  </outline>
</glyph>
<glyph name="degree.color3" format="2">
  <advance width="600"/>
  <unicode hex="00B0"/>
  <outline>
    <contour>
      <point x="104" y="569" type="line"/>
      <point x="105" y="569" type="line"/>
      <point x="142" y="599" type="line"/>
      <point x="142" y="681" type="line"/>
      <point x="104" y="681" type="line"/>
    </contour>
  </outline>
</glyph>
<glyph name="degree" format="2">
  <advance width="190.16667"/>
  <unicode hex="00B0"/>
  <outline>
    <contour>
      <point x="38" y="681" type="line"/>
      <point x="142" y="681" type="line"/>
      <point x="142" y="682" type="line"/>
      <point x="112" y="717" type="line"/>
      <point x="38" y="717" type="line"/>
    </contour>
    <contour>
      <point x="30" y="569" type="line"/>
      <point x="104" y="569" type="line"/>
      <point x="104" y="605" type="line"/>
      <point x="0" y="605" type="line"/>
      <point x="0" y="604" type="line"/>
    </contour>
    <contour>
      <point x="0" y="605" type="line"/>
      <point x="38" y="605" type="line"/>
      <point x="38" y="717" type="line"/>
      <point x="36" y="717" type="line"/>
      <point x="0" y="686" type="line"/>
    </contour>
    <contour>
      <point x="104" y="569" type="line"/>
      <point x="105" y="569" type="line"/>
      <point x="142" y="599" type="line"/>
      <point x="142" y="681" type="line"/>
      <point x="104" y="681" type="line"/>
    </contour>
  </outline>
</glyph>
<glyph name="plusminus.color1" format="2">
  <advance width="600"/>
  <unicode hex="00B1"/>
  <outline>
    <contour>
      <point x="49" y="364" type="line"/>
      <point x="158" y="364" type="line"/>
      <point x="158" y="411" type="line"/>
      <point x="48" y="411" type="line"/>
    </contour>
  </outline>
</glyph>
<glyph name="plusminus.color2" format="2">
  <advance width="600"/>
  <unicode hex="00B1"/>
  <outline>
    <contour>
      <point x="158" y="277" type="line"/>
      <point x="206" y="277" type="line"/>
      <point x="206" y="364" type="line"/>
      <point x="158" y="364" type="line"/>
    </contour>
  </outline>
</glyph>
<glyph name="plusminus.color3" format="2">
  <advance width="600"/>
  <unicode hex="00B1"/>
  <outline>
    <contour>
      <point x="158" y="364" type="line"/>
      <point x="159" y="364" type="line"/>
      <point x="206" y="411" type="line"/>
      <point x="206" y="498" type="line"/>
      <point x="158" y="498" type="line"/>
    </contour>
  </outline>
</glyph>
<glyph name="plusminus.color4" format="2">
  <advance width="600"/>
  <unicode hex="00B1"/>
  <outline>
    <contour>
      <point x="159" y="364" type="line"/>
      <point x="315" y="364" type="line"/>
      <point x="315" y="411" type="line"/>
      <point x="206" y="411" type="line"/>
    </contour>
  </outline>
</glyph>
<glyph name="plusminus" format="2">
  <advance width="369.66667"/>
  <unicode hex="00B1"/>
  <outline>
    <contour>
      <point x="48" y="194" type="line"/>
      <point x="315" y="194" type="line"/>
      <point x="315" y="248" type="line"/>
      <point x="48" y="248" type="line"/>
    </contour>
    <contour>
      <point x="49" y="364" type="line"/>
      <point x="158" y="364" type="line"/>
      <point x="158" y="411" type="line"/>
      <point x="48" y="411" type="line"/>
    </contour>
    <contour>
      <point x="158" y="277" type="line"/>
      <point x="206" y="277" type="line"/>
      <point x="206" y="364" type="line"/>
      <point x="158" y="364" type="line"/>
    </contour>
    <contour>
      <point x="158" y="364" type="line"/>
      <point x="159" y="364" type="line"/>
      <point x="206" y="411" type="line"/>
      <point x="206" y="498" type="line"/>
      <point x="158" y="498" type="line"/>
    </contour>
    <contour>
      <point x="159" y="364" type="line"/>
      <point x="315" y="364" type="line"/>
      <point x="315" y="411" type="line"/>
      <point x="206" y="411" type="line"/>
    </contour>
  </outline>
</glyph>
<glyph name="twosuperior.color0" format="2">
  <advance width="600"/>
  <unicode hex="00B2"/>
  <outline>
    <contour>
      <point x="48" y="673" type="line"/>
      <point x="181" y="673" type="line"/>
      <point x="183" y="716" type="line"/>
      <point x="81" y="716" type="line"/>
      <point x="48" y="674" type="line"/>
    </contour>
  </outline>
</glyph>
<glyph name="twosuperior.color1" format="2">
  <advance width="600"/>
  <unicode hex="00B2"/>
  <outline>
    <contour>
      <point x="84" y="462" type="line"/>
      <point x="210" y="678" type="line"/>
      <point x="183" y="716" type="line"/>
      <point x="49" y="481" type="line"/>
      <point x="49" y="480" type="line"/>
    </contour>
  </outline>
</glyph>
<glyph name="twosuperior.color2" format="2">
  <advance width="600"/>
  <unicode hex="00B2"/>
  <outline>
    <contour>
      <point x="49" y="437" type="line"/>
      <point x="218" y="437" type="line"/>
      <point x="218" y="480" type="line"/>
      <point x="49" y="480" type="line"/>
    </contour>
  </outline>
</glyph>
<glyph name="twosuperior" format="2">
  <advance width="266.66667"/>
  <unicode hex="00B2"/>
  <outline>
    <contour>
      <point x="48" y="673" type="line"/>
      <point x="181" y="673" type="line"/>
      <point x="183" y="716" type="line"/>
      <point x="81" y="716" type="line"/>
      <point x="48" y="674" type="line"/>
    </contour>
    <contour>
      <point x="84" y="462" type="line"/>
      <point x="210" y="678" type="line"/>
      <point x="183" y="716" type="line"/>
      <point x="49" y="481" type="line"/>
      <point x="49" y="480" type="line"/>
    </contour>
    <contour>
      <point x="49" y="437" type="line"/>
      <point x="218" y="437" type="line"/>
      <point x="218" y="480" type="line"/>
      <point x="49" y="480" type="line"/>
    </contour>
  </outline>
</glyph>
<glyph name="threesuperior.color1" format="2">
  <advance width="600"/>
  <unicode hex="00B3"/>
  <outline>
    <contour>
      <point x="77" y="569" type="line"/>
      <point x="170" y="569" type="line"/>
      <point x="170" y="602" type="line"/>
      <point x="77" y="602" type="line"/>
    </contour>
  </outline>
</glyph>
<glyph name="threesuperior.color2" format="2">
  <advance width="600"/>
  <unicode hex="00B3"/>
  <outline>
    <contour>
      <point x="52" y="680" type="line"/>
      <point x="170" y="680" type="line"/>
      <point x="170" y="716" type="line"/>
      <point x="91" y="716" type="line"/>
      <point x="52" y="681" type="line"/>
    </contour>
  </outline>
</glyph>
<glyph name="threesuperior.color3" format="2">
  <advance width="600"/>
  <unicode hex="00B3"/>
  <outline>
    <contour>
      <point x="170" y="596" type="line"/>
      <point x="215" y="596" type="line"/>
      <point x="215" y="673" type="line"/>
      <point x="171" y="716" type="line"/>
      <point x="170" y="716" type="line"/>
    </contour>
  </outline>
</glyph>
<glyph name="threesuperior.color4" format="2">
  <advance width="600"/>
  <unicode hex="00B3"/>
  <outline>
    <contour>
      <point x="170" y="437" type="line"/>
      <point x="171" y="437" type="line"/>
      <point x="216" y="468" type="line"/>
      <point x="216" y="568" type="line"/>
      <point x="171" y="602" type="line"/>
      <point x="170" y="602" type="line"/>
    </contour>
  </outline>
</glyph>
<glyph name="threesuperior" format="2">
  <advance width="266.5"/>
  <unicode hex="00B3"/>
  <outline>
    <contour>
      <point x="83" y="437" type="line"/>
      <point x="170" y="437" type="line"/>
      <point x="170" y="475" type="line"/>
      <point x="43" y="475" type="line"/>
      <point x="43" y="474" type="line"/>
    </contour>
    <contour>
      <point x="77" y="569" type="line"/>
      <point x="170" y="569" type="line"/>
      <point x="170" y="602" type="line"/>
      <point x="77" y="602" type="line"/>
    </contour>
    <contour>
      <point x="52" y="680" type="line"/>
      <point x="170" y="680" type="line"/>
      <point x="170" y="716" type="line"/>
      <point x="91" y="716" type="line"/>
      <point x="52" y="681" type="line"/>
    </contour>
    <contour>
      <point x="170" y="596" type="line"/>
      <point x="215" y="596" type="line"/>
      <point x="215" y="673" type="line"/>
      <point x="171" y="716" type="line"/>
      <point x="170" y="716" type="line"/>
    </contour>
    <contour>
      <point x="170" y="437" type="line"/>
      <point x="171" y="437" type="line"/>
      <point x="216" y="468" type="line"/>
      <point x="216" y="568" type="line"/>
      <point x="171" y="602" type="line"/>
      <point x="170" y="602" type="line"/>
    </contour>
  </outline>
</glyph>
<glyph name="acute" format="2">
  <advance width="600"/>
  <unicode hex="00B4"/>
  <anchor x="301" y="505" name="_top"/>
  <outline>
    <contour>
      <point x="275" y="573" type="line"/>
      <point x="313" y="573" type="line"/>
      <point x="357" y="719" type="line"/>
      <point x="357" y="720" type="line"/>
      <point x="302" y="720" type="line"/>
    </contour>
  </outline>
</glyph>
<glyph name="micro.color0" format="2">
  <advance width="600"/>
  <unicode hex="00B5"/>
  <outline>
    <contour>
      <point x="50" y="-200" type="line"/>
      <point x="106" y="-200" type="line"/>
      <point x="106" y="505" type="line"/>
      <point x="105" y="505" type="line"/>
      <point x="50" y="468" type="line"/>
    </contour>
  </outline>
</glyph>
<glyph name="micro.color1" format="2">
  <advance width="600"/>
  <unicode hex="00B5"/>
  <outline>
    <contour>
      <point x="106" y="-2" type="line"/>
      <point x="185" y="-2" type="line"/>
      <point x="185" y="51" type="line"/>
      <point x="106" y="52" type="line"/>
    </contour>
  </outline>
</glyph>
<glyph name="micro.color2" format="2">
  <advance width="600"/>
  <unicode hex="00B5"/>
  <outline>
    <contour>
      <point x="225" y="-2" type="line"/>
      <point x="300" y="-2" type="line"/>
      <point x="300" y="52" type="line"/>
      <point x="185" y="51" type="line"/>
    </contour>
  </outline>
</glyph>
<glyph name="micro.color3" format="2">
  <advance width="600"/>
  <unicode hex="00B5"/>
  <outline>
    <contour>
      <point x="185" y="-2" type="line"/>
      <point x="186" y="-2" type="line"/>
      <point x="240" y="52" type="line"/>
      <point x="240" y="505" type="line"/>
      <point x="185" y="505" type="line"/>
    </contour>
  </outline>
</glyph>
<glyph name="micro" format="2">
  <advance width="349.5"/>
  <unicode hex="00B5"/>
  <outline>
    <contour>
      <point x="50" y="-200" type="line"/>
      <point x="106" y="-200" type="line"/>
      <point x="106" y="505" type="line"/>
      <point x="105" y="505" type="line"/>
      <point x="50" y="468" type="line"/>
    </contour>
    <contour>
      <point x="106" y="-2" type="line"/>
      <point x="185" y="-2" type="line"/>
      <point x="185" y="51" type="line"/>
      <point x="106" y="52" type="line"/>
    </contour>
    <contour>
      <point x="225" y="-2" type="line"/>
      <point x="300" y="-2" type="line"/>
      <point x="300" y="52" type="line"/>
      <point x="185" y="51" type="line"/>
    </contour>
    <contour>
      <point x="185" y="-2" type="line"/>
      <point x="186" y="-2" type="line"/>
      <point x="240" y="52" type="line"/>
      <point x="240" y="505" type="line"/>
      <point x="185" y="505" type="line"/>
    </contour>
  </outline>
</glyph>
<glyph name="paragraph.color1" format="2">
  <advance width="600"/>
  <unicode hex="00B6"/>
  <outline>
    <contour>
      <point x="83" y="323" type="line"/>
      <point x="218" y="323" type="line"/>
      <point x="218" y="377" type="line"/>
      <point x="30" y="377" type="line"/>
      <point x="30" y="376" type="line"/>
    </contour>
  </outline>
</glyph>
<glyph name="paragraph.color2" format="2">
  <advance width="600"/>
  <unicode hex="00B6"/>
  <outline>
    <contour>
      <point x="30" y="377" type="line"/>
      <point x="86" y="377" type="line"/>
      <point x="86" y="705" type="line"/>
      <point x="85" y="705" type="line"/>
      <point x="30" y="653" type="line"/>
    </contour>
  </outline>
</glyph>
<glyph name="paragraph.color3" format="2">
  <advance width="600"/>
  <unicode hex="00B6"/>
  <outline>
    <contour>
      <point x="218" y="0" type="line"/>
      <point x="274" y="0" type="line"/>
      <point x="274" y="651" type="line"/>
      <point x="218" y="651" type="line"/>
    </contour>
  </outline>
</glyph>
<glyph name="paragraph.color4" format="2">
  <advance width="600"/>
  <unicode hex="00B6"/>
  <outline>
    <contour>
      <point x="308" y="0" type="line"/>
      <point x="364" y="0" type="line"/>
      <point x="364" y="651" type="line"/>
      <point x="308" y="651" type="line"/>
    </contour>
  </outline>
</glyph>
<glyph name="paragraph" format="2">
  <advance width="423.83333"/>
  <unicode hex="00B6"/>
  <outline>
    <contour>
      <point x="86" y="651" type="line"/>
      <point x="364" y="651" type="line"/>
      <point x="364" y="705" type="line"/>
      <point x="86" y="705" type="line"/>
    </contour>
    <contour>
      <point x="83" y="323" type="line"/>
      <point x="218" y="323" type="line"/>
      <point x="218" y="377" type="line"/>
      <point x="30" y="377" type="line"/>
      <point x="30" y="376" type="line"/>
    </contour>
    <contour>
      <point x="30" y="377" type="line"/>
      <point x="86" y="377" type="line"/>
      <point x="86" y="705" type="line"/>
      <point x="85" y="705" type="line"/>
      <point x="30" y="653" type="line"/>
    </contour>
    <contour>
      <point x="218" y="0" type="line"/>
      <point x="274" y="0" type="line"/>
      <point x="274" y="651" type="line"/>
      <point x="218" y="651" type="line"/>
    </contour>
    <contour>
      <point x="308" y="0" type="line"/>
      <point x="364" y="0" type="line"/>
      <point x="364" y="651" type="line"/>
      <point x="308" y="651" type="line"/>
    </contour>
  </outline>
</glyph>
<glyph name="periodcentered" format="2">
  <advance width="161.16667"/>
  <unicode hex="00B7"/>
  <outline>
    <contour>
      <point x="33" y="303" type="line"/>
      <point x="98" y="303" type="line"/>
      <point x="98" y="357" type="line"/>
      <point x="33" y="357" type="line"/>
    </contour>
  </outline>
</glyph>
<glyph name="cedilla.color0" format="2">
  <advance width="600"/>
  <unicode hex="00B8"/>
  <outline>
    <contour>
      <point x="316" y="-58" type="line"/>
      <point x="374" y="-58" type="line"/>
      <point x="374" y="-57" type="line"/>
      <point x="347" y="-26" type="line"/>
      <point x="326" y="-26" type="line"/>
    </contour>
  </outline>
</glyph>
<glyph name="cedilla.color1" format="2">
  <advance width="600"/>
  <unicode hex="00B8"/>
  <outline>
    <contour>
      <point x="281" y="-58" type="line"/>
      <point x="316" y="-58" type="line"/>
      <point x="343" y="-1" type="line"/>
      <point x="343" y="0" type="line"/>
      <point x="306" y="0" type="line"/>
      <point x="281" y="-57" type="line"/>
    </contour>
  </outline>
</glyph>
<glyph name="cedilla.color2" format="2">
  <advance width="600"/>
  <unicode hex="00B8"/>
  <outline>
    <contour>
      <point x="285" y="-134" type="line"/>
      <point x="338" y="-134" type="line"/>
      <point x="338" y="-103" type="line"/>
      <point x="260" y="-103" type="line"/>
      <point x="260" y="-104" type="line"/>
    </contour>
  </outline>
</glyph>
<glyph name="cedilla.color3" format="2">
  <advance width="600"/>
  <unicode hex="00B8"/>
  <outline>
    <contour>
      <point x="338" y="-134" type="line"/>
      <point x="339" y="-134" type="line"/>
      <point x="374" y="-110" type="line"/>
      <point x="374" y="-58" type="line"/>
      <point x="338" y="-58" type="line"/>
    </contour>
  </outline>
</glyph>
<glyph name="cedilla" format="2">
  <advance width="600"/>
  <unicode hex="00B8"/>
  <anchor x="327" y="0" name="_bottom"/>
  <outline>
    <contour>
      <point x="316" y="-58" type="line"/>
      <point x="374" y="-58" type="line"/>
      <point x="374" y="-57" type="line"/>
      <point x="347" y="-26" type="line"/>
      <point x="326" y="-26" type="line"/>
    </contour>
    <contour>
      <point x="281" y="-58" type="line"/>
      <point x="316" y="-58" type="line"/>
      <point x="343" y="-1" type="line"/>
      <point x="343" y="0" type="line"/>
      <point x="306" y="0" type="line"/>
      <point x="281" y="-57" type="line"/>
    </contour>
    <contour>
      <point x="285" y="-134" type="line"/>
      <point x="338" y="-134" type="line"/>
      <point x="338" y="-103" type="line"/>
      <point x="260" y="-103" type="line"/>
      <point x="260" y="-104" type="line"/>
    </contour>
    <contour>
      <point x="338" y="-134" type="line"/>
      <point x="339" y="-134" type="line"/>
      <point x="374" y="-110" type="line"/>
      <point x="374" y="-58" type="line"/>
      <point x="338" y="-58" type="line"/>
    </contour>
  </outline>
</glyph>
<glyph name="onesuperior.color3" format="2">
  <advance width="600"/>
  <unicode hex="00B9"/>
  <outline>
    <contour>
      <point x="69" y="673" type="line"/>
      <point x="116" y="673" type="line"/>
      <point x="152" y="716" type="line"/>
      <point x="69" y="716" type="line"/>
    </contour>
  </outline>
</glyph>
<glyph name="onesuperior" format="2">
  <advance width="270.83333"/>
  <unicode hex="00B9"/>
  <outline>
    <contour>
      <point x="116" y="437" type="line"/>
      <point x="125" y="437" type="line"/>
      <point x="161" y="479" type="line"/>
      <point x="161" y="716" type="line"/>
      <point x="152" y="716" type="line"/>
      <point x="116" y="673" type="line"/>
    </contour>
    <contour>
      <point x="48" y="437" type="line"/>
      <point x="116" y="437" type="line"/>
      <point x="116" y="479" type="line"/>
      <point x="48" y="479" type="line"/>
    </contour>
    <contour>
      <point x="125" y="437" type="line"/>
      <point x="223" y="437" type="line"/>
      <point x="223" y="479" type="line"/>
      <point x="161" y="479" type="line"/>
    </contour>
    <contour>
      <point x="69" y="673" type="line"/>
      <point x="116" y="673" type="line"/>
      <point x="152" y="716" type="line"/>
      <point x="69" y="716" type="line"/>
    </contour>
  </outline>
</glyph>
<glyph name="ordmasculine.color0" format="2">
  <advance width="600"/>
  <unicode hex="00BA"/>
  <outline>
    <contour>
      <point x="91" y="704" type="line"/>
      <point x="200" y="704" type="line"/>
      <point x="200" y="705" type="line"/>
      <point x="164" y="742" type="line"/>
      <point x="91" y="742" type="line"/>
    </contour>
  </outline>
</glyph>
<glyph name="ordmasculine.color1" format="2">
  <advance width="600"/>
  <unicode hex="00BA"/>
  <outline>
    <contour>
      <point x="87" y="500" type="line"/>
      <point x="161" y="500" type="line"/>
      <point x="161" y="538" type="line"/>
      <point x="52" y="538" type="line"/>
      <point x="52" y="537" type="line"/>
    </contour>
  </outline>
</glyph>
<glyph name="ordmasculine.color2" format="2">
  <advance width="600"/>
  <unicode hex="00BA"/>
  <outline>
    <contour>
      <point x="52" y="538" type="line"/>
      <point x="91" y="538" type="line"/>
      <point x="91" y="742" type="line"/>
      <point x="90" y="742" type="line"/>
      <point x="52" y="706" type="line"/>
    </contour>
  </outline>
</glyph>
<glyph name="ordmasculine.color3" format="2">
  <advance width="600"/>
  <unicode hex="00BA"/>
  <outline>
    <contour>
      <point x="161" y="500" type="line"/>
      <point x="162" y="500" type="line"/>
      <point x="200" y="536" type="line"/>
      <point x="200" y="704" type="line"/>
      <point x="161" y="704" type="line"/>
    </contour>
  </outline>
</glyph>
<glyph name="ordmasculine" format="2">
  <advance width="251.16667"/>
  <unicode hex="00BA"/>
  <outline>
    <contour>
      <point x="91" y="704" type="line"/>
      <point x="200" y="704" type="line"/>
      <point x="200" y="705" type="line"/>
      <point x="164" y="742" type="line"/>
      <point x="91" y="742" type="line"/>
    </contour>
    <contour>
      <point x="87" y="500" type="line"/>
      <point x="161" y="500" type="line"/>
      <point x="161" y="538" type="line"/>
      <point x="52" y="538" type="line"/>
      <point x="52" y="537" type="line"/>
    </contour>
    <contour>
      <point x="52" y="538" type="line"/>
      <point x="91" y="538" type="line"/>
      <point x="91" y="742" type="line"/>
      <point x="90" y="742" type="line"/>
      <point x="52" y="706" type="line"/>
    </contour>
    <contour>
      <point x="161" y="500" type="line"/>
      <point x="162" y="500" type="line"/>
      <point x="200" y="536" type="line"/>
      <point x="200" y="704" type="line"/>
      <point x="161" y="704" type="line"/>
    </contour>
  </outline>
</glyph>
<glyph name="guillemetright.color0" format="2">
  <advance width="600"/>
  <unicode hex="00BB"/>
  <outline>
    <contour>
      <point x="263" y="274" type="line"/>
      <point x="263" y="275" type="line"/>
      <point x="104" y="466" type="line"/>
      <point x="40" y="466" type="line"/>
      <point x="40" y="465" type="line"/>
      <point x="200" y="274" type="line"/>
    </contour>
  </outline>
</glyph>
<glyph name="guillemetright.color1" format="2">
  <advance width="600"/>
  <unicode hex="00BB"/>
  <outline>
    <contour>
      <point x="219" y="83" type="line"/>
      <point x="378" y="273" type="line"/>
      <point x="378" y="274" type="line"/>
      <point x="314" y="274" type="line"/>
      <point x="155" y="85" type="line"/>
      <point x="155" y="83" type="line"/>
    </contour>
  </outline>
</glyph>
